CSLSans-BoldItalic.ufo
<glyph name="exclam" format="2">
  <advance width="306"/>
  <unicode hex="0021"/>
  <outline>
    <contour>
      <point x="101" y="-12" type="qcurve" smooth="yes"/>
      <point x="29" y="-12"/>
      <point x="29" y="43" type="qcurve" smooth="yes"/>
      <point x="29" y="156"/>
      <point x="129" y="156" type="qcurve" smooth="yes"/>
      <point x="199" y="156"/>
      <point x="201" y="101" type="qcurve"/>
      <point x="201" y="-12"/>
    </contour>
    <contour>
      <point x="173" y="213" type="line"/>
      <point x="116" y="213" type="line"/>
      <point x="132" y="502" type="line"/>
      <point x="171" y="698" type="line"/>
      <point x="310" y="698" type="line"/>
      <point x="271" y="502" type="line"/>
    </contour>
  </outline>
</glyph>
<glyph name="dollar" format="2">
  <advance width="565"/>
  <unicode hex="0024"/>
  <outline>
    <contour>
      <point x="194" y="8" type="line"/>
      <point x="90" y="29"/>
      <point x="22" y="111" type="qcurve"/>
      <point x="111" y="199" type="line"/>
      <point x="161" y="143"/>
      <point x="226" y="126" type="qcurve"/>
      <point x="263" y="308" type="line"/>
      <point x="98" y="368"/>
      <point x="98" y="496" type="qcurve" smooth="yes"/>
      <point x="98" y="518"/>
      <point x="105" y="542" type="qcurve"/>
      <point x="111" y="571"/>
      <point x="127" y="598" type="qcurve" smooth="yes"/>
      <point x="182" y="692"/>
      <point x="328" y="698" type="qcurve"/>
      <point x="329" y="707" type="line"/>
      <point x="348" y="780" type="line"/>
      <point x="448" y="780" type="line"/>
      <point x="430" y="690" type="line"/>
      <point x="522" y="669"/>
      <point x="579" y="600" type="qcurve"/>
      <point x="489" y="512" type="line"/>
      <point x="452" y="557"/>
      <point x="398" y="572" type="qcurve"/>
      <point x="365" y="406" type="line"/>
      <point x="369" y="404" type="line"/>
      <point x="533" y="342"/>
      <point x="533" y="218" type="qcurve" smooth="yes"/>
      <point x="533" y="157"/>
      <point x="502" y="106" type="qcurve" smooth="yes"/>
      <point x="442" y="6"/>
      <point x="291" y="0" type="qcurve"/>
      <point x="290" y="-9" type="line"/>
      <point x="276" y="-82" type="line"/>
      <point x="175" y="-82" type="line"/>
      <point x="191" y="-2" type="line"/>
    </contour>
    <contour>
      <point x="288" y="435" type="qcurve"/>
      <point x="317" y="578" type="line"/>
      <point x="278" y="575"/>
      <point x="259" y="559" type="qcurve" smooth="yes"/>
      <point x="233" y="538"/>
      <point x="233" y="508" type="qcurve" smooth="yes"/>
      <point x="233" y="459"/>
    </contour>
    <contour>
      <point x="307" y="120" type="line"/>
      <point x="397" y="129"/>
      <point x="397" y="207" type="qcurve" smooth="yes"/>
      <point x="397" y="254"/>
      <point x="339" y="280" type="qcurve"/>
    </contour>
  </outline>
</glyph>
<glyph name="percent" format="2">
  <advance width="932"/>
  <unicode hex="0025"/>
  <outline>
    <contour>
      <point x="677" y="66" type="qcurve" smooth="yes"/>
      <point x="698" y="66"/>
      <point x="727" y="91"/>
      <point x="738" y="124" type="qcurve" smooth="yes"/>
      <point x="763" y="198"/>
      <point x="763" y="252" type="qcurve"/>
      <point x="760" y="306"/>
      <point x="716" y="306" type="qcurve" smooth="yes"/>
      <point x="686" y="306"/>
      <point x="668" y="277" type="qcurve"/>
      <point x="655" y="250"/>
      <point x="631" y="155"/>
      <point x="631" y="120" type="qcurve"/>
      <point x="632" y="66"/>
    </contour>
    <contour>
      <point x="249" y="392" type="qcurve" smooth="yes"/>
      <point x="270" y="392"/>
      <point x="299" y="417"/>
      <point x="310" y="450" type="qcurve" smooth="yes"/>
      <point x="335" y="524"/>
      <point x="335" y="578" type="qcurve"/>
      <point x="332" y="632"/>
      <point x="288" y="632" type="qcurve" smooth="yes"/>
      <point x="258" y="632"/>
      <point x="240" y="603" type="qcurve"/>
      <point x="227" y="576"/>
      <point x="203" y="481"/>
      <point x="203" y="446" type="qcurve"/>
      <point x="204" y="392"/>
    </contour>
    <contour>
      <point x="671" y="-12" type="qcurve" smooth="yes"/>
      <point x="606" y="-12"/>
      <point x="522" y="62"/>
      <point x="522" y="146" type="qcurve" smooth="yes"/>
      <point x="522" y="252"/>
      <point x="643" y="384"/>
      <point x="722" y="384" type="qcurve" smooth="yes"/>
      <point x="788" y="384"/>
      <point x="872" y="309"/>
      <point x="872" y="226" type="qcurve" smooth="yes"/>
      <point x="872" y="122"/>
      <point x="751" y="-12"/>
    </contour>
    <contour>
      <point x="243" y="314" type="qcurve" smooth="yes"/>
      <point x="177" y="314"/>
      <point x="94" y="388"/>
      <point x="94" y="472" type="qcurve" smooth="yes"/>
      <point x="94" y="576"/>
      <point x="215" y="710"/>
      <point x="294" y="710" type="qcurve" smooth="yes"/>
      <point x="360" y="710"/>
      <point x="444" y="635"/>
      <point x="444" y="552" type="qcurve" smooth="yes"/>
      <point x="444" y="448"/>
      <point x="323" y="314"/>
    </contour>
    <contour>
      <point x="255" y="0" type="line"/>
      <point x="139" y="0" type="line"/>
      <point x="711" y="698" type="line"/>
      <point x="827" y="698" type="line"/>
    </contour>
  </outline>
</glyph>
<glyph name="ampersand" format="2">
  <advance width="698"/>
  <unicode hex="0026"/>
  <outline>
    <contour>
      <point x="232" y="-12" type="qcurve" smooth="yes"/>
      <point x="130" y="-12"/>
      <point x="32" y="86"/>
      <point x="32" y="157" type="qcurve" smooth="yes"/>
      <point x="32" y="301"/>
      <point x="209" y="380" type="qcurve"/>
      <point x="158" y="450"/>
      <point x="158" y="515" type="qcurve" smooth="yes"/>
      <point x="158" y="596"/>
      <point x="275" y="710"/>
      <point x="380" y="710" type="qcurve" smooth="yes"/>
      <point x="424" y="710"/>
      <point x="504" y="680"/>
      <point x="554" y="616"/>
      <point x="554" y="564" type="qcurve" smooth="yes"/>
      <point x="554" y="445"/>
      <point x="374" y="361" type="qcurve"/>
      <point x="464" y="236" type="line"/>
      <point x="499" y="302"/>
      <point x="514" y="382" type="qcurve"/>
      <point x="680" y="382" type="line"/>
      <point x="658" y="272" type="line"/>
      <point x="581" y="272" type="line"/>
      <point x="562" y="206"/>
      <point x="525" y="149" type="qcurve"/>
      <point x="631" y="0" type="line"/>
      <point x="479" y="0" type="line"/>
      <point x="435" y="62" type="line"/>
      <point x="350" y="-12"/>
    </contour>
    <contour>
      <point x="322" y="435" type="qcurve"/>
      <point x="371" y="458"/>
      <point x="426" y="511"/>
      <point x="426" y="551" type="qcurve" smooth="yes"/>
      <point x="426" y="581"/>
      <point x="387" y="610"/>
      <point x="362" y="610" type="qcurve" smooth="yes"/>
      <point x="332" y="610"/>
      <point x="285" y="569"/>
      <point x="285" y="521" type="qcurve" smooth="yes"/>
      <point x="285" y="482"/>
    </contour>
    <contour>
      <point x="264" y="97" type="qcurve" smooth="yes"/>
      <point x="329" y="97"/>
      <point x="382" y="137" type="qcurve"/>
      <point x="261" y="307" type="line"/>
      <point x="164" y="265"/>
      <point x="164" y="178" type="qcurve" smooth="yes"/>
      <point x="165" y="97"/>
    </contour>
  </outline>
</glyph>
<glyph name="zero" format="2">
  <advance width="600"/>
  <unicode hex="0030"/>
  <outline>
    <contour>
      <point x="273" y="97" type="line" smooth="yes"/>
      <point x="336" y="97"/>
      <point x="401" y="208"/>
      <point x="416" y="301" type="qcurve"/>
      <point x="438" y="408" type="line" smooth="yes"/>
      <point x="446" y="447"/>
      <point x="446" y="483" type="qcurve" smooth="yes"/>
      <point x="446" y="535"/>
      <point x="406" y="601"/>
      <point x="353" y="601" type="qcurve" smooth="yes"/>
      <point x="289" y="601"/>
      <point x="223" y="490"/>
      <point x="210" y="397" type="qcurve"/>
      <point x="189" y="290" type="line" smooth="yes"/>
      <point x="181" y="251"/>
      <point x="181" y="215" type="qcurve" smooth="yes"/>
      <point x="181" y="97"/>
      <point x="270" y="97" type="qcurve" smooth="yes"/>
    </contour>
    <contour>
      <point x="261" y="-12" type="qcurve" smooth="yes"/>
      <point x="187" y="-12"/>
      <point x="94" y="53"/>
      <point x="51" y="167"/>
      <point x="51" y="241" type="qcurve" smooth="yes"/>
      <point x="51" y="325"/>
      <point x="89" y="491"/>
      <point x="167" y="627"/>
      <point x="286" y="710"/>
      <point x="366" y="710" type="qcurve" smooth="yes"/>
      <point x="440" y="710"/>
      <point x="533" y="645"/>
      <point x="576" y="531"/>
      <point x="576" y="457" type="qcurve" smooth="yes"/>
      <point x="576" y="371"/>
      <point x="536" y="203"/>
      <point x="457" y="69"/>
      <point x="339" y="-12"/>
    </contour>
  </outline>
</glyph>
<glyph name="four" format="2">
  <advance width="600"/>
  <unicode hex="0034"/>
  <outline>
    <contour>
      <point x="419" y="0" type="line"/>
      <point x="295" y="0" type="line"/>
      <point x="322" y="135" type="line"/>
      <point x="15" y="135" type="line"/>
      <point x="38" y="252" type="line"/>
      <point x="398" y="698" type="line"/>
      <point x="559" y="698" type="line"/>
      <point x="467" y="239" type="line"/>
      <point x="555" y="239" type="line"/>
      <point x="533" y="135" type="line"/>
      <point x="446" y="135" type="line"/>
    </contour>
    <contour>
      <point x="343" y="239" type="line"/>
      <point x="405" y="549" type="line"/>
      <point x="395" y="549" type="line"/>
      <point x="148" y="239" type="line"/>
    </contour>
  </outline>
</glyph>
<glyph name="six" format="2">
  <advance width="600"/>
  <unicode hex="0036"/>
  <outline>
    <contour>
      <point x="276" y="94" type="qcurve" smooth="yes"/>
      <point x="343" y="94"/>
      <point x="407" y="184"/>
      <point x="407" y="247" type="qcurve" smooth="yes"/>
      <point x="407" y="342"/>
      <point x="312" y="342" type="qcurve" smooth="yes"/>
      <point x="265" y="342"/>
      <point x="206" y="300"/>
      <point x="180" y="230"/>
      <point x="180" y="189" type="qcurve" smooth="yes"/>
      <point x="180" y="94"/>
    </contour>
    <contour>
      <point x="265" y="-12" type="qcurve" smooth="yes"/>
      <point x="155" y="-12"/>
      <point x="50" y="117"/>
      <point x="50" y="219" type="qcurve" smooth="yes"/>
      <point x="50" y="319"/>
      <point x="145" y="502"/>
      <point x="292" y="650"/>
      <point x="375" y="698" type="qcurve"/>
      <point x="564" y="698" type="line"/>
      <point x="429" y="619"/>
      <point x="246" y="451"/>
      <point x="207" y="345" type="qcurve"/>
      <point x="214" y="342" type="line"/>
      <point x="269" y="447"/>
      <point x="375" y="447" type="qcurve" smooth="yes"/>
      <point x="459" y="447"/>
      <point x="544" y="335"/>
      <point x="544" y="255" type="qcurve" smooth="yes"/>
      <point x="544" y="189"/>
      <point x="482" y="67"/>
      <point x="357" y="-12"/>
    </contour>
  </outline>
</glyph>
<glyph name="eight" format="2">
  <advance width="600"/>
  <unicode hex="0038"/>
  <outline>
    <contour>
      <point x="258" y="-12" type="qcurve" smooth="yes"/>
      <point x="145" y="-12"/>
      <point x="35" y="89"/>
      <point x="35" y="166" type="qcurve" smooth="yes"/>
      <point x="35" y="249"/>
      <point x="130" y="346"/>
      <point x="204" y="362" type="qcurve"/>
      <point x="205" y="369" type="line"/>
      <point x="120" y="403"/>
      <point x="120" y="505" type="qcurve" smooth="yes"/>
      <point x="120" y="554"/>
      <point x="173" y="649"/>
      <point x="286" y="710"/>
      <point x="375" y="710" type="qcurve" smooth="yes"/>
      <point x="481" y="710"/>
      <point x="577" y="619"/>
      <point x="577" y="550" type="qcurve" smooth="yes"/>
      <point x="577" y="480"/>
      <point x="495" y="389"/>
      <point x="432" y="368" type="qcurve"/>
      <point x="431" y="360" type="line"/>
      <point x="533" y="328"/>
      <point x="533" y="212" type="qcurve" smooth="yes"/>
      <point x="533" y="121"/>
      <point x="380" y="-12"/>
    </contour>
    <contour>
      <point x="329" y="409" type="qcurve" smooth="yes"/>
      <point x="392" y="409"/>
      <point x="449" y="482"/>
      <point x="449" y="533" type="qcurve" smooth="yes"/>
      <point x="449" y="565"/>
      <point x="406" y="606"/>
      <point x="358" y="606" type="qcurve" smooth="yes"/>
      <point x="295" y="606"/>
      <point x="238" y="533"/>
      <point x="238" y="482" type="qcurve" smooth="yes"/>
      <point x="238" y="450"/>
      <point x="281" y="409"/>
    </contour>
    <contour>
      <point x="267" y="92" type="qcurve" smooth="yes"/>
      <point x="390" y="92"/>
      <point x="397" y="226" type="qcurve"/>
      <point x="395" y="309"/>
      <point x="300" y="309" type="qcurve" smooth="yes"/>
      <point x="246" y="309"/>
      <point x="170" y="248"/>
      <point x="170" y="175" type="qcurve"/>
      <point x="172" y="92"/>
    </contour>
  </outline>
</glyph>
<glyph name="semicolon" format="2">
  <advance width="300"/>
  <unicode hex="003B"/>
  <outline>
    <contour>
      <point x="50" y="-144" type="qcurve"/>
      <point x="-48" y="-144" type="line"/>
      <point x="33" y="-81"/>
      <point x="72" y="-8" type="qcurve"/>
      <point x="24" y="4"/>
      <point x="24" y="46" type="qcurve" smooth="yes"/>
      <point x="24" y="90"/>
      <point x="68" y="159"/>
      <point x="120" y="159" type="qcurve" smooth="yes"/>
      <point x="160" y="159"/>
      <point x="192" y="122"/>
      <point x="192" y="98" type="qcurve" smooth="yes"/>
      <point x="192" y="43"/>
      <point x="118" y="-93"/>
    </contour>
    <contour>
      <point x="167" y="364" type="qcurve" smooth="yes"/>
      <point x="126" y="364"/>
      <point x="95" y="399"/>
      <point x="95" y="420" type="qcurve" smooth="yes"/>
      <point x="95" y="468"/>
      <point x="139" y="534"/>
      <point x="193" y="534" type="qcurve" smooth="yes"/>
      <point x="233" y="534"/>
      <point x="264" y="499"/>
      <point x="264" y="478" type="qcurve" smooth="yes"/>
      <point x="264" y="364"/>
    </contour>
  </outline>
</glyph>
<glyph name="equal" format="2">
  <advance width="600"/>
  <unicode hex="003D"/>
  <outline>
    <contour>
      <point x="507" y="140" type="line"/>
      <point x="46" y="140" type="line"/>
      <point x="67" y="246" type="line"/>
      <point x="528" y="246" type="line"/>
    </contour>
    <contour>
      <point x="551" y="365" type="line"/>
      <point x="91" y="365" type="line"/>
      <point x="112" y="472" type="line"/>
      <point x="573" y="472" type="line"/>
    </contour>
  </outline>
</glyph>
<glyph name="D" format="2">
  <advance width="676"/>
  <unicode hex="0044"/>
  <outline>
    <contour>
      <point x="296" y="118" type="line" smooth="yes"/>
      <point x="364" y="118"/>
      <point x="466" y="201"/>
      <point x="487" y="295" type="qcurve"/>
      <point x="507" y="398"/>
      <point x="512" y="429"/>
      <point x="513" y="446" type="qcurve"/>
      <point x="513" y="453" type="line" smooth="yes"/>
      <point x="513" y="580"/>
      <point x="392" y="580" type="qcurve" smooth="yes"/>
      <point x="275" y="580" type="line"/>
      <point x="182" y="118" type="line"/>
    </contour>
    <contour>
      <point x="286" y="0" type="qcurve" smooth="yes"/>
      <point x="25" y="0" type="line"/>
      <point x="165" y="698" type="line"/>
      <point x="386" y="698" type="line" smooth="yes"/>
      <point x="463" y="698"/>
      <point x="581" y="642"/>
      <point x="648" y="526"/>
      <point x="648" y="435" type="qcurve" smooth="yes"/>
      <point x="648" y="352"/>
      <point x="604" y="196"/>
      <point x="515" y="73"/>
      <point x="379" y="0"/>
    </contour>
  </outline>
</glyph>
<glyph name="Q" format="2">
  <advance width="692"/>
  <unicode hex="0051"/>
  <outline>
    <contour>
      <point x="397" y="122" type="qcurve"/>
      <point x="284" y="253" type="line"/>
      <point x="424" y="253" type="line"/>
      <point x="472" y="198" type="line"/>
      <point x="497" y="244"/>
      <point x="507" y="308" type="qcurve"/>
      <point x="514" y="338" type="line" smooth="yes"/>
      <point x="521" y="368"/>
      <point x="525.5" y="394.5" type="qcurve" smooth="yes"/>
      <point x="529" y="416"/>
      <point x="531" y="455" type="qcurve"/>
      <point x="529" y="592"/>
      <point x="406" y="592" type="qcurve" smooth="yes"/>
      <point x="322" y="592"/>
      <point x="229" y="481"/>
      <point x="215" y="389" type="qcurve"/>
      <point x="209" y="364" type="line" smooth="yes"/>
      <point x="191" y="289"/>
      <point x="191" y="243" type="qcurve" smooth="yes"/>
      <point x="191" y="106"/>
      <point x="316" y="106" type="qcurve" smooth="yes"/>
      <point x="362" y="106"/>
    </contour>
    <contour>
      <point x="553" y="104" type="qcurve"/>
      <point x="652" y="-12" type="line"/>
      <point x="512" y="-12" type="line"/>
      <point x="472" y="34" type="line"/>
      <point x="458" y="26" type="line" smooth="yes"/>
      <point x="391" y="-12"/>
      <point x="306" y="-12" type="qcurve" smooth="yes"/>
      <point x="234" y="-12"/>
      <point x="122" y="52"/>
      <point x="57" y="177"/>
      <point x="57" y="269" type="qcurve" smooth="yes"/>
      <point x="57" y="347"/>
      <point x="103" y="504"/>
      <point x="193" y="632"/>
      <point x="327" y="710"/>
      <point x="415" y="710" type="qcurve" smooth="yes"/>
      <point x="534" y="710"/>
      <point x="665" y="557"/>
      <point x="665" y="429" type="qcurve" smooth="yes"/>
      <point x="665" y="347"/>
      <point x="617" y="189"/>
      <point x="571" y="126" type="qcurve" smooth="yes"/>
      <point x="562" y="114"/>
    </contour>
  </outline>
</glyph>
<glyph name="b" format="2">
  <advance width="581"/>
  <unicode hex="0062"/>
  <outline>
    <contour>
      <point x="272" y="94" type="qcurve" smooth="yes"/>
      <point x="371" y="94"/>
      <point x="395" y="219" type="qcurve" smooth="yes"/>
      <point x="408" y="291" type="line"/>
      <point x="414" y="318"/>
      <point x="415" y="334" type="qcurve"/>
      <point x="415" y="429"/>
      <point x="343" y="429" type="qcurve" smooth="yes"/>
      <point x="289" y="429"/>
      <point x="215" y="335"/>
      <point x="201" y="273" type="qcurve"/>
      <point x="185" y="190"/>
      <point x="182" y="167" type="qcurve"/>
      <point x="182" y="129"/>
      <point x="234" y="94"/>
    </contour>
    <contour>
      <point x="301" y="-12" type="qcurve" smooth="yes"/>
      <point x="253" y="-12"/>
      <point x="179" y="39"/>
      <point x="169" y="90" type="qcurve"/>
      <point x="164" y="90" type="line"/>
      <point x="146" y="0" type="line"/>
      <point x="18" y="0" type="line"/>
      <point x="166" y="740" type="line"/>
      <point x="294" y="740" type="line"/>
      <point x="227" y="403" type="line"/>
      <point x="233" y="403" type="line"/>
      <point x="287" y="535"/>
      <point x="403" y="535" type="qcurve" smooth="yes"/>
      <point x="454" y="535"/>
      <point x="517" y="485"/>
      <point x="546" y="401"/>
      <point x="546" y="350" type="qcurve" smooth="yes"/>
      <point x="546" y="196"/>
      <point x="404" y="-12"/>
    </contour>
  </outline>
</glyph>
<glyph name="i" format="2">
  <advance width="278"/>
  <unicode hex="0069"/>
  <outline>
    <contour>
      <point x="203" y="593" type="qcurve" smooth="yes"/>
      <point x="136" y="593"/>
      <point x="136" y="642" type="qcurve" smooth="yes"/>
      <point x="136" y="682"/>
      <point x="178" y="746"/>
      <point x="230" y="746" type="qcurve" smooth="yes"/>
      <point x="296" y="746"/>
      <point x="296" y="697" type="qcurve" smooth="yes"/>
      <point x="296" y="656"/>
      <point x="255" y="593"/>
    </contour>
    <contour>
      <point x="208" y="0" type="line"/>
      <point x="122" y="0" type="line" smooth="yes"/>
      <point x="76" y="0"/>
      <point x="36" y="45"/>
      <point x="36" y="77" type="qcurve" smooth="yes"/>
      <point x="36" y="86"/>
      <point x="123" y="523" type="qcurve"/>
      <point x="251" y="523" type="line"/>
      <point x="167" y="104" type="line"/>
      <point x="228" y="104" type="line"/>
    </contour>
  </outline>
</glyph>
<glyph name="z" format="2">
  <advance width="483"/>
  <unicode hex="007A"/>
  <outline>
    <contour>
      <point x="405" y="0" type="line"/>
      <point x="-10" y="0" type="line"/>
      <point x="10" y="103" type="line"/>
      <point x="323" y="420" type="line"/>
      <point x="77" y="420" type="line"/>
      <point x="97" y="523" type="line"/>
      <point x="497" y="523" type="line"/>
      <point x="477" y="420" type="line"/>
      <point x="163" y="103" type="line"/>
      <point x="425" y="103" type="line"/>
    </contour>
  </outline>
</glyph>
<glyph name="braceright" format="2">
  <advance width="355"/>
  <unicode hex="007D"/>
  <outline>
    <contour>
      <point x="70" y="-138" type="qcurve" smooth="yes"/>
      <point x="-42" y="-138" type="line"/>
      <point x="-23" y="-42" type="line"/>
      <point x="57" y="-42" type="line"/>
      <point x="102" y="184" type="line"/>
      <point x="113" y="234"/>
      <point x="170" y="302"/>
      <point x="228" y="308" type="qcurve"/>
      <point x="228" y="314" type="line"/>
      <point x="193" y="322"/>
      <point x="149" y="369"/>
      <point x="149" y="410" type="qcurve"/>
      <point x="152" y="433"/>
      <point x="198" y="664" type="qcurve"/>
      <point x="118" y="664" type="line"/>
      <point x="138" y="760" type="line"/>
      <point x="240" y="760" type="line"/>
      <point x="276" y="759"/>
      <point x="318" y="723"/>
      <point x="318" y="687" type="qcurve" smooth="yes"/>
      <point x="318" y="675"/>
      <point x="316" y="663" type="qcurve"/>
      <point x="275" y="460"/>
      <point x="274" y="443"/>
      <point x="273" y="434" type="qcurve"/>
      <point x="275" y="418" type="line"/>
      <point x="284" y="364"/>
      <point x="350" y="364" type="qcurve"/>
      <point x="328" y="257" type="line"/>
      <point x="235" y="257"/>
      <point x="217" y="169" type="qcurve" smooth="yes"/>
      <point x="175" y="-42" type="line" smooth="yes"/>
      <point x="165" y="-91"/>
      <point x="110" y="-138"/>
    </contour>
  </outline>
</glyph>
<glyph name="brokenbar" format="2">
  <advance width="378"/>
  <unicode hex="00A6"/>
  <outline>
    <contour>
      <point x="166" y="-138" type="line"/>
      <point x="52" y="-138" type="line"/>
      <point x="124" y="220" type="line"/>
      <point x="238" y="220" type="line"/>
    </contour>
    <contour>
      <point x="274" y="402" type="line"/>
      <point x="160" y="402" type="line"/>
      <point x="232" y="760" type="line"/>
      <point x="346" y="760" type="line"/>
    </contour>
  </outline>
</glyph>
<glyph name="sfthyphen" format="2">
  <advance width="394"/>
  <unicode hex="00AD"/>
  <outline>
    <contour>
      <point x="336" y="243" type="line"/>
      <point x="50" y="243" type="line"/>
      <point x="75" y="367" type="line"/>
      <point x="361" y="367" type="line"/>
    </contour>
  </outline>
</glyph>
<glyph name="degree" format="2">
  <advance width="458"/>
  <unicode hex="00B0"/>
  <outline>
    <contour>
      <point x="273" y="427" type="qcurve" smooth="yes"/>
      <point x="318" y="427"/>
      <point x="369" y="495"/>
      <point x="369" y="542" type="qcurve" smooth="yes"/>
      <point x="369" y="574"/>
      <point x="331" y="623"/>
      <point x="292" y="623" type="qcurve" smooth="yes"/>
      <point x="245" y="623"/>
      <point x="195" y="552"/>
      <point x="195" y="508" type="qcurve" smooth="yes"/>
      <point x="195" y="476"/>
      <point x="233" y="427"/>
    </contour>
    <contour>
      <point x="263" y="340" type="qcurve" smooth="yes"/>
      <point x="188" y="340"/>
      <point x="100" y="441"/>
      <point x="100" y="507" type="qcurve" smooth="yes"/>
      <point x="100" y="567"/>
      <point x="157" y="659"/>
      <point x="249" y="710"/>
      <point x="301" y="710" type="qcurve" smooth="yes"/>
      <point x="376" y="710"/>
      <point x="464" y="607"/>
      <point x="464" y="543" type="qcurve" smooth="yes"/>
      <point x="464" y="456"/>
      <point x="347" y="340"/>
    </contour>
  </outline>
</glyph>
<glyph name="u00B3" format="2">
  <advance width="333"/>
  <unicode hex="00B3"/>
  <outline>
    <contour>
      <point x="172" y="323" type="qcurve" smooth="yes"/>
      <point x="64" y="323"/>
      <point x="36" y="395" type="qcurve"/>
      <point x="100" y="441" type="line"/>
      <point x="119" y="394"/>
      <point x="173" y="394" type="qcurve" smooth="yes"/>
      <point x="195" y="394"/>
      <point x="233" y="415"/>
      <point x="238" y="449" type="qcurve"/>
      <point x="238" y="482"/>
      <point x="186" y="482" type="qcurve" smooth="yes"/>
      <point x="145" y="482" type="line"/>
      <point x="159" y="554" type="line"/>
      <point x="197" y="554" type="line" smooth="yes"/>
      <point x="256" y="554"/>
      <point x="262" y="588" type="qcurve"/>
      <point x="264" y="602" type="line"/>
      <point x="262" y="633"/>
      <point x="219" y="633" type="qcurve" smooth="yes"/>
      <point x="174" y="633"/>
      <point x="139" y="589" type="qcurve"/>
      <point x="90" y="644" type="line"/>
      <point x="140" y="704"/>
      <point x="231" y="704" type="qcurve" smooth="yes"/>
      <point x="286" y="704"/>
      <point x="358" y="659"/>
      <point x="358" y="614" type="qcurve" smooth="yes"/>
      <point x="358" y="540"/>
      <point x="268" y="521" type="qcurve"/>
      <point x="268" y="519" type="line"/>
      <point x="332" y="507"/>
      <point x="332" y="445" type="qcurve" smooth="yes"/>
      <point x="332" y="395"/>
      <point x="255" y="323"/>
    </contour>
  </outline>
</glyph>
<glyph name="paragraph" format="2">
  <advance width="643"/>
  <unicode hex="00B6"/>
  <outline>
    <contour>
      <point x="435" y="-149" type="line"/>
      <point x="339" y="-149" type="line"/>
      <point x="489" y="601" type="line"/>
      <point x="392" y="601" type="line"/>
      <point x="241" y="-149" type="line"/>
      <point x="145" y="-149" type="line"/>
      <point x="229" y="270" type="line"/>
      <point x="159" y="270"/>
      <point x="70" y="385"/>
      <point x="70" y="457" type="qcurve" smooth="yes"/>
      <point x="70" y="562"/>
      <point x="222" y="698"/>
      <point x="327" y="698" type="qcurve" smooth="yes"/>
      <point x="666" y="698" type="line"/>
      <point x="647" y="601" type="line"/>
      <point x="586" y="601" type="line"/>
    </contour>
  </outline>
</glyph>
<glyph name="Acircumflex" format="2">
  <advance width="651"/>
  <unicode hex="00C2"/>
  <outline>
    <contour>
      <point x="536" y="743" type="line"/>
      <point x="439" y="858" type="line"/>
      <point x="304" y="743" type="line"/>
      <point x="239" y="795" type="line"/>
      <point x="392" y="951" type="line"/>
      <point x="509" y="951" type="line"/>
      <point x="605" y="795" type="line"/>
    </contour>
    <contour>
      <point x="580" y="0" type="line"/>
      <point x="446" y="0" type="line"/>
      <point x="428" y="176" type="line"/>
      <point x="196" y="176" type="line"/>
      <point x="109" y="0" type="line"/>
      <point x="-33" y="0" type="line"/>
      <point x="328" y="698" type="line"/>
      <point x="498" y="698" type="line"/>
    </contour>
    <contour>
      <point x="418" y="288" type="line"/>
      <point x="393" y="577" type="line"/>
      <point x="385" y="577" type="line"/>
      <point x="249" y="288" type="line"/>
    </contour>
  </outline>
</glyph>
<glyph name="Atilde" format="2">
  <advance width="651"/>
  <unicode hex="00C3"/>
  <outline>
    <contour>
      <point x="418" y="288" type="line"/>
      <point x="393" y="577" type="line"/>
      <point x="385" y="577" type="line"/>
      <point x="249" y="288" type="line"/>
    </contour>
    <contour>
      <point x="580" y="0" type="line"/>
      <point x="446" y="0" type="line"/>
      <point x="428" y="176" type="line"/>
      <point x="196" y="176" type="line"/>
      <point x="109" y="0" type="line"/>
      <point x="-33" y="0" type="line"/>
      <point x="328" y="698" type="line"/>
      <point x="498" y="698" type="line"/>
    </contour>
    <contour>
      <point x="502" y="765" type="qcurve" smooth="yes"/>
      <point x="482" y="765"/>
      <point x="445" y="779"/>
      <point x="409" y="797"/>
      <point x="374" y="810"/>
      <point x="355" y="810" type="qcurve" smooth="yes"/>
      <point x="339" y="810"/>
      <point x="313" y="797"/>
      <point x="297" y="784" type="qcurve"/>
      <point x="257" y="848" type="line"/>
      <point x="303" y="908"/>
      <point x="369" y="908" type="qcurve" smooth="yes"/>
      <point x="388" y="908"/>
      <point x="426" y="894"/>
      <point x="462" y="877"/>
      <point x="498" y="864"/>
      <point x="515" y="864" type="qcurve" smooth="yes"/>
      <point x="533" y="864"/>
      <point x="558" y="876"/>
      <point x="574" y="889" type="qcurve"/>
      <point x="614" y="826" type="line"/>
      <point x="565" y="765"/>
    </contour>
  </outline>
</glyph>
<glyph name="Ecircumflex" format="2">
  <advance width="576"/>
  <unicode hex="00CA"/>
  <outline>
    <contour>
      <point x="478" y="0" type="line"/>
      <point x="25" y="0" type="line"/>
      <point x="165" y="698" type="line"/>
      <point x="607" y="698" type="line"/>
      <point x="583" y="581" type="line"/>
      <point x="275" y="581" type="line"/>
      <point x="241" y="411" type="line"/>
      <point x="514" y="411" type="line"/>
      <point x="491" y="294" type="line"/>
      <point x="217" y="294" type="line"/>
      <point x="182" y="117" type="line"/>
      <point x="502" y="117" type="line"/>
    </contour>
    <contour>
      <point x="512" y="743" type="line"/>
      <point x="415" y="858" type="line"/>
      <point x="280" y="743" type="line"/>
      <point x="215" y="795" type="line"/>
      <point x="368" y="951" type="line"/>
      <point x="485" y="951" type="line"/>
      <point x="581" y="795" type="line"/>
    </contour>
  </outline>
</glyph>
<glyph name="Edieresis" format="2">
  <advance width="576"/>
  <unicode hex="00CB"/>
  <outline>
    <contour>
      <point x="300" y="765" type="qcurve" smooth="yes"/>
      <point x="240" y="765"/>
      <point x="240" y="811" type="qcurve" smooth="yes"/>
      <point x="240" y="908"/>
      <point x="326" y="908" type="qcurve" smooth="yes"/>
      <point x="385" y="908"/>
      <point x="385" y="862" type="qcurve" smooth="yes"/>
      <point x="385" y="765"/>
    </contour>
    <contour>
      <point x="497" y="765" type="qcurve" smooth="yes"/>
      <point x="436" y="765"/>
      <point x="436" y="811" type="qcurve" smooth="yes"/>
      <point x="436" y="908"/>
      <point x="522" y="908" type="qcurve" smooth="yes"/>
      <point x="582" y="908"/>
      <point x="582" y="862" type="qcurve" smooth="yes"/>
      <point x="582" y="765"/>
    </contour>
    <contour>
      <point x="478" y="0" type="line"/>
      <point x="25" y="0" type="line"/>
      <point x="165" y="698" type="line"/>
      <point x="607" y="698" type="line"/>
      <point x="583" y="581" type="line"/>
      <point x="275" y="581" type="line"/>
      <point x="241" y="411" type="line"/>
      <point x="514" y="411" type="line"/>
      <point x="491" y="294" type="line"/>
      <point x="217" y="294" type="line"/>
      <point x="182" y="117" type="line"/>
      <point x="502" y="117" type="line"/>
    </contour>
  </outline>
</glyph>
<glyph name="Odieresis" format="2">
  <advance width="692"/>
  <unicode hex="00D6"/>
  <outline>
    <contour>
      <point x="349" y="765" type="qcurve" smooth="yes"/>
      <point x="288" y="765"/>
      <point x="288" y="811" type="qcurve" smooth="yes"/>
      <point x="288" y="908"/>
      <point x="374" y="908" type="qcurve" smooth="yes"/>
      <point x="434" y="908"/>
      <point x="434" y="862" type="qcurve" smooth="yes"/>
      <point x="434" y="765"/>
    </contour>
    <contour>
      <point x="545" y="765" type="qcurve" smooth="yes"/>
      <point x="485" y="765"/>
      <point x="485" y="811" type="qcurve" smooth="yes"/>
      <point x="485" y="908"/>
      <point x="570" y="908" type="qcurve" smooth="yes"/>
      <point x="630" y="908"/>
      <point x="630" y="862" type="qcurve" smooth="yes"/>
      <point x="630" y="765"/>
    </contour>
    <contour>
      <point x="306" y="-12" type="qcurve" smooth="yes"/>
      <point x="234" y="-12"/>
      <point x="122" y="52"/>
      <point x="57" y="177"/>
      <point x="57" y="269" type="qcurve" smooth="yes"/>
      <point x="57" y="347"/>
      <point x="103" y="504"/>
      <point x="193" y="632"/>
      <point x="327" y="710"/>
      <point x="415" y="710" type="qcurve" smooth="yes"/>
      <point x="534" y="710"/>
      <point x="665" y="557"/>
      <point x="665" y="429" type="qcurve" smooth="yes"/>
      <point x="665" y="347"/>
      <point x="617" y="189"/>
      <point x="524" y="63"/>
      <point x="391" y="-12"/>
    </contour>
    <contour>
      <point x="316" y="106" type="qcurve" smooth="yes"/>
      <point x="402" y="106"/>
      <point x="493" y="218"/>
      <point x="507" y="308" type="qcurve"/>
      <point x="514" y="338" type="line" smooth="yes"/>
      <point x="522" y="373"/>
      <point x="529" y="416"/>
      <point x="531" y="455" type="qcurve"/>
      <point x="529" y="592"/>
      <point x="406" y="592" type="qcurve" smooth="yes"/>
      <point x="322" y="592"/>
      <point x="229" y="481"/>
      <point x="215" y="389" type="qcurve"/>
      <point x="209" y="364" type="line" smooth="yes"/>
      <point x="191" y="290"/>
      <point x="191" y="243" type="qcurve" smooth="yes"/>
      <point x="191" y="106"/>
    </contour>
  </outline>
</glyph>
<glyph name="Ucircumflex" format="2">
  <advance width="674"/>
  <unicode hex="00DB"/>
  <outline>
    <contour>
      <point x="303" y="-12" type="qcurve" smooth="yes"/>
      <point x="74" y="-12"/>
      <point x="74" y="209" type="qcurve" smooth="yes"/>
      <point x="74" y="251"/>
      <point x="83" y="301" type="qcurve"/>
      <point x="163" y="698" type="line"/>
      <point x="294" y="698" type="line"/>
      <point x="211" y="280" type="line" smooth="yes"/>
      <point x="203" y="243"/>
      <point x="203" y="216" type="qcurve" smooth="yes"/>
      <point x="204" y="109"/>
      <point x="310" y="109" type="qcurve" smooth="yes"/>
      <point x="442" y="109"/>
      <point x="467" y="273" type="qcurve"/>
      <point x="484" y="366"/>
      <point x="507" y="478"/>
      <point x="532" y="598"/>
      <point x="552" y="698" type="qcurve"/>
      <point x="684" y="698" type="line"/>
      <point x="599" y="276" type="line" smooth="yes"/>
      <point x="570" y="121"/>
      <point x="427" y="-12"/>
    </contour>
    <contour>
      <point x="547" y="743" type="line"/>
      <point x="449" y="858" type="line"/>
      <point x="314" y="743" type="line"/>
      <point x="250" y="795" type="line"/>
      <point x="402" y="951" type="line"/>
      <point x="519" y="951" type="line"/>
      <point x="616" y="795" type="line"/>
    </contour>
  </outline>
</glyph>
<glyph name="aring" format="2">
  <advance width="589"/>
  <unicode hex="00E5"/>
  <outline>
    <contour>
      <point x="237" y="94" type="qcurve" smooth="yes"/>
      <point x="289" y="94"/>
      <point x="365" y="185"/>
      <point x="380" y="251" type="qcurve"/>
      <point x="399" y="346"/>
      <point x="399" y="356" type="qcurve" smooth="yes"/>
      <point x="399" y="391"/>
      <point x="347" y="429"/>
      <point x="310" y="429" type="qcurve" smooth="yes"/>
      <point x="210" y="429"/>
      <point x="186" y="304" type="qcurve" smooth="yes"/>
      <point x="180" y="269"/>
      <point x="175" y="245" type="qcurve" smooth="yes"/>
      <point x="166" y="206"/>
      <point x="166" y="177" type="qcurve" smooth="yes"/>
      <point x="167" y="94"/>
    </contour>
    <contour>
      <point x="346" y="630" type="qcurve" smooth="yes"/>
      <point x="380" y="630"/>
      <point x="412" y="691"/>
      <point x="412" y="728" type="qcurve" smooth="yes"/>
      <point x="412" y="768"/>
      <point x="369" y="768" type="qcurve" smooth="yes"/>
      <point x="343" y="768"/>
      <point x="314" y="735"/>
      <point x="303" y="689"/>
      <point x="303" y="670" type="qcurve" smooth="yes"/>
      <point x="303" y="630"/>
    </contour>
    <contour>
      <point x="178" y="-12" type="qcurve" smooth="yes"/>
      <point x="128" y="-12"/>
      <point x="65" y="38"/>
      <point x="35" y="122"/>
      <point x="35" y="173" type="qcurve" smooth="yes"/>
      <point x="35" y="266"/>
      <point x="94" y="431"/>
      <point x="204" y="535"/>
      <point x="280" y="535" type="qcurve" smooth="yes"/>
      <point x="334" y="535"/>
      <point x="405" y="479"/>
      <point x="412" y="434" type="qcurve"/>
      <point x="417" y="434" type="line"/>
      <point x="435" y="523" type="line"/>
      <point x="563" y="523" type="line"/>
      <point x="478" y="104" type="line"/>
      <point x="540" y="104" type="line"/>
      <point x="520" y="0" type="line"/>
      <point x="431" y="0" type="line"/>
      <point x="348" y="4"/>
      <point x="348" y="76" type="qcurve" smooth="yes"/>
      <point x="348" y="83"/>
      <point x="354" y="120" type="qcurve"/>
      <point x="348" y="120" type="line"/>
      <point x="319" y="56"/>
      <point x="239" y="-12"/>
    </contour>
    <contour>
      <point x="340" y="561" type="qcurve" smooth="yes"/>
      <point x="288" y="561"/>
      <point x="217" y="624"/>
      <point x="217" y="679" type="qcurve" smooth="yes"/>
      <point x="217" y="754"/>
      <point x="313" y="837"/>
      <point x="375" y="837" type="qcurve" smooth="yes"/>
      <point x="431" y="837"/>
      <point x="498" y="770"/>
      <point x="498" y="719" type="qcurve" smooth="yes"/>
      <point x="498" y="645"/>
      <point x="402" y="561"/>
    </contour>
  </outline>
</glyph>
<glyph name="ae" format="2">
  <advance width="823"/>
  <unicode hex="00E6"/>
  <outline>
    <contour>
      <point x="222" y="83" type="qcurve" smooth="yes"/>
      <point x="255" y="83"/>
      <point x="319" y="119"/>
      <point x="331" y="157" type="qcurve"/>
      <point x="344" y="219" type="line"/>
      <point x="324" y="218" type="line"/>
      <point x="265" y="217"/>
      <point x="193" y="207"/>
      <point x="157" y="170"/>
      <point x="157" y="131" type="qcurve"/>
      <point x="159" y="83"/>
    </contour>
    <contour>
      <point x="487" y="298" type="qcurve"/>
      <point x="589" y="303"/>
      <point x="684" y="339"/>
      <point x="684" y="378" type="qcurve" smooth="yes"/>
      <point x="684" y="436"/>
      <point x="623" y="436" type="qcurve" smooth="yes"/>
      <point x="560" y="436"/>
      <point x="496" y="357"/>
    </contour>
    <contour>
      <point x="560" y="-12" type="qcurve" smooth="yes"/>
      <point x="417" y="-12"/>
      <point x="367" y="92" type="qcurve"/>
      <point x="360" y="92" type="line"/>
      <point x="308" y="-12"/>
      <point x="179" y="-12" type="qcurve" smooth="yes"/>
      <point x="97" y="-12"/>
      <point x="24" y="65"/>
      <point x="24" y="124" type="qcurve" smooth="yes"/>
      <point x="24" y="184"/>
      <point x="56" y="221" type="qcurve" smooth="yes"/>
      <point x="119" y="291"/>
      <point x="281" y="292" type="qcurve"/>
      <point x="359" y="296" type="line"/>
      <point x="364" y="324"/>
      <point x="366" y="338"/>
      <point x="368" y="354" type="qcurve"/>
      <point x="368" y="377"/>
      <point x="360" y="389" type="qcurve"/>
      <point x="346" y="431"/>
      <point x="283" y="431" type="qcurve" smooth="yes"/>
      <point x="201" y="431"/>
      <point x="158" y="362" type="qcurve"/>
      <point x="83" y="435" type="line"/>
      <point x="156" y="535"/>
      <point x="294" y="535" type="qcurve" smooth="yes"/>
      <point x="408" y="535"/>
      <point x="449" y="456" type="qcurve"/>
      <point x="456" y="456" type="line"/>
      <point x="522" y="535"/>
      <point x="627" y="535" type="qcurve" smooth="yes"/>
      <point x="704" y="535"/>
      <point x="809" y="463"/>
      <point x="809" y="392" type="qcurve" smooth="yes"/>
      <point x="809" y="307"/>
      <point x="641" y="223"/>
      <point x="473" y="218" type="qcurve"/>
      <point x="470" y="207"/>
      <point x="470" y="183" type="qcurve" smooth="yes"/>
      <point x="470" y="94"/>
      <point x="570" y="93" type="qcurve" smooth="yes"/>
      <point x="649" y="93"/>
      <point x="703" y="167" type="qcurve"/>
      <point x="782" y="104" type="line"/>
      <point x="695" y="-12"/>
    </contour>
  </outline>
</glyph>
<glyph name="igrave" format="2">
  <advance width="278"/>
  <unicode hex="00EC"/>
  <outline>
    <contour>
      <point x="177" y="581" type="line"/>
      <point x="76" y="754" type="line"/>
      <point x="191" y="808" type="line"/>
      <point x="258" y="616" type="line"/>
    </contour>
    <contour>
      <point x="208" y="0" type="line"/>
      <point x="122" y="0" type="line" smooth="yes"/>
      <point x="76" y="0"/>
      <point x="36" y="45"/>
      <point x="36" y="77" type="qcurve" smooth="yes"/>
      <point x="36" y="84"/>
      <point x="123" y="523" type="qcurve"/>
      <point x="251" y="523" type="line"/>
      <point x="167" y="104" type="line"/>
      <point x="228" y="104" type="line"/>
    </contour>
  </outline>
</glyph>
<glyph name="icircumflex" format="2">
  <advance width="278"/>
  <unicode hex="00EE"/>
  <outline>
    <contour>
      <point x="208" y="0" type="line"/>
      <point x="122" y="0" type="line" smooth="yes"/>
      <point x="76" y="0"/>
      <point x="36" y="45"/>
      <point x="36" y="77" type="qcurve" smooth="yes"/>
      <point x="36" y="84"/>
      <point x="123" y="523" type="qcurve"/>
      <point x="251" y="523" type="line"/>
      <point x="167" y="104" type="line"/>
      <point x="228" y="104" type="line"/>
    </contour>
    <contour>
      <point x="317" y="581" type="line"/>
      <point x="219" y="696" type="line"/>
      <point x="84" y="581" type="line"/>
      <point x="20" y="634" type="line"/>
      <point x="172" y="789" type="line"/>
      <point x="289" y="789" type="line"/>
      <point x="386" y="633" type="line"/>
    </contour>
  </outline>
</glyph>
<glyph name="ntilde" format="2">
  <advance width="583"/>
  <unicode hex="00F1"/>
  <outline>
    <contour>
      <point x="515" y="0" type="line"/>
      <point x="428" y="0" type="line" smooth="yes"/>
      <point x="392" y="0"/>
      <point x="348" y="36"/>
      <point x="348" y="73" type="qcurve" smooth="yes"/>
      <point x="348" y="98"/>
      <point x="365" y="170" type="qcurve"/>
      <point x="378" y="235" type="line"/>
      <point x="389" y="283"/>
      <point x="399" y="344"/>
      <point x="399" y="369" type="qcurve" smooth="yes"/>
      <point x="399" y="427"/>
      <point x="341" y="427" type="qcurve" smooth="yes"/>
      <point x="291" y="427"/>
      <point x="214" y="333"/>
      <point x="201" y="273" type="qcurve" smooth="yes"/>
      <point x="146" y="0" type="line"/>
      <point x="18" y="0" type="line"/>
      <point x="123" y="523" type="line"/>
      <point x="251" y="523" type="line"/>
      <point x="228" y="405" type="line"/>
      <point x="233" y="405" type="line"/>
      <point x="262" y="468"/>
      <point x="345" y="535"/>
      <point x="404" y="535" type="qcurve" smooth="yes"/>
      <point x="473" y="535"/>
      <point x="532" y="457"/>
      <point x="532" y="398" type="qcurve" smooth="yes"/>
      <point x="532" y="352"/>
      <point x="519" y="305" type="qcurve"/>
      <point x="479" y="104" type="line"/>
      <point x="535" y="104" type="line"/>
    </contour>
    <contour>
      <point x="439" y="603" type="qcurve" smooth="yes"/>
      <point x="403" y="603"/>
      <point x="366" y="623" type="qcurve"/>
      <point x="318" y="647"/>
      <point x="293" y="647" type="qcurve" smooth="yes"/>
      <point x="277" y="647"/>
      <point x="251" y="634"/>
      <point x="234" y="622" type="qcurve"/>
      <point x="194" y="685" type="line"/>
      <point x="242" y="745"/>
      <point x="306" y="745" type="qcurve" smooth="yes"/>
      <point x="328" y="745"/>
      <point x="365" y="732"/>
      <point x="381" y="724" type="qcurve"/>
      <point x="386" y="721" type="line"/>
      <point x="427" y="701"/>
      <point x="452" y="701" type="qcurve" smooth="yes"/>
      <point x="469" y="701"/>
      <point x="495" y="714"/>
      <point x="511" y="727" type="qcurve"/>
      <point x="551" y="663" type="line"/>
      <point x="507" y="603"/>
    </contour>
  </outline>
</glyph>
<glyph name="oacute" format="2">
  <advance width="544"/>
  <unicode hex="00F3"/>
  <outline>
    <contour>
      <point x="345" y="580" type="line"/>
      <point x="268" y="622" type="line"/>
      <point x="384" y="808" type="line"/>
      <point x="488" y="753" type="line"/>
    </contour>
    <contour>
      <point x="239" y="-12" type="qcurve" smooth="yes"/>
      <point x="147" y="-12"/>
      <point x="35" y="98"/>
      <point x="35" y="206" type="qcurve" smooth="yes"/>
      <point x="35" y="290"/>
      <point x="98" y="441"/>
      <point x="218" y="535"/>
      <point x="305" y="535" type="qcurve" smooth="yes"/>
      <point x="362" y="535"/>
      <point x="455" y="491"/>
      <point x="509" y="395"/>
      <point x="509" y="318" type="qcurve" smooth="yes"/>
      <point x="509" y="222"/>
      <point x="436" y="73"/>
      <point x="313" y="-12"/>
    </contour>
    <contour>
      <point x="245" y="93" type="qcurve" smooth="yes"/>
      <point x="299" y="93"/>
      <point x="349" y="168"/>
      <point x="364" y="233" type="qcurve"/>
      <point x="378" y="303" type="line"/>
      <point x="382" y="320"/>
      <point x="382" y="340" type="qcurve" smooth="yes"/>
      <point x="381" y="431"/>
      <point x="299" y="431" type="qcurve" smooth="yes"/>
      <point x="248" y="431"/>
      <point x="192" y="358"/>
      <point x="180" y="290" type="qcurve"/>
      <point x="166" y="221" type="line"/>
      <point x="162" y="204"/>
      <point x="162" y="183" type="qcurve" smooth="yes"/>
      <point x="162" y="93"/>
    </contour>
  </outline>
</glyph>
<glyph name="otilde" format="2">
  <advance width="544"/>
  <unicode hex="00F5"/>
  <outline>
    <contour>
      <point x="411" y="603" type="qcurve" smooth="yes"/>
      <point x="388" y="603"/>
      <point x="348" y="618"/>
      <point x="313" y="635"/>
      <point x="281" y="647"/>
      <point x="264" y="647" type="qcurve" smooth="yes"/>
      <point x="249" y="647"/>
      <point x="223" y="635"/>
      <point x="206" y="622" type="qcurve"/>
      <point x="166" y="685" type="line"/>
      <point x="214" y="745"/>
      <point x="278" y="745" type="qcurve" smooth="yes"/>
      <point x="300" y="745"/>
      <point x="337" y="732"/>
      <point x="353" y="724" type="qcurve"/>
      <point x="358" y="721" type="line"/>
      <point x="399" y="701"/>
      <point x="424" y="701" type="qcurve" smooth="yes"/>
      <point x="439" y="701"/>
      <point x="465" y="714"/>
      <point x="482" y="727" type="qcurve"/>
      <point x="523" y="663" type="line"/>
      <point x="479" y="603"/>
    </contour>
    <contour>
      <point x="239" y="-12" type="qcurve" smooth="yes"/>
      <point x="147" y="-12"/>
      <point x="35" y="98"/>
      <point x="35" y="206" type="qcurve" smooth="yes"/>
      <point x="35" y="290"/>
      <point x="98" y="441"/>
      <point x="218" y="535"/>
      <point x="305" y="535" type="qcurve" smooth="yes"/>
      <point x="362" y="535"/>
      <point x="455" y="491"/>
      <point x="509" y="395"/>
      <point x="509" y="318" type="qcurve" smooth="yes"/>
      <point x="509" y="222"/>
      <point x="436" y="73"/>
      <point x="313" y="-12"/>
    </contour>
    <contour>
      <point x="245" y="93" type="qcurve" smooth="yes"/>
      <point x="299" y="93"/>
      <point x="349" y="168"/>
      <point x="364" y="233" type="qcurve"/>
      <point x="378" y="303" type="line"/>
      <point x="382" y="320"/>
      <point x="382" y="340" type="qcurve" smooth="yes"/>
      <point x="381" y="431"/>
      <point x="299" y="431" type="qcurve" smooth="yes"/>
      <point x="248" y="431"/>
      <point x="192" y="358"/>
      <point x="180" y="290" type="qcurve"/>
      <point x="166" y="221" type="line"/>
      <point x="162" y="204"/>
      <point x="162" y="183" type="qcurve" smooth="yes"/>
      <point x="162" y="93"/>
    </contour>
  </outline>
</glyph>
<glyph name="thorn" format="2">
  <advance width="581"/>
  <unicode hex="00FE"/>
  <outline>
    <contour>
      <point x="106" y="-200" type="line"/>
      <point x="-22" y="-200" type="line"/>
      <point x="166" y="740" type="line"/>
      <point x="294" y="740" type="line"/>
      <point x="227" y="403" type="line"/>
      <point x="233" y="403" type="line"/>
      <point x="263" y="470"/>
      <point x="345" y="535"/>
      <point x="403" y="535" type="qcurve" smooth="yes"/>
      <point x="454" y="535"/>
      <point x="517" y="485"/>
      <point x="546" y="401"/>
      <point x="546" y="350" type="qcurve" smooth="yes"/>
      <point x="546" y="196"/>
      <point x="404" y="-12"/>
      <point x="301" y="-12" type="qcurve" smooth="yes"/>
      <point x="251" y="-12"/>
      <point x="178" y="38"/>
      <point x="169" y="90" type="qcurve"/>
      <point x="164" y="90" type="line"/>
    </contour>
    <contour>
      <point x="272" y="94" type="qcurve" smooth="yes"/>
      <point x="371" y="94"/>
      <point x="395" y="219" type="qcurve" smooth="yes"/>
      <point x="408" y="291" type="line"/>
      <point x="414" y="318"/>
      <point x="415" y="334" type="qcurve"/>
      <point x="415" y="429"/>
      <point x="343" y="429" type="qcurve" smooth="yes"/>
      <point x="289" y="429"/>
      <point x="215" y="335"/>
      <point x="201" y="273" type="qcurve"/>
      <point x="185" y="190"/>
      <point x="182" y="167" type="qcurve"/>
      <point x="182" y="129"/>
      <point x="234" y="94"/>
    </contour>
  </outline>
</glyph>
<glyph name="cdot" format="2">
  <advance width="493"/>
  <unicode hex="010B"/>
  <outline>
    <contour>
      <point x="327" y="596" type="qcurve" smooth="yes"/>
      <point x="257" y="596"/>
      <point x="257" y="650" type="qcurve" smooth="yes"/>
      <point x="257" y="692"/>
      <point x="293" y="752"/>
      <point x="350" y="752" type="qcurve" smooth="yes"/>
      <point x="410" y="752"/>
      <point x="418" y="710" type="qcurve"/>
      <point x="420" y="703" type="line"/>
      <point x="419" y="700"/>
      <point x="419" y="695" type="qcurve"/>
      <point x="419" y="695"/>
      <point x="419" y="695" type="qcurve"/>
      <point x="419" y="695"/>
      <point x="419" y="695" type="qcurve"/>
      <point x="419" y="695"/>
      <point x="419" y="695" type="qcurve"/>
      <point x="419" y="695"/>
      <point x="419" y="695" type="qcurve"/>
      <point x="419" y="695"/>
      <point x="419" y="695" type="qcurve"/>
      <point x="419" y="695"/>
      <point x="419" y="695" type="qcurve"/>
      <point x="419" y="692" type="line"/>
      <point x="419" y="692"/>
      <point x="419" y="692" type="qcurve"/>
      <point x="419" y="692"/>
      <point x="419" y="692" type="qcurve"/>
      <point x="419" y="692"/>
      <point x="419" y="692" type="qcurve"/>
      <point x="419" y="692"/>
      <point x="419" y="692" type="qcurve"/>
      <point x="419" y="692"/>
      <point x="419" y="692" type="qcurve"/>
      <point x="419" y="692"/>
      <point x="419" y="692" type="qcurve"/>
      <point x="419" y="691" type="line"/>
      <point x="419" y="691"/>
      <point x="419" y="691" type="qcurve"/>
      <point x="419" y="691"/>
      <point x="419" y="691" type="qcurve"/>
      <point x="419" y="691"/>
      <point x="419" y="691" type="qcurve"/>
      <point x="419" y="691"/>
      <point x="419" y="690" type="qcurve"/>
      <point x="419" y="690"/>
      <point x="419" y="690" type="qcurve"/>
      <point x="419" y="690"/>
      <point x="419" y="690" type="qcurve"/>
      <point x="419" y="686" type="line"/>
      <point x="414" y="638"/>
      <point x="375" y="596"/>
    </contour>
    <contour>
      <point x="237" y="-12" type="qcurve" smooth="yes"/>
      <point x="147" y="-12"/>
      <point x="35" y="99"/>
      <point x="35" y="212" type="qcurve" smooth="yes"/>
      <point x="35" y="349"/>
      <point x="189" y="535"/>
      <point x="309" y="535" type="qcurve" smooth="yes"/>
      <point x="385" y="535"/>
      <point x="480" y="463"/>
      <point x="493" y="402" type="qcurve"/>
      <point x="386" y="361" type="line"/>
      <point x="377" y="394"/>
      <point x="340" y="431"/>
      <point x="302" y="431" type="qcurve" smooth="yes"/>
      <point x="208" y="431"/>
      <point x="184" y="314" type="qcurve" smooth="yes"/>
      <point x="169" y="234"/>
      <point x="162" y="194"/>
      <point x="162" y="183" type="qcurve" smooth="yes"/>
      <point x="162" y="93"/>
      <point x="248" y="93" type="qcurve" smooth="yes"/>
      <point x="289" y="93"/>
      <point x="336" y="138"/>
      <point x="358" y="179" type="qcurve"/>
      <point x="456" y="133" type="line"/>
      <point x="384" y="-12"/>
    </contour>
  </outline>
</glyph>
<glyph name="ccaron" format="2">
  <advance width="493"/>
  <unicode hex="010D"/>
  <outline>
    <contour>
      <point x="381" y="590" type="line"/>
      <point x="264" y="590" type="line"/>
      <point x="166" y="745" type="line"/>
      <point x="235" y="797" type="line"/>
      <point x="329" y="682" type="line"/>
      <point x="467" y="797" type="line"/>
      <point x="533" y="745" type="line"/>
    </contour>
    <contour>
      <point x="237" y="-12" type="qcurve" smooth="yes"/>
      <point x="147" y="-12"/>
      <point x="35" y="99"/>
      <point x="35" y="212" type="qcurve" smooth="yes"/>
      <point x="35" y="349"/>
      <point x="189" y="535"/>
      <point x="309" y="535" type="qcurve" smooth="yes"/>
      <point x="385" y="535"/>
      <point x="480" y="463"/>
      <point x="493" y="402" type="qcurve"/>
      <point x="386" y="361" type="line"/>
      <point x="377" y="394"/>
      <point x="340" y="431"/>
      <point x="302" y="431" type="qcurve" smooth="yes"/>
      <point x="208" y="431"/>
      <point x="184" y="314" type="qcurve" smooth="yes"/>
      <point x="169" y="234"/>
      <point x="162" y="194"/>
      <point x="162" y="183" type="qcurve" smooth="yes"/>
      <point x="162" y="93"/>
      <point x="248" y="93" type="qcurve" smooth="yes"/>
      <point x="289" y="93"/>
      <point x="336" y="138"/>
      <point x="358" y="179" type="qcurve"/>
      <point x="456" y="133" type="line"/>
      <point x="384" y="-12"/>
    </contour>
  </outline>
</glyph>
<glyph name="emacron" format="2">
  <advance width="514"/>
  <unicode hex="0113"/>
  <outline>
    <contour>
      <point x="178" y="294" type="line"/>
      <point x="285" y="298"/>
      <point x="375" y="338"/>
      <point x="375" y="380" type="qcurve" smooth="yes"/>
      <point x="375" y="436"/>
      <point x="309" y="436" type="qcurve" smooth="yes"/>
      <point x="205" y="436"/>
      <point x="181" y="309" type="qcurve" smooth="yes"/>
    </contour>
    <contour>
      <point x="251" y="-12" type="qcurve" smooth="yes"/>
      <point x="137" y="-12"/>
      <point x="35" y="112"/>
      <point x="35" y="212" type="qcurve" smooth="yes"/>
      <point x="35" y="296"/>
      <point x="112" y="456"/>
      <point x="197" y="507" type="qcurve"/>
      <point x="249" y="535"/>
      <point x="317" y="535" type="qcurve" smooth="yes"/>
      <point x="367" y="535"/>
      <point x="450" y="505"/>
      <point x="500" y="441"/>
      <point x="500" y="391" type="qcurve" smooth="yes"/>
      <point x="500" y="219"/>
      <point x="164" y="210" type="qcurve"/>
      <point x="162" y="196"/>
      <point x="162" y="184" type="qcurve" smooth="yes"/>
      <point x="162" y="93"/>
      <point x="260" y="93" type="qcurve" smooth="yes"/>
      <point x="336" y="93"/>
      <point x="394" y="167" type="qcurve"/>
      <point x="473" y="104" type="line"/>
      <point x="388" y="-12"/>
    </contour>
    <contour>
      <point x="479" y="627" type="line"/>
      <point x="202" y="627" type="line"/>
      <point x="221" y="723" type="line"/>
      <point x="498" y="723" type="line"/>
    </contour>
  </outline>
</glyph>
<glyph name="Ebreve" format="2">
  <advance width="576"/>
  <unicode hex="0114"/>
  <outline>
    <contour>
      <point x="478" y="0" type="line"/>
      <point x="25" y="0" type="line"/>
      <point x="165" y="698" type="line"/>
      <point x="607" y="698" type="line"/>
      <point x="583" y="581" type="line"/>
      <point x="275" y="581" type="line"/>
      <point x="241" y="411" type="line"/>
      <point x="514" y="411" type="line"/>
      <point x="491" y="294" type="line"/>
      <point x="217" y="294" type="line"/>
      <point x="182" y="117" type="line"/>
      <point x="502" y="117" type="line"/>
    </contour>
    <contour>
      <point x="398" y="744" type="qcurve" smooth="yes"/>
      <point x="328" y="744"/>
      <point x="244" y="837"/>
      <point x="235" y="908" type="qcurve"/>
      <point x="308" y="945" type="line"/>
      <point x="320" y="920" type="line"/>
      <point x="327" y="902"/>
      <point x="343" y="875"/>
      <point x="372" y="838"/>
      <point x="400" y="838" type="qcurve"/>
      <point x="435" y="839"/>
      <point x="482" y="881"/>
      <point x="513" y="924" type="qcurve"/>
      <point x="529" y="945" type="line"/>
      <point x="605" y="904" type="line"/>
      <point x="526" y="744"/>
    </contour>
  </outline>
</glyph>
<glyph name="eogonek" format="2">
  <advance width="514"/>
  <unicode hex="0119"/>
  <outline>
    <contour>
      <point x="178" y="294" type="line"/>
      <point x="285" y="298"/>
      <point x="375" y="338"/>
      <point x="375" y="380" type="qcurve" smooth="yes"/>
      <point x="375" y="436"/>
      <point x="309" y="436" type="qcurve" smooth="yes"/>
      <point x="205" y="436"/>
      <point x="181" y="309" type="qcurve" smooth="yes"/>
    </contour>
    <contour>
      <point x="234" y="-211" type="qcurve" smooth="yes"/>
      <point x="190" y="-211"/>
      <point x="119" y="-173"/>
      <point x="119" y="-130" type="qcurve" smooth="yes"/>
      <point x="119" y="-96"/>
      <point x="175" y="-36"/>
      <point x="236" y="-15" type="qcurve"/>
      <point x="235" y="-11" type="line"/>
      <point x="130" y="-4"/>
      <point x="35" y="117"/>
      <point x="35" y="212" type="qcurve" smooth="yes"/>
      <point x="35" y="288"/>
      <point x="97" y="437"/>
      <point x="223" y="535"/>
      <point x="317" y="535" type="qcurve" smooth="yes"/>
      <point x="393" y="535"/>
      <point x="500" y="462"/>
      <point x="500" y="391" type="qcurve" smooth="yes"/>
      <point x="500" y="217"/>
      <point x="164" y="210" type="qcurve"/>
      <point x="162" y="196"/>
      <point x="162" y="184" type="qcurve" smooth="yes"/>
      <point x="162" y="93"/>
      <point x="260" y="93" type="qcurve" smooth="yes"/>
      <point x="336" y="93"/>
      <point x="394" y="167" type="qcurve"/>
      <point x="473" y="104" type="line"/>
      <point x="419" y="37"/>
      <point x="366" y="13" type="qcurve"/>
      <point x="215" y="-59"/>
      <point x="215" y="-113" type="qcurve" smooth="yes"/>
      <point x="215" y="-142"/>
      <point x="250" y="-142" type="qcurve" smooth="yes"/>
      <point x="284" y="-142"/>
      <point x="304" y="-115" type="qcurve"/>
      <point x="353" y="-164" type="line"/>
      <point x="320" y="-211"/>
    </contour>
  </outline>
</glyph>
<glyph name="Ecaron" format="2">
  <advance width="576"/>
  <unicode hex="011A"/>
  <outline>
    <contour>
      <point x="454" y="752" type="line"/>
      <point x="336" y="752" type="line"/>
      <point x="239" y="907" type="line"/>
      <point x="307" y="960" type="line"/>
      <point x="402" y="844" type="line"/>
      <point x="540" y="960" type="line"/>
      <point x="606" y="907" type="line"/>
    </contour>
    <contour>
      <point x="478" y="0" type="line"/>
      <point x="25" y="0" type="line"/>
      <point x="165" y="698" type="line"/>
      <point x="607" y="698" type="line"/>
      <point x="583" y="581" type="line"/>
      <point x="275" y="581" type="line"/>
      <point x="241" y="411" type="line"/>
      <point x="514" y="411" type="line"/>
      <point x="491" y="294" type="line"/>
      <point x="217" y="294" type="line"/>
      <point x="182" y="117" type="line"/>
      <point x="502" y="117" type="line"/>
    </contour>
  </outline>
</glyph>
<glyph name="Gcircumflex" format="2">
  <advance width="629"/>
  <unicode hex="011C"/>
  <outline>
    <contour>
      <point x="620" y="380" type="line"/>
      <point x="597" y="262" type="line"/>
      <point x="583" y="205"/>
      <point x="537" y="105"/>
      <point x="462" y="31"/>
      <point x="352" y="-12"/>
      <point x="274" y="-12" type="qcurve" smooth="yes"/>
      <point x="224" y="-12"/>
      <point x="138" y="27"/>
      <point x="74" y="101"/>
      <point x="37" y="208"/>
      <point x="37" y="277" type="qcurve" smooth="yes"/>
      <point x="37" y="355"/>
      <point x="81" y="510"/>
      <point x="170" y="633"/>
      <point x="305" y="710"/>
      <point x="397" y="710" type="qcurve" smooth="yes"/>
      <point x="449" y="710"/>
      <point x="532" y="682"/>
      <point x="592" y="637"/>
      <point x="630" y="579"/>
      <point x="638" y="549" type="qcurve"/>
      <point x="528" y="498" type="line"/>
      <point x="524" y="517"/>
      <point x="505" y="554"/>
      <point x="471" y="584"/>
      <point x="421" y="602"/>
      <point x="386" y="602" type="qcurve" smooth="yes"/>
      <point x="310" y="602"/>
      <point x="210" y="499"/>
      <point x="193" y="411" type="qcurve" smooth="yes"/>
      <point x="178" y="332" type="line"/>
      <point x="172" y="310"/>
      <point x="164" y="263"/>
      <point x="164" y="243" type="qcurve" smooth="yes"/>
      <point x="164" y="216"/>
      <point x="177" y="163"/>
      <point x="208" y="121"/>
      <point x="258" y="95"/>
      <point x="294" y="95" type="qcurve" smooth="yes"/>
      <point x="356" y="95"/>
      <point x="450" y="164"/>
      <point x="464" y="233" type="qcurve" smooth="yes"/>
      <point x="472" y="272" type="line"/>
      <point x="311" y="272" type="line"/>
      <point x="333" y="380" type="line"/>
    </contour>
    <contour>
      <point x="405" y="952" type="line"/>
      <point x="525" y="952" type="line"/>
      <point x="623" y="796" type="line"/>
      <point x="551" y="741" type="line"/>
      <point x="453" y="856" type="line"/>
      <point x="318" y="741" type="line"/>
      <point x="251" y="796" type="line"/>
    </contour>
  </outline>
</glyph>
<glyph name="Gbreve" format="2">
  <advance width="629"/>
  <unicode hex="011E"/>
  <outline>
    <contour>
      <point x="620" y="380" type="line"/>
      <point x="597" y="262" type="line"/>
      <point x="583" y="205"/>
      <point x="537" y="105"/>
      <point x="462" y="31"/>
      <point x="352" y="-12"/>
      <point x="274" y="-12" type="qcurve" smooth="yes"/>
      <point x="224" y="-12"/>
      <point x="138" y="27"/>
      <point x="74" y="101"/>
      <point x="37" y="208"/>
      <point x="37" y="277" type="qcurve" smooth="yes"/>
      <point x="37" y="355"/>
      <point x="81" y="510"/>
      <point x="170" y="633"/>
      <point x="305" y="710"/>
      <point x="397" y="710" type="qcurve" smooth="yes"/>
      <point x="449" y="710"/>
      <point x="532" y="682"/>
      <point x="592" y="637"/>
      <point x="630" y="579"/>
      <point x="638" y="549" type="qcurve"/>
      <point x="528" y="498" type="line"/>
      <point x="524" y="517"/>
      <point x="505" y="554"/>
      <point x="471" y="584"/>
      <point x="421" y="602"/>
      <point x="386" y="602" type="qcurve" smooth="yes"/>
      <point x="310" y="602"/>
      <point x="210" y="499"/>
      <point x="193" y="411" type="qcurve" smooth="yes"/>
      <point x="178" y="332" type="line"/>
      <point x="172" y="310"/>
      <point x="164" y="263"/>
      <point x="164" y="243" type="qcurve" smooth="yes"/>
      <point x="164" y="216"/>
      <point x="177" y="163"/>
      <point x="208" y="121"/>
      <point x="258" y="95"/>
      <point x="294" y="95" type="qcurve" smooth="yes"/>
      <point x="356" y="95"/>
      <point x="450" y="164"/>
      <point x="464" y="233" type="qcurve" smooth="yes"/>
      <point x="472" y="272" type="line"/>
      <point x="311" y="272" type="line"/>
      <point x="333" y="380" type="line"/>
    </contour>
    <contour>
      <point x="436" y="742" type="qcurve" smooth="yes"/>
      <point x="394" y="742"/>
      <point x="336" y="772"/>
      <point x="298" y="819"/>
      <point x="276" y="878"/>
      <point x="270" y="908" type="qcurve"/>
      <point x="346" y="948" type="line"/>
      <point x="358" y="922" type="line" smooth="yes"/>
      <point x="367" y="903"/>
      <point x="382" y="873"/>
      <point x="400" y="851"/>
      <point x="425" y="839"/>
      <point x="443" y="839" type="qcurve" smooth="yes"/>
      <point x="472" y="839"/>
      <point x="514" y="876"/>
      <point x="541" y="912" type="qcurve" smooth="yes"/>
      <point x="568" y="948" type="line"/>
      <point x="648" y="904" type="line"/>
      <point x="631" y="875"/>
      <point x="592" y="817"/>
      <point x="542" y="771"/>
      <point x="478" y="742"/>
    </contour>
  </outline>
</glyph>
<glyph name="Gdot" format="2">
  <advance width="629"/>
  <unicode hex="0120"/>
  <outline>
    <contour>
      <point x="440" y="751" type="qcurve" smooth="yes"/>
      <point x="397" y="751"/>
      <point x="364" y="785"/>
      <point x="364" y="810" type="qcurve" smooth="yes"/>
      <point x="364" y="816"/>
      <point x="367" y="831"/>
      <point x="371" y="852" type="qcurve" smooth="yes"/>
      <point x="376" y="881"/>
      <point x="417" y="919"/>
      <point x="465" y="919" type="qcurve" smooth="yes"/>
      <point x="508" y="919"/>
      <point x="541" y="886"/>
      <point x="541" y="860" type="qcurve" smooth="yes"/>
      <point x="541" y="854"/>
      <point x="538" y="839"/>
      <point x="534" y="818" type="qcurve" smooth="yes"/>
      <point x="529" y="789"/>
      <point x="488" y="751"/>
    </contour>
    <contour>
      <point x="620" y="380" type="line"/>
      <point x="597" y="262" type="line"/>
      <point x="583" y="205"/>
      <point x="537" y="105"/>
      <point x="462" y="31"/>
      <point x="352" y="-12"/>
      <point x="274" y="-12" type="qcurve" smooth="yes"/>
      <point x="224" y="-12"/>
      <point x="138" y="27"/>
      <point x="74" y="101"/>
      <point x="37" y="208"/>
      <point x="37" y="277" type="qcurve" smooth="yes"/>
      <point x="37" y="355"/>
      <point x="81" y="510"/>
      <point x="170" y="633"/>
      <point x="305" y="710"/>
      <point x="397" y="710" type="qcurve" smooth="yes"/>
      <point x="449" y="710"/>
      <point x="532" y="682"/>
      <point x="592" y="637"/>
      <point x="630" y="579"/>
      <point x="638" y="549" type="qcurve"/>
      <point x="528" y="498" type="line"/>
      <point x="524" y="517"/>
      <point x="505" y="554"/>
      <point x="471" y="584"/>
      <point x="421" y="602"/>
      <point x="386" y="602" type="qcurve" smooth="yes"/>
      <point x="310" y="602"/>
      <point x="210" y="499"/>
      <point x="193" y="411" type="qcurve" smooth="yes"/>
      <point x="178" y="332" type="line"/>
      <point x="172" y="310"/>
      <point x="164" y="263"/>
      <point x="164" y="243" type="qcurve" smooth="yes"/>
      <point x="164" y="216"/>
      <point x="177" y="163"/>
      <point x="208" y="121"/>
      <point x="258" y="95"/>
      <point x="294" y="95" type="qcurve" smooth="yes"/>
      <point x="356" y="95"/>
      <point x="450" y="164"/>
      <point x="464" y="233" type="qcurve" smooth="yes"/>
      <point x="472" y="272" type="line"/>
      <point x="311" y="272" type="line"/>
      <point x="333" y="380" type="line"/>
    </contour>
  </outline>
</glyph>
<glyph name="Hbar" format="2">
  <advance width="706"/>
  <unicode hex="0126"/>
  <outline>
    <contour>
      <point x="571" y="0" type="line"/>
      <point x="438" y="0" type="line"/>
      <point x="497" y="294" type="line"/>
      <point x="222" y="294" type="line"/>
      <point x="163" y="0" type="line"/>
      <point x="30" y="0" type="line"/>
      <point x="133" y="514" type="line"/>
      <point x="62" y="514" type="line"/>
      <point x="82" y="613" type="line"/>
      <point x="153" y="613" type="line"/>
      <point x="170" y="698" type="line"/>
      <point x="303" y="698" type="line"/>
      <point x="285" y="613" type="line"/>
      <point x="561" y="613" type="line"/>
      <point x="578" y="698" type="line"/>
      <point x="711" y="698" type="line"/>
      <point x="693" y="613" type="line"/>
      <point x="764" y="613" type="line"/>
      <point x="745" y="514" type="line"/>
      <point x="674" y="514" type="line"/>
    </contour>
    <contour>
      <point x="521" y="411" type="line"/>
      <point x="541" y="514" type="line"/>
      <point x="266" y="514" type="line"/>
      <point x="246" y="411" type="line"/>
    </contour>
  </outline>
</glyph>
<glyph name="itilde" format="2">
  <advance width="278"/>
  <unicode hex="0129"/>
  <outline>
    <contour>
      <point x="208" y="0" type="line"/>
      <point x="122" y="0" type="line" smooth="yes"/>
      <point x="76" y="0"/>
      <point x="36" y="45"/>
      <point x="36" y="77" type="qcurve" smooth="yes"/>
      <point x="36" y="84"/>
      <point x="123" y="523" type="qcurve"/>
      <point x="251" y="523" type="line"/>
      <point x="167" y="104" type="line"/>
      <point x="228" y="104" type="line"/>
    </contour>
    <contour>
      <point x="282" y="603" type="qcurve" smooth="yes"/>
      <point x="259" y="603"/>
      <point x="226" y="615"/>
      <point x="209" y="623" type="qcurve" smooth="yes"/>
      <point x="184" y="635"/>
      <point x="153" y="647"/>
      <point x="136" y="647" type="qcurve" smooth="yes"/>
      <point x="120" y="647"/>
      <point x="95" y="635"/>
      <point x="78" y="622" type="qcurve"/>
      <point x="37" y="685" type="line"/>
      <point x="85" y="745"/>
      <point x="149" y="745" type="qcurve" smooth="yes"/>
      <point x="172" y="745"/>
      <point x="209" y="732"/>
      <point x="224" y="724" type="qcurve"/>
      <point x="230" y="721" type="line" smooth="yes"/>
      <point x="271" y="701"/>
      <point x="296" y="701" type="qcurve" smooth="yes"/>
      <point x="311" y="701"/>
      <point x="337" y="714"/>
      <point x="354" y="727" type="qcurve"/>
      <point x="394" y="663" type="line"/>
      <point x="349" y="603"/>
    </contour>
  </outline>
</glyph>
<glyph name="jcircumflex" format="2">
  <advance width="272"/>
  <unicode hex="0135"/>
  <outline>
    <contour>
      <point x="322" y="581" type="line"/>
      <point x="225" y="696" type="line"/>
      <point x="90" y="581" type="line"/>
      <point x="26" y="634" type="line"/>
      <point x="178" y="789" type="line"/>
      <point x="295" y="789" type="line"/>
      <point x="391" y="633" type="line"/>
    </contour>
    <contour>
      <point x="-18" y="-200" type="qcurve" smooth="yes"/>
      <point x="-95" y="-200" type="line"/>
      <point x="-75" y="-96" type="line"/>
      <point x="2" y="-96" type="line"/>
      <point x="126" y="523" type="line"/>
      <point x="254" y="523" type="line"/>
      <point x="134" y="-68" type="line"/>
      <point x="114" y="-200"/>
    </contour>
  </outline>
</glyph>
<glyph name="kcedilla" format="2">
  <advance width="544"/>
  <unicode hex="0137"/>
  <outline>
    <contour>
      <point x="475" y="0" type="line"/>
      <point x="406" y="0" type="line" smooth="yes"/>
      <point x="334" y="0"/>
      <point x="284" y="150"/>
      <point x="257" y="225" type="qcurve"/>
      <point x="176" y="149" type="line"/>
      <point x="146" y="0" type="line"/>
      <point x="18" y="0" type="line"/>
      <point x="166" y="740" type="line"/>
      <point x="294" y="740" type="line"/>
      <point x="206" y="300" type="line"/>
      <point x="213" y="300" type="line"/>
      <point x="289" y="389" type="line"/>
      <point x="424" y="523" type="line"/>
      <point x="573" y="523" type="line"/>
      <point x="357" y="311" type="line"/>
      <point x="435" y="104" type="line"/>
      <point x="497" y="104" type="line"/>
    </contour>
    <contour>
      <point x="203" y="-269" type="qcurve"/>
      <point x="125" y="-269" type="line"/>
      <point x="175" y="-233"/>
      <point x="200" y="-175" type="qcurve"/>
      <point x="164" y="-170"/>
      <point x="164" y="-125" type="qcurve" smooth="yes"/>
      <point x="164" y="-85"/>
      <point x="210" y="-47"/>
      <point x="239" y="-47" type="qcurve" smooth="yes"/>
      <point x="292" y="-47"/>
      <point x="296" y="-86" type="qcurve"/>
      <point x="297" y="-91" type="line"/>
      <point x="297" y="-108"/>
      <point x="291" y="-131" type="qcurve" smooth="yes"/>
      <point x="267" y="-219"/>
    </contour>
  </outline>
</glyph>
<glyph name="kgreenlandic" format="2">
  <advance width="551"/>
  <unicode hex="0138"/>
  <outline>
    <contour>
      <point x="476" y="0" type="line"/>
      <point x="406" y="0" type="line" smooth="yes"/>
      <point x="335" y="0"/>
      <point x="310" y="74" type="qcurve" smooth="yes"/>
      <point x="307" y="83" type="line"/>
      <point x="307" y="84"/>
      <point x="306" y="85" type="qcurve"/>
      <point x="304" y="92" type="line"/>
      <point x="303" y="93"/>
      <point x="303" y="94" type="qcurve"/>
      <point x="301" y="101" type="line"/>
      <point x="300" y="102"/>
      <point x="300" y="104" type="qcurve"/>
      <point x="297" y="113" type="line"/>
      <point x="297" y="114"/>
      <point x="296" y="115" type="qcurve"/>
      <point x="294" y="122" type="line"/>
      <point x="293" y="123"/>
      <point x="293" y="124" type="qcurve"/>
      <point x="291" y="131" type="line" smooth="yes"/>
      <point x="290" y="133"/>
      <point x="289" y="135" type="qcurve" smooth="yes"/>
      <point x="287" y="142" type="line"/>
      <point x="287" y="143"/>
      <point x="286" y="145" type="qcurve" smooth="yes"/>
      <point x="284" y="151" type="line" smooth="yes"/>
      <point x="283" y="153"/>
      <point x="283" y="154" type="qcurve"/>
      <point x="281" y="161" type="line"/>
      <point x="280" y="162"/>
      <point x="280" y="163" type="qcurve"/>
      <point x="277" y="172" type="line"/>
      <point x="277" y="173"/>
      <point x="276" y="174" type="qcurve"/>
      <point x="274" y="181" type="line"/>
      <point x="273" y="182"/>
      <point x="273" y="183" type="qcurve"/>
      <point x="271" y="190" type="line"/>
      <point x="270" y="191"/>
      <point x="270" y="192" type="qcurve"/>
      <point x="267" y="202" type="line"/>
      <point x="267" y="203"/>
      <point x="266" y="204" type="qcurve"/>
      <point x="264" y="211" type="line"/>
      <point x="263" y="212"/>
      <point x="263" y="213" type="qcurve"/>
      <point x="261" y="220" type="line"/>
      <point x="260" y="221"/>
      <point x="260" y="222" type="qcurve"/>
      <point x="175" y="144" type="line"/>
      <point x="146" y="0" type="line"/>
      <point x="18" y="0" type="line"/>
      <point x="123" y="523" type="line"/>
      <point x="251" y="523" type="line"/>
      <point x="205" y="294" type="line"/>
      <point x="212" y="294" type="line"/>
      <point x="295" y="385" type="line"/>
      <point x="437" y="523" type="line"/>
      <point x="586" y="523" type="line"/>
      <point x="363" y="307" type="line"/>
      <point x="435" y="104" type="line"/>
      <point x="497" y="104" type="line"/>
    </contour>
  </outline>
</glyph>
<glyph name="u013B" format="2">
  <advance width="506"/>
  <unicode hex="013B"/>
  <outline>
    <contour>
      <point x="176" y="-269" type="qcurve"/>
      <point x="98" y="-269" type="line"/>
      <point x="146" y="-233"/>
      <point x="173" y="-175" type="qcurve"/>
      <point x="136" y="-167"/>
      <point x="136" y="-132" type="qcurve"/>
      <point x="141" y="-90"/>
      <point x="174" y="-47"/>
      <point x="211" y="-47" type="qcurve" smooth="yes"/>
      <point x="265" y="-47"/>
      <point x="269" y="-86" type="qcurve"/>
      <point x="270" y="-91" type="line"/>
      <point x="268" y="-114" type="line"/>
      <point x="245" y="-218"/>
    </contour>
    <contour>
      <point x="420" y="0" type="line"/>
      <point x="25" y="0" type="line"/>
      <point x="165" y="698" type="line"/>
      <point x="298" y="698" type="line"/>
      <point x="182" y="117" type="line"/>
      <point x="444" y="117" type="line"/>
    </contour>
  </outline>
</glyph>
<glyph name="u013C" format="2">
  <advance width="277"/>
  <unicode hex="013C"/>
  <outline>
    <contour>
      <point x="80" y="-269" type="qcurve"/>
      <point x="2" y="-269" type="line"/>
      <point x="50" y="-233"/>
      <point x="77" y="-175" type="qcurve"/>
      <point x="40" y="-167"/>
      <point x="40" y="-132" type="qcurve"/>
      <point x="45" y="-90"/>
      <point x="78" y="-47"/>
      <point x="115" y="-47" type="qcurve" smooth="yes"/>
      <point x="169" y="-47"/>
      <point x="173" y="-86" type="qcurve"/>
      <point x="174" y="-91" type="line"/>
      <point x="172" y="-114" type="line"/>
      <point x="149" y="-218"/>
    </contour>
    <contour>
      <point x="211" y="0" type="line"/>
      <point x="121" y="0" type="line" smooth="yes"/>
      <point x="76" y="0"/>
      <point x="35" y="44"/>
      <point x="35" y="77" type="qcurve" smooth="yes"/>
      <point x="35" y="85"/>
      <point x="166" y="740" type="qcurve"/>
      <point x="294" y="740" type="line"/>
      <point x="166" y="104" type="line"/>
      <point x="232" y="104" type="line"/>
    </contour>
  </outline>
</glyph>
<glyph name="Lcaron" format="2">
  <advance width="506"/>
  <unicode hex="013D"/>
  <outline>
    <contour>
      <point x="420" y="0" type="line"/>
      <point x="25" y="0" type="line"/>
      <point x="165" y="698" type="line"/>
      <point x="298" y="698" type="line"/>
      <point x="182" y="117" type="line"/>
      <point x="444" y="117" type="line"/>
    </contour>
    <contour>
      <point x="421" y="531" type="line"/>
      <point x="333" y="531" type="line"/>
      <point x="380" y="740" type="line"/>
      <point x="524" y="740" type="line"/>
    </contour>
  </outline>
</glyph>
<glyph name="lcaron" format="2">
  <advance width="334"/>
  <unicode hex="013E"/>
  <outline>
    <contour>
      <point x="211" y="0" type="line"/>
      <point x="121" y="0" type="line" smooth="yes"/>
      <point x="76" y="0"/>
      <point x="35" y="44"/>
      <point x="35" y="77" type="qcurve" smooth="yes"/>
      <point x="35" y="85"/>
      <point x="166" y="740" type="qcurve"/>
      <point x="294" y="740" type="line"/>
      <point x="166" y="104" type="line"/>
      <point x="232" y="104" type="line"/>
    </contour>
    <contour>
      <point x="400" y="531" type="line"/>
      <point x="312" y="531" type="line"/>
      <point x="359" y="740" type="line"/>
      <point x="503" y="740" type="line"/>
    </contour>
  </outline>
</glyph>
<glyph name="ncedilla" format="2">
  <advance width="583"/>
  <unicode hex="0146"/>
  <outline>
    <contour>
      <point x="515" y="0" type="line"/>
      <point x="428" y="0" type="line" smooth="yes"/>
      <point x="392" y="0"/>
      <point x="348" y="36"/>
      <point x="348" y="73" type="qcurve" smooth="yes"/>
      <point x="348" y="98"/>
      <point x="365" y="170" type="qcurve"/>
      <point x="378" y="235" type="line"/>
      <point x="389" y="283"/>
      <point x="399" y="344"/>
      <point x="399" y="369" type="qcurve" smooth="yes"/>
      <point x="399" y="427"/>
      <point x="341" y="427" type="qcurve" smooth="yes"/>
      <point x="291" y="427"/>
      <point x="214" y="333"/>
      <point x="201" y="273" type="qcurve" smooth="yes"/>
      <point x="146" y="0" type="line"/>
      <point x="18" y="0" type="line"/>
      <point x="123" y="523" type="line"/>
      <point x="251" y="523" type="line"/>
      <point x="228" y="405" type="line"/>
      <point x="233" y="405" type="line"/>
      <point x="262" y="468"/>
      <point x="345" y="535"/>
      <point x="404" y="535" type="qcurve" smooth="yes"/>
      <point x="473" y="535"/>
      <point x="532" y="457"/>
      <point x="532" y="398" type="qcurve" smooth="yes"/>
      <point x="532" y="352"/>
      <point x="519" y="305" type="qcurve"/>
      <point x="479" y="104" type="line"/>
      <point x="535" y="104" type="line"/>
    </contour>
    <contour>
      <point x="214" y="-269" type="qcurve"/>
      <point x="136" y="-269" type="line"/>
      <point x="186" y="-233"/>
      <point x="211" y="-175" type="qcurve"/>
      <point x="175" y="-170"/>
      <point x="175" y="-125" type="qcurve" smooth="yes"/>
      <point x="175" y="-85"/>
      <point x="221" y="-47"/>
      <point x="250" y="-47" type="qcurve" smooth="yes"/>
      <point x="303" y="-47"/>
      <point x="307" y="-86" type="qcurve"/>
      <point x="308" y="-91" type="line"/>
      <point x="308" y="-108"/>
      <point x="302" y="-131" type="qcurve" smooth="yes"/>
      <point x="278" y="-219"/>
    </contour>
  </outline>
</glyph>
<glyph name="Ncaron" format="2">
  <advance width="697"/>
  <unicode hex="0147"/>
  <outline>
    <contour>
      <point x="566" y="0" type="line"/>
      <point x="421" y="0" type="line"/>
      <point x="301" y="352" type="line"/>
      <point x="256" y="497" type="line"/>
      <point x="250" y="497" type="line"/>
      <point x="151" y="0" type="line"/>
      <point x="25" y="0" type="line"/>
      <point x="165" y="698" type="line"/>
      <point x="310" y="698" type="line"/>
      <point x="431" y="346" type="line"/>
      <point x="475" y="201" type="line"/>
      <point x="481" y="201" type="line"/>
      <point x="580" y="698" type="line"/>
      <point x="706" y="698" type="line"/>
    </contour>
    <contour>
      <point x="504" y="752" type="line"/>
      <point x="387" y="752" type="line"/>
      <point x="289" y="907" type="line"/>
      <point x="358" y="960" type="line"/>
      <point x="453" y="844" type="line"/>
      <point x="590" y="960" type="line"/>
      <point x="656" y="907" type="line"/>
    </contour>
  </outline>
</glyph>
<glyph name="napostrophe" format="2">
  <advance width="860"/>
  <unicode hex="0149"/>
  <outline>
    <contour>
      <point x="792" y="0" type="line"/>
      <point x="705" y="0" type="line" smooth="yes"/>
      <point x="669" y="0"/>
      <point x="625" y="36"/>
      <point x="625" y="73" type="qcurve" smooth="yes"/>
      <point x="625" y="94"/>
      <point x="648" y="200" type="qcurve" smooth="yes"/>
      <point x="677" y="335"/>
      <point x="677" y="369" type="qcurve" smooth="yes"/>
      <point x="677" y="427"/>
      <point x="619" y="427" type="qcurve" smooth="yes"/>
      <point x="570" y="427"/>
      <point x="492" y="334"/>
      <point x="478" y="273" type="qcurve"/>
      <point x="424" y="0" type="line"/>
      <point x="296" y="0" type="line"/>
      <point x="400" y="523" type="line"/>
      <point x="528" y="523" type="line"/>
      <point x="505" y="405" type="line"/>
      <point x="511" y="405" type="line"/>
      <point x="540" y="469"/>
      <point x="623" y="535"/>
      <point x="682" y="535" type="qcurve" smooth="yes"/>
      <point x="750" y="535"/>
      <point x="809" y="458"/>
      <point x="809" y="398" type="qcurve" smooth="yes"/>
      <point x="809" y="362"/>
      <point x="800" y="325" type="qcurve"/>
      <point x="756" y="104" type="line"/>
      <point x="812" y="104" type="line"/>
    </contour>
    <contour>
      <point x="165" y="458" type="qcurve"/>
      <point x="72" y="458" type="line"/>
      <point x="150" y="516"/>
      <point x="188" y="588" type="qcurve"/>
      <point x="140" y="600"/>
      <point x="140" y="640" type="qcurve" smooth="yes"/>
      <point x="140" y="684"/>
      <point x="183" y="750"/>
      <point x="236" y="750" type="qcurve" smooth="yes"/>
      <point x="276" y="750"/>
      <point x="307" y="713"/>
      <point x="307" y="692" type="qcurve" smooth="yes"/>
      <point x="307" y="638"/>
      <point x="232" y="508"/>
    </contour>
  </outline>
</glyph>
<glyph name="Obreve" format="2">
  <advance width="692"/>
  <unicode hex="014E"/>
  <outline>
    <contour>
      <point x="316" y="106" type="qcurve" smooth="yes"/>
      <point x="402" y="106"/>
      <point x="493" y="218"/>
      <point x="507" y="308" type="qcurve"/>
      <point x="514" y="338" type="line" smooth="yes"/>
      <point x="522" y="373"/>
      <point x="529" y="416"/>
      <point x="531" y="455" type="qcurve"/>
      <point x="529" y="592"/>
      <point x="406" y="592" type="qcurve" smooth="yes"/>
      <point x="322" y="592"/>
      <point x="229" y="481"/>
      <point x="215" y="389" type="qcurve"/>
      <point x="209" y="364" type="line" smooth="yes"/>
      <point x="191" y="290"/>
      <point x="191" y="243" type="qcurve" smooth="yes"/>
      <point x="191" y="106"/>
    </contour>
    <contour>
      <point x="306" y="-12" type="qcurve" smooth="yes"/>
      <point x="234" y="-12"/>
      <point x="122" y="52"/>
      <point x="57" y="177"/>
      <point x="57" y="269" type="qcurve" smooth="yes"/>
      <point x="57" y="347"/>
      <point x="103" y="504"/>
      <point x="193" y="632"/>
      <point x="327" y="710"/>
      <point x="415" y="710" type="qcurve" smooth="yes"/>
      <point x="534" y="710"/>
      <point x="665" y="557"/>
      <point x="665" y="429" type="qcurve" smooth="yes"/>
      <point x="665" y="347"/>
      <point x="617" y="189"/>
      <point x="524" y="63"/>
      <point x="391" y="-12"/>
    </contour>
    <contour>
      <point x="446" y="744" type="qcurve" smooth="yes"/>
      <point x="375" y="744"/>
      <point x="332" y="795" type="qcurve"/>
      <point x="292" y="838"/>
      <point x="283" y="908" type="qcurve"/>
      <point x="357" y="945" type="line"/>
      <point x="381" y="885"/>
      <point x="406" y="856" type="qcurve"/>
      <point x="420" y="838"/>
      <point x="453" y="838" type="qcurve" smooth="yes"/>
      <point x="485" y="838"/>
      <point x="529" y="880"/>
      <point x="560" y="923" type="qcurve"/>
      <point x="577" y="945" type="line"/>
      <point x="653" y="904" type="line"/>
      <point x="574" y="744"/>
    </contour>
  </outline>
</glyph>
<glyph name="obreve" format="2">
  <advance width="544"/>
  <unicode hex="014F"/>
  <outline>
    <contour>
      <point x="245" y="93" type="qcurve" smooth="yes"/>
      <point x="299" y="93"/>
      <point x="349" y="168"/>
      <point x="364" y="233" type="qcurve"/>
      <point x="378" y="303" type="line"/>
      <point x="382" y="320"/>
      <point x="382" y="340" type="qcurve" smooth="yes"/>
      <point x="381" y="431"/>
      <point x="299" y="431" type="qcurve" smooth="yes"/>
      <point x="248" y="431"/>
      <point x="192" y="358"/>
      <point x="180" y="290" type="qcurve"/>
      <point x="166" y="221" type="line"/>
      <point x="162" y="204"/>
      <point x="162" y="183" type="qcurve" smooth="yes"/>
      <point x="162" y="93"/>
    </contour>
    <contour>
      <point x="239" y="-12" type="qcurve" smooth="yes"/>
      <point x="147" y="-12"/>
      <point x="35" y="98"/>
      <point x="35" y="206" type="qcurve" smooth="yes"/>
      <point x="35" y="290"/>
      <point x="98" y="441"/>
      <point x="218" y="535"/>
      <point x="305" y="535" type="qcurve" smooth="yes"/>
      <point x="362" y="535"/>
      <point x="455" y="491"/>
      <point x="509" y="395"/>
      <point x="509" y="318" type="qcurve" smooth="yes"/>
      <point x="509" y="222"/>
      <point x="436" y="73"/>
      <point x="313" y="-12"/>
    </contour>
    <contour>
      <point x="330" y="582" type="qcurve" smooth="yes"/>
      <point x="280" y="582"/>
      <point x="212" y="629"/>
      <point x="173" y="704"/>
      <point x="168" y="746" type="qcurve"/>
      <point x="241" y="783" type="line"/>
      <point x="258" y="748" type="line"/>
      <point x="272" y="711"/>
      <point x="308" y="676"/>
      <point x="337" y="676" type="qcurve" smooth="yes"/>
      <point x="368" y="676"/>
      <point x="408" y="714"/>
      <point x="436" y="751" type="qcurve" smooth="yes"/>
      <point x="461" y="783" type="line"/>
      <point x="538" y="742" type="line"/>
      <point x="455" y="582"/>
    </contour>
  </outline>
</glyph>
<glyph name="Rcommaaccent" format="2">
  <advance width="649"/>
  <unicode hex="0156"/>
  <outline>
    <contour>
      <point x="390" y="380" type="line" smooth="yes"/>
      <point x="430" y="380"/>
      <point x="478" y="429"/>
      <point x="499" y="495"/>
      <point x="499" y="522" type="qcurve" smooth="yes"/>
      <point x="499" y="547"/>
      <point x="467" y="581"/>
      <point x="429" y="581" type="qcurve" smooth="yes"/>
      <point x="274" y="581" type="line"/>
      <point x="235" y="380" type="line"/>
    </contour>
    <contour>
      <point x="235" y="-269" type="qcurve"/>
      <point x="157" y="-269" type="line"/>
      <point x="207" y="-233"/>
      <point x="232" y="-175" type="qcurve"/>
      <point x="196" y="-170"/>
      <point x="196" y="-125" type="qcurve" smooth="yes"/>
      <point x="196" y="-85"/>
      <point x="242" y="-47"/>
      <point x="271" y="-47" type="qcurve" smooth="yes"/>
      <point x="324" y="-47"/>
      <point x="328" y="-86" type="qcurve"/>
      <point x="329" y="-91" type="line"/>
      <point x="329" y="-108"/>
      <point x="323" y="-131" type="qcurve" smooth="yes"/>
      <point x="299" y="-219"/>
    </contour>
    <contour>
      <point x="551" y="0" type="line"/>
      <point x="409" y="0" type="line"/>
      <point x="335" y="267" type="line"/>
      <point x="212" y="267" type="line"/>
      <point x="158" y="0" type="line"/>
      <point x="25" y="0" type="line"/>
      <point x="165" y="698" type="line"/>
      <point x="433" y="698" type="line" smooth="yes"/>
      <point x="541" y="698"/>
      <point x="637" y="597"/>
      <point x="637" y="520" type="qcurve" smooth="yes"/>
      <point x="637" y="443"/>
      <point x="549" y="312"/>
      <point x="463" y="283" type="qcurve"/>
    </contour>
  </outline>
</glyph>
<glyph name="rcaron" format="2">
  <advance width="388"/>
  <unicode hex="0159"/>
  <outline>
    <contour>
      <point x="146" y="0" type="line"/>
      <point x="18" y="0" type="line"/>
      <point x="123" y="523" type="line"/>
      <point x="251" y="523" type="line"/>
      <point x="226" y="399" type="line"/>
      <point x="233" y="399" type="line"/>
      <point x="252" y="448"/>
      <point x="331" y="523"/>
      <point x="389" y="523" type="qcurve" smooth="yes"/>
      <point x="415" y="523" type="line"/>
      <point x="390" y="398" type="line"/>
      <point x="355" y="398" type="line" smooth="yes"/>
      <point x="218" y="398"/>
      <point x="203" y="282" type="qcurve"/>
    </contour>
    <contour>
      <point x="326" y="590" type="line"/>
      <point x="209" y="590" type="line"/>
      <point x="111" y="745" type="line"/>
      <point x="180" y="797" type="line"/>
      <point x="274" y="682" type="line"/>
      <point x="412" y="797" type="line"/>
      <point x="478" y="745" type="line"/>
    </contour>
  </outline>
</glyph>
<glyph name="Tcedilla" format="2">
  <advance width="566"/>
  <unicode hex="0162"/>
  <outline>
    <contour>
      <point x="297" y="0" type="line"/>
      <point x="164" y="0" type="line"/>
      <point x="280" y="581" type="line"/>
      <point x="91" y="581" type="line"/>
      <point x="114" y="698" type="line"/>
      <point x="626" y="698" type="line"/>
      <point x="602" y="581" type="line"/>
      <point x="413" y="581" type="line"/>
    </contour>
    <contour>
      <point x="183" y="-269" type="qcurve"/>
      <point x="105" y="-269" type="line"/>
      <point x="154" y="-233"/>
      <point x="181" y="-175" type="qcurve"/>
      <point x="144" y="-167"/>
      <point x="144" y="-132" type="qcurve" smooth="yes"/>
      <point x="144" y="-113"/>
      <point x="151" y="-96" type="qcurve"/>
      <point x="168" y="-47"/>
      <point x="219" y="-47" type="qcurve" smooth="yes"/>
      <point x="271" y="-47"/>
      <point x="277" y="-86" type="qcurve"/>
      <point x="277" y="-111"/>
      <point x="272" y="-131" type="qcurve" smooth="yes"/>
      <point x="248" y="-219"/>
    </contour>
  </outline>
</glyph>
<glyph name="Tcaron" format="2">
  <advance width="566"/>
  <unicode hex="0164"/>
  <outline>
    <contour>
      <point x="297" y="0" type="line"/>
      <point x="164" y="0" type="line"/>
      <point x="280" y="581" type="line"/>
      <point x="91" y="581" type="line"/>
      <point x="114" y="698" type="line"/>
      <point x="626" y="698" type="line"/>
      <point x="602" y="581" type="line"/>
      <point x="413" y="581" type="line"/>
    </contour>
    <contour>
      <point x="440" y="752" type="line"/>
      <point x="322" y="752" type="line"/>
      <point x="225" y="907" type="line"/>
      <point x="293" y="960" type="line"/>
      <point x="388" y="844" type="line"/>
      <point x="526" y="960" type="line"/>
      <point x="592" y="907" type="line"/>
    </contour>
  </outline>
</glyph>
<glyph name="tbar" format="2">
  <advance width="356"/>
  <unicode hex="0167"/>
  <outline>
    <contour>
      <point x="267" y="0" type="line"/>
      <point x="188" y="0" type="line" smooth="yes"/>
      <point x="75" y="0"/>
      <point x="66" y="75" type="qcurve" smooth="yes"/>
      <point x="64" y="92" type="line"/>
      <point x="66" y="106"/>
      <point x="66" y="120" type="qcurve"/>
      <point x="87" y="230" type="line"/>
      <point x="24" y="230" type="line"/>
      <point x="42" y="318" type="line"/>
      <point x="105" y="318" type="line"/>
      <point x="125" y="420" type="line"/>
      <point x="51" y="420" type="line"/>
      <point x="71" y="523" type="line"/>
      <point x="107" y="523" type="line" smooth="yes"/>
      <point x="138" y="523"/>
      <point x="161" y="547"/>
      <point x="165" y="576" type="qcurve"/>
      <point x="183" y="665" type="line"/>
      <point x="302" y="665" type="line"/>
      <point x="274" y="523" type="line"/>
      <point x="379" y="523" type="line"/>
      <point x="358" y="420" type="line"/>
      <point x="253" y="420" type="line"/>
      <point x="232" y="318" type="line"/>
      <point x="323" y="318" type="line"/>
      <point x="306" y="230" type="line"/>
      <point x="215" y="230" type="line"/>
      <point x="190" y="104" type="line"/>
      <point x="287" y="104" type="line"/>
    </contour>
  </outline>
</glyph>
<glyph name="Utilde" format="2">
  <advance width="674"/>
  <unicode hex="0168"/>
  <outline>
    <contour>
      <point x="512" y="765" type="qcurve" smooth="yes"/>
      <point x="479" y="765"/>
      <point x="418" y="797" type="qcurve" smooth="yes"/>
      <point x="392" y="810"/>
      <point x="365" y="810" type="qcurve" smooth="yes"/>
      <point x="350" y="810"/>
      <point x="325" y="797"/>
      <point x="307" y="784" type="qcurve"/>
      <point x="267" y="848" type="line"/>
      <point x="313" y="908"/>
      <point x="379" y="908" type="qcurve" smooth="yes"/>
      <point x="397" y="908"/>
      <point x="434" y="895"/>
      <point x="471" y="877"/>
      <point x="507" y="864"/>
      <point x="526" y="864" type="qcurve" smooth="yes"/>
      <point x="542" y="864"/>
      <point x="568" y="876"/>
      <point x="584" y="889" type="qcurve"/>
      <point x="624" y="826" type="line"/>
      <point x="575" y="765"/>
    </contour>
    <contour>
      <point x="303" y="-12" type="qcurve" smooth="yes"/>
      <point x="74" y="-12"/>
      <point x="74" y="209" type="qcurve" smooth="yes"/>
      <point x="74" y="251"/>
      <point x="83" y="301" type="qcurve"/>
      <point x="163" y="698" type="line"/>
      <point x="294" y="698" type="line"/>
      <point x="211" y="280" type="line" smooth="yes"/>
      <point x="203" y="243"/>
      <point x="203" y="216" type="qcurve" smooth="yes"/>
      <point x="204" y="109"/>
      <point x="310" y="109" type="qcurve" smooth="yes"/>
      <point x="442" y="109"/>
      <point x="467" y="273" type="qcurve"/>
      <point x="484" y="366"/>
      <point x="507" y="478"/>
      <point x="532" y="598"/>
      <point x="552" y="698" type="qcurve"/>
      <point x="684" y="698" type="line"/>
      <point x="599" y="276" type="line" smooth="yes"/>
      <point x="570" y="121"/>
      <point x="427" y="-12"/>
    </contour>
  </outline>
</glyph>
<glyph name="ubreve" format="2">
  <advance width="578"/>
  <unicode hex="016D"/>
  <outline>
    <contour>
      <point x="347" y="582" type="qcurve" smooth="yes"/>
      <point x="297" y="582"/>
      <point x="229" y="629"/>
      <point x="190" y="704"/>
      <point x="185" y="746" type="qcurve"/>
      <point x="258" y="783" type="line"/>
      <point x="275" y="748" type="line"/>
      <point x="289" y="711"/>
      <point x="325" y="676"/>
      <point x="354" y="676" type="qcurve" smooth="yes"/>
      <point x="385" y="676"/>
      <point x="425" y="714"/>
      <point x="453" y="751" type="qcurve" smooth="yes"/>
      <point x="478" y="783" type="line"/>
      <point x="555" y="742" type="line"/>
      <point x="472" y="582"/>
    </contour>
    <contour>
      <point x="170" y="-12" type="qcurve" smooth="yes"/>
      <point x="102" y="-12"/>
      <point x="44" y="66"/>
      <point x="44" y="125" type="qcurve" smooth="yes"/>
      <point x="44" y="164"/>
      <point x="53" y="200" type="qcurve"/>
      <point x="118" y="523" type="line"/>
      <point x="246" y="523" type="line"/>
      <point x="183" y="210" type="line" smooth="yes"/>
      <point x="177" y="180"/>
      <point x="177" y="157" type="qcurve" smooth="yes"/>
      <point x="177" y="96"/>
      <point x="231" y="96" type="qcurve" smooth="yes"/>
      <point x="281" y="96"/>
      <point x="356" y="190"/>
      <point x="369" y="251" type="qcurve" smooth="yes"/>
      <point x="423" y="523" type="line"/>
      <point x="551" y="523" type="line"/>
      <point x="467" y="104" type="line"/>
      <point x="529" y="104" type="line"/>
      <point x="508" y="0" type="line"/>
      <point x="420" y="0" type="line"/>
      <point x="383" y="1"/>
      <point x="336" y="37"/>
      <point x="336" y="74" type="qcurve" smooth="yes"/>
      <point x="336" y="91"/>
      <point x="339" y="103" type="qcurve"/>
      <point x="342" y="118" type="line"/>
      <point x="336" y="118" type="line"/>
      <point x="280" y="-12"/>
    </contour>
  </outline>
</glyph>
<glyph name="wcircumflex" format="2">
  <advance width="781"/>
  <unicode hex="0175"/>
  <outline>
    <contour>
      <point x="563" y="581" type="line"/>
      <point x="465" y="696" type="line"/>
      <point x="330" y="581" type="line"/>
      <point x="266" y="634" type="line"/>
      <point x="419" y="789" type="line"/>
      <point x="535" y="789" type="line"/>
      <point x="632" y="633" type="line"/>
    </contour>
    <contour>
      <point x="572" y="0" type="line"/>
      <point x="435" y="0" type="line"/>
      <point x="406" y="361" type="line"/>
      <point x="401" y="361" type="line"/>
      <point x="319" y="180"/>
      <point x="235" y="0" type="qcurve"/>
      <point x="96" y="0" type="line"/>
      <point x="58" y="523" type="line"/>
      <point x="185" y="523" type="line"/>
      <point x="196" y="141" type="line"/>
      <point x="202" y="141" type="line"/>
      <point x="373" y="523" type="line"/>
      <point x="493" y="523" type="line"/>
      <point x="507" y="333"/>
      <point x="519" y="136" type="qcurve"/>
      <point x="525" y="136" type="line"/>
      <point x="685" y="523" type="line"/>
      <point x="811" y="523" type="line"/>
    </contour>
  </outline>
</glyph>
<glyph name="Zdotaccent" format="2">
  <advance width="571"/>
  <unicode hex="017B"/>
  <outline>
    <contour>
      <point x="483" y="0" type="line"/>
      <point x="-12" y="0" type="line"/>
      <point x="12" y="118" type="line"/>
      <point x="438" y="581" type="line"/>
      <point x="119" y="581" type="line"/>
      <point x="143" y="698" type="line"/>
      <point x="619" y="698" type="line"/>
      <point x="595" y="580" type="line"/>
      <point x="170" y="117" type="line"/>
      <point x="507" y="117" type="line"/>
    </contour>
    <contour>
      <point x="391" y="758" type="qcurve" smooth="yes"/>
      <point x="322" y="758"/>
      <point x="322" y="812" type="qcurve" smooth="yes"/>
      <point x="322" y="837"/>
      <point x="334" y="884"/>
      <point x="374" y="914"/>
      <point x="415" y="914" type="qcurve" smooth="yes"/>
      <point x="474" y="914"/>
      <point x="483" y="872" type="qcurve"/>
      <point x="484" y="858" type="line"/>
      <point x="484" y="810"/>
      <point x="462" y="782" type="qcurve" smooth="yes"/>
      <point x="444" y="758"/>
    </contour>
  </outline>
</glyph>
<glyph name="Zcaron" format="2">
  <advance width="571"/>
  <unicode hex="017D"/>
  <outline>
    <contour>
      <point x="483" y="0" type="line"/>
      <point x="-12" y="0" type="line"/>
      <point x="12" y="118" type="line"/>
      <point x="438" y="581" type="line"/>
      <point x="119" y="581" type="line"/>
      <point x="143" y="698" type="line"/>
      <point x="619" y="698" type="line"/>
      <point x="595" y="580" type="line"/>
      <point x="170" y="117" type="line"/>
      <point x="507" y="117" type="line"/>
    </contour>
    <contour>
      <point x="445" y="752" type="line"/>
      <point x="328" y="752" type="line"/>
      <point x="230" y="907" type="line"/>
      <point x="298" y="960" type="line"/>
      <point x="393" y="844" type="line"/>
      <point x="531" y="960" type="line"/>
      <point x="597" y="907" type="line"/>
    </contour>
  </outline>
</glyph>
<glyph name="u018F" format="2">
  <advance width="693"/>
  <unicode hex="018F"/>
  <outline>
    <contour>
      <point x="319" y="107" type="qcurve" smooth="yes"/>
      <point x="461" y="107"/>
      <point x="500" y="284" type="qcurve"/>
      <point x="193" y="284" type="line"/>
      <point x="190" y="264"/>
      <point x="190" y="241" type="qcurve" smooth="yes"/>
      <point x="190" y="107"/>
    </contour>
    <contour>
      <point x="306" y="-12" type="qcurve" smooth="yes"/>
      <point x="235" y="-12"/>
      <point x="123" y="49"/>
      <point x="57" y="172"/>
      <point x="57" y="265" type="qcurve" smooth="yes"/>
      <point x="57" y="309"/>
      <point x="67" y="350" type="qcurve"/>
      <point x="75" y="390" type="line"/>
      <point x="522" y="390" type="line"/>
      <point x="529" y="427"/>
      <point x="529" y="456" type="qcurve" smooth="yes"/>
      <point x="529" y="514"/>
      <point x="465" y="591"/>
      <point x="390" y="591" type="qcurve" smooth="yes"/>
      <point x="281" y="591"/>
      <point x="228" y="472" type="qcurve"/>
      <point x="111" y="523" type="line"/>
      <point x="136" y="576"/>
      <point x="219" y="660"/>
      <point x="335" y="710"/>
      <point x="409" y="710" type="qcurve" smooth="yes"/>
      <point x="482" y="710"/>
      <point x="598" y="648"/>
      <point x="666" y="526"/>
      <point x="666" y="437" type="qcurve" smooth="yes"/>
      <point x="666" y="322"/>
      <point x="583" y="116"/>
      <point x="422" y="-12"/>
    </contour>
  </outline>
</glyph>
<glyph name="Aringacute" format="2">
  <advance width="651"/>
  <unicode hex="01FA"/>
  <outline>
    <contour>
      <point x="418" y="288" type="line"/>
      <point x="393" y="577" type="line"/>
      <point x="385" y="577" type="line"/>
      <point x="249" y="288" type="line"/>
    </contour>
    <contour>
      <point x="428" y="792" type="qcurve" smooth="yes"/>
      <point x="461" y="792"/>
      <point x="491" y="834"/>
      <point x="491" y="864" type="qcurve" smooth="yes"/>
      <point x="491" y="900"/>
      <point x="447" y="900" type="qcurve" smooth="yes"/>
      <point x="388" y="900"/>
      <point x="383" y="828" type="qcurve"/>
      <point x="383" y="792"/>
    </contour>
    <contour>
      <point x="580" y="0" type="line"/>
      <point x="446" y="0" type="line"/>
      <point x="428" y="176" type="line"/>
      <point x="196" y="176" type="line"/>
      <point x="109" y="0" type="line"/>
      <point x="-33" y="0" type="line"/>
      <point x="328" y="698" type="line"/>
      <point x="498" y="698" type="line"/>
    </contour>
    <contour>
      <point x="418" y="727" type="qcurve" smooth="yes"/>
      <point x="370" y="727"/>
      <point x="296" y="775"/>
      <point x="296" y="828" type="qcurve" smooth="yes"/>
      <point x="296" y="895"/>
      <point x="344" y="930" type="qcurve" smooth="yes"/>
      <point x="384" y="959"/>
      <point x="435" y="964" type="qcurve"/>
      <point x="553" y="1066" type="line"/>
      <point x="613" y="995" type="line"/>
      <point x="535" y="945" type="line"/>
      <point x="538" y="943"/>
      <point x="542" y="941" type="qcurve"/>
      <point x="579" y="916"/>
      <point x="579" y="863" type="qcurve" smooth="yes"/>
      <point x="579" y="818"/>
      <point x="532" y="758"/>
      <point x="458" y="727"/>
    </contour>
  </outline>
</glyph>
<glyph name="Oslashacute" format="2">
  <advance width="692"/>
  <unicode hex="01FE"/>
  <outline>
    <contour>
      <point x="315" y="102" type="qcurve" smooth="yes"/>
      <point x="466" y="102"/>
      <point x="507" y="293" type="qcurve" smooth="yes"/>
      <point x="517" y="339" type="line" smooth="yes"/>
      <point x="526" y="381"/>
      <point x="536" y="438"/>
      <point x="536" y="465" type="qcurve" smooth="yes"/>
      <point x="536" y="479"/>
      <point x="533" y="488" type="qcurve"/>
      <point x="227" y="134" type="line"/>
      <point x="262" y="102"/>
    </contour>
    <contour>
      <point x="189" y="210" type="qcurve"/>
      <point x="495" y="564" type="line"/>
      <point x="460" y="596"/>
      <point x="407" y="596" type="qcurve" smooth="yes"/>
      <point x="254" y="596"/>
      <point x="215" y="405" type="qcurve"/>
      <point x="207" y="370" type="line" smooth="yes"/>
      <point x="189" y="292"/>
      <point x="186" y="232" type="qcurve"/>
      <point x="187" y="225"/>
      <point x="187" y="214"/>
    </contour>
    <contour>
      <point x="74" y="-57" type="line"/>
      <point x="2" y="5" type="line"/>
      <point x="91" y="109" type="line"/>
      <point x="57" y="171"/>
      <point x="57" y="269" type="qcurve" smooth="yes"/>
      <point x="57" y="388"/>
      <point x="160" y="607"/>
      <point x="267" y="673" type="qcurve"/>
      <point x="333" y="710"/>
      <point x="416" y="710" type="qcurve" smooth="yes"/>
      <point x="502" y="710"/>
      <point x="568" y="662" type="qcurve"/>
      <point x="647" y="755" type="line"/>
      <point x="719" y="693" type="line"/>
      <point x="630" y="589" type="line"/>
      <point x="665" y="529"/>
      <point x="665" y="429" type="qcurve" smooth="yes"/>
      <point x="665" y="349"/>
      <point x="618" y="193"/>
      <point x="527" y="65"/>
      <point x="393" y="-12"/>
      <point x="306" y="-12" type="qcurve" smooth="yes"/>
      <point x="220" y="-12"/>
      <point x="154" y="36" type="qcurve"/>
    </contour>
    <contour>
      <point x="453" y="742" type="line"/>
      <point x="376" y="784" type="line"/>
      <point x="492" y="971" type="line"/>
      <point x="595" y="915" type="line"/>
    </contour>
  </outline>
</glyph>
<glyph name="oslashacute" format="2">
  <advance width="545"/>
  <unicode hex="01FF"/>
  <outline>
    <contour>
      <point x="245" y="88" type="qcurve" smooth="yes"/>
      <point x="293" y="88"/>
      <point x="345" y="157"/>
      <point x="358" y="202" type="qcurve" smooth="yes"/>
      <point x="374" y="256"/>
      <point x="381" y="317" type="qcurve"/>
      <point x="181" y="114" type="line"/>
      <point x="205" y="88"/>
    </contour>
    <contour>
      <point x="163" y="206" type="qcurve"/>
      <point x="363" y="409" type="line"/>
      <point x="339" y="435"/>
      <point x="299" y="435" type="qcurve" smooth="yes"/>
      <point x="212" y="435"/>
      <point x="181" y="308" type="qcurve"/>
      <point x="171" y="257"/>
    </contour>
    <contour>
      <point x="35" y="-43" type="line"/>
      <point x="-31" y="16" type="line"/>
      <point x="53" y="103" type="line"/>
      <point x="35" y="146"/>
      <point x="35" y="206" type="qcurve" smooth="yes"/>
      <point x="35" y="291"/>
      <point x="99" y="441"/>
      <point x="220" y="535"/>
      <point x="305" y="535" type="qcurve" smooth="yes"/>
      <point x="385" y="535"/>
      <point x="438" y="493" type="qcurve"/>
      <point x="509" y="566" type="line"/>
      <point x="575" y="507" type="line"/>
      <point x="491" y="420" type="line"/>
      <point x="510" y="376"/>
      <point x="510" y="318" type="qcurve" smooth="yes"/>
      <point x="510" y="179"/>
      <point x="357" y="-12"/>
      <point x="239" y="-12" type="qcurve" smooth="yes"/>
      <point x="158" y="-12"/>
      <point x="106" y="31" type="qcurve"/>
    </contour>
    <contour>
      <point x="344" y="580" type="line"/>
      <point x="267" y="622" type="line"/>
      <point x="383" y="808" type="line"/>
      <point x="486" y="753" type="line"/>
    </contour>
  </outline>
</glyph>
<glyph name="u021A" format="2">
  <advance width="566"/>
  <unicode hex="021A"/>
  <outline>
    <contour>
      <point x="183" y="-269" type="qcurve"/>
      <point x="105" y="-269" type="line"/>
      <point x="154" y="-233"/>
      <point x="181" y="-175" type="qcurve"/>
      <point x="144" y="-167"/>
      <point x="144" y="-132" type="qcurve" smooth="yes"/>
      <point x="144" y="-113"/>
      <point x="151" y="-96" type="qcurve"/>
      <point x="168" y="-47"/>
      <point x="219" y="-47" type="qcurve" smooth="yes"/>
      <point x="271" y="-47"/>
      <point x="277" y="-86" type="qcurve"/>
      <point x="277" y="-111"/>
      <point x="272" y="-131" type="qcurve" smooth="yes"/>
      <point x="248" y="-219"/>
    </contour>
    <contour>
      <point x="297" y="0" type="line"/>
      <point x="164" y="0" type="line"/>
      <point x="280" y="581" type="line"/>
      <point x="91" y="581" type="line"/>
      <point x="114" y="698" type="line"/>
      <point x="626" y="698" type="line"/>
      <point x="602" y="581" type="line"/>
      <point x="413" y="581" type="line"/>
    </contour>
  </outline>
</glyph>
<glyph name="ring" format="2">
  <advance width="587"/>
  <unicode hex="02DA"/>
  <outline>
    <contour>
      <point x="306" y="630" type="qcurve" smooth="yes"/>
      <point x="340" y="630"/>
      <point x="372" y="691"/>
      <point x="372" y="728" type="qcurve" smooth="yes"/>
      <point x="372" y="768"/>
      <point x="329" y="768" type="qcurve" smooth="yes"/>
      <point x="303" y="768"/>
      <point x="274" y="735"/>
      <point x="263" y="689"/>
      <point x="263" y="670" type="qcurve" smooth="yes"/>
      <point x="263" y="630"/>
    </contour>
    <contour>
      <point x="300" y="561" type="qcurve" smooth="yes"/>
      <point x="248" y="561"/>
      <point x="177" y="624"/>
      <point x="177" y="679" type="qcurve" smooth="yes"/>
      <point x="177" y="754"/>
      <point x="273" y="837"/>
      <point x="335" y="837" type="qcurve" smooth="yes"/>
      <point x="391" y="837"/>
      <point x="458" y="770"/>
      <point x="458" y="719" type="qcurve" smooth="yes"/>
      <point x="458" y="645"/>
      <point x="362" y="561"/>
    </contour>
  </outline>
</glyph>
<glyph name="hungarumlaut" format="2">
  <advance width="587"/>
  <unicode hex="02DD"/>
  <outline>
    <contour>
      <point x="411" y="581" type="line"/>
      <point x="341" y="616" type="line"/>
      <point x="452" y="805" type="line"/>
      <point x="549" y="753" type="line"/>
    </contour>
    <contour>
      <point x="223" y="581" type="line"/>
      <point x="152" y="616" type="line"/>
      <point x="264" y="805" type="line"/>
      <point x="361" y="753" type="line"/>
    </contour>
  </outline>
</glyph>
<glyph name="gravecmb" format="2">
  <unicode hex="0300"/>
  <outline>
    <contour>
      <point x="-11" y="581" type="line"/>
      <point x="-112" y="754" type="line"/>
      <point x="3" y="808" type="line"/>
      <point x="70" y="616" type="line"/>
    </contour>
  </outline>
</glyph>
<glyph name="tildecmb" format="2">
  <unicode hex="0303"/>
  <outline>
    <contour>
      <point x="94" y="603" type="qcurve" smooth="yes"/>
      <point x="71" y="603"/>
      <point x="32" y="618"/>
      <point x="-3" y="635"/>
      <point x="-35" y="647"/>
      <point x="-52" y="647" type="qcurve" smooth="yes"/>
      <point x="-67" y="647"/>
      <point x="-93" y="635"/>
      <point x="-110" y="622" type="qcurve"/>
      <point x="-151" y="685" type="line"/>
      <point x="-102" y="745"/>
      <point x="-39" y="745" type="qcurve" smooth="yes"/>
      <point x="-16" y="745"/>
      <point x="21" y="732"/>
      <point x="36" y="724" type="qcurve" smooth="yes"/>
      <point x="42" y="721" type="line" smooth="yes"/>
      <point x="83" y="701"/>
      <point x="108" y="701" type="qcurve" smooth="yes"/>
      <point x="123" y="701"/>
      <point x="149" y="714"/>
      <point x="166" y="727" type="qcurve"/>
      <point x="206" y="663" type="line"/>
      <point x="161" y="603"/>
    </contour>
  </outline>
</glyph>
<glyph name="u0304" format="2">
  <advance width="0"/>
  <unicode hex="0304"/>
  <outline>
    <contour>
      <point x="157" y="627" type="line"/>
      <point x="-120" y="627" type="line"/>
      <point x="-101" y="723" type="line"/>
      <point x="176" y="723" type="line"/>
    </contour>
  </outline>
</glyph>
<glyph name="hookabovecomb" format="2">
  <unicode hex="0309"/>
  <outline>
    <contour>
      <point x="49" y="572" type="line"/>
      <point x="-15" y="604" type="line"/>
      <point x="38" y="700" type="line"/>
      <point x="-79" y="700" type="line"/>
      <point x="-61" y="795" type="line"/>
      <point x="77" y="795" type="line" smooth="yes"/>
      <point x="118" y="795"/>
      <point x="152" y="762"/>
      <point x="152" y="740" type="qcurve" smooth="yes"/>
      <point x="152" y="682"/>
      <point x="90" y="620" type="qcurve"/>
    </contour>
  </outline>
</glyph>
<glyph name="u030B" format="2">
  <advance width="0"/>
  <unicode hex="030B"/>
  <outline>
    <contour>
      <point x="119" y="581" type="line"/>
      <point x="49" y="616" type="line"/>
      <point x="161" y="805" type="line"/>
      <point x="258" y="753" type="line"/>
    </contour>
    <contour>
      <point x="-68" y="581" type="line"/>
      <point x="-139" y="616" type="line"/>
      <point x="-28" y="805" type="line"/>
      <point x="69" y="753" type="line"/>
    </contour>
  </outline>
</glyph>
<glyph name="caroncmb" format="2">
  <unicode hex="030C"/>
  <outline>
    <contour>
      <point x="71" y="590" type="line"/>
      <point x="-47" y="590" type="line"/>
      <point x="-144" y="745" type="line"/>
      <point x="-76" y="797" type="line"/>
      <point x="19" y="682" type="line"/>
      <point x="156" y="797" type="line"/>
      <point x="222" y="745" type="line"/>
    </contour>
  </outline>
</glyph>
<glyph name="commaturnedabovecomb" format="2">
  <unicode hex="0312"/>
  <outline>
    <contour>
      <point x="10" y="580" type="qcurve" smooth="yes"/>
      <point x="-49" y="580"/>
      <point x="-49" y="628" type="qcurve" smooth="yes"/>
      <point x="-49" y="680"/>
      <point x="8" y="773"/>
      <point x="45" y="802" type="qcurve"/>
      <point x="123" y="802" type="line"/>
      <point x="73" y="764"/>
      <point x="48" y="708" type="qcurve"/>
      <point x="85" y="704"/>
      <point x="85" y="662" type="qcurve"/>
      <point x="75" y="580"/>
    </contour>
  </outline>
</glyph>
<glyph name="u0315" format="2">
  <advance width="0"/>
  <unicode hex="0315"/>
  <outline>
    <contour>
      <point x="50" y="531" type="line"/>
      <point x="-39" y="531" type="line"/>
      <point x="8" y="740" type="line"/>
      <point x="152" y="740" type="line"/>
    </contour>
  </outline>
</glyph>
<glyph name="horncmb" format="2">
  <unicode hex="031B"/>
  <outline>
    <contour>
      <point x="18" y="442" type="qcurve" smooth="yes"/>
      <point x="-125" y="442" type="line"/>
      <point x="-108" y="523" type="line"/>
      <point x="6" y="523" type="line"/>
      <point x="27" y="630" type="line"/>
      <point x="141" y="630" type="line"/>
      <point x="132" y="581"/>
      <point x="113" y="483"/>
      <point x="65" y="442"/>
    </contour>
  </outline>
</glyph>
<glyph name="dotbelowcmb" format="2">
  <unicode hex="0323"/>
  <outline>
    <contour>
      <point x="-34" y="-196" type="qcurve" smooth="yes"/>
      <point x="-99" y="-196"/>
      <point x="-99" y="-147" type="qcurve" smooth="yes"/>
      <point x="-99" y="-132"/>
      <point x="-84" y="-87"/>
      <point x="-54" y="-56"/>
      <point x="-15" y="-56" type="qcurve" smooth="yes"/>
      <point x="49" y="-56"/>
      <point x="49" y="-105" type="qcurve" smooth="yes"/>
      <point x="49" y="-122"/>
      <point x="45" y="-132" type="qcurve"/>
      <point x="43" y="-140" type="line"/>
      <point x="35" y="-168"/>
      <point x="0" y="-196"/>
    </contour>
  </outline>
</glyph>
<glyph name="u0326" format="2">
  <unicode hex="0326"/>
  <outline>
    <contour>
      <point x="-47" y="-269" type="qcurve"/>
      <point x="-125" y="-269" type="line"/>
      <point x="-74" y="-231"/>
      <point x="-49" y="-175" type="qcurve"/>
      <point x="-86" y="-167"/>
      <point x="-86" y="-132" type="qcurve" smooth="yes"/>
      <point x="-86" y="-113"/>
      <point x="-79" y="-96" type="qcurve"/>
      <point x="-62" y="-47"/>
      <point x="-11" y="-47" type="qcurve" smooth="yes"/>
      <point x="41" y="-47"/>
      <point x="47" y="-86" type="qcurve"/>
      <point x="47" y="-111"/>
      <point x="42" y="-131" type="qcurve" smooth="yes"/>
      <point x="18" y="-219"/>
    </contour>
  </outline>
</glyph>
<glyph name="u0327" format="2">
  <unicode hex="0327"/>
  <outline>
    <contour>
      <point x="-21" y="-211" type="qcurve" smooth="yes"/>
      <point x="-63" y="-211"/>
      <point x="-117" y="-185"/>
      <point x="-130" y="-167" type="qcurve"/>
      <point x="-80" y="-117" type="line"/>
      <point x="-62" y="-144"/>
      <point x="-22" y="-144" type="qcurve"/>
      <point x="2" y="-143"/>
      <point x="28" y="-129"/>
      <point x="28" y="-112" type="qcurve" smooth="yes"/>
      <point x="28" y="-93"/>
      <point x="-15" y="-77"/>
      <point x="-59" y="-74" type="qcurve"/>
      <point x="-18" y="28" type="line"/>
      <point x="45" y="28" type="line"/>
      <point x="12" y="-56" type="line"/>
      <point x="14" y="-60" type="line"/>
      <point x="34" y="-54"/>
      <point x="55" y="-54" type="qcurve" smooth="yes"/>
      <point x="79" y="-54"/>
      <point x="117" y="-79"/>
      <point x="117" y="-110" type="qcurve" smooth="yes"/>
      <point x="117" y="-161"/>
      <point x="35" y="-211"/>
    </contour>
  </outline>
</glyph>
<glyph name="tonos" format="2">
  <advance width="589"/>
  <unicode hex="0384"/>
  <outline>
    <contour>
      <point x="396" y="580" type="line"/>
      <point x="316" y="605" type="line"/>
      <point x="386" y="806" type="line"/>
      <point x="499" y="778" type="line"/>
    </contour>
  </outline>
</glyph>
<glyph name="Epsilontonos" format="2">
  <advance width="651"/>
  <unicode hex="0388"/>
  <outline>
    <contour>
      <point x="131" y="580" type="line"/>
      <point x="51" y="605" type="line"/>
      <point x="121" y="806" type="line"/>
      <point x="234" y="778" type="line"/>
    </contour>
    <contour>
      <point x="102" y="0" type="line"/>
      <point x="242" y="698" type="line"/>
      <point x="682" y="698" type="line"/>
      <point x="658" y="584" type="line"/>
      <point x="349" y="584" type="line"/>
      <point x="314" y="410" type="line"/>
      <point x="589" y="410" type="line"/>
      <point x="566" y="296" type="line"/>
      <point x="291" y="296" type="line"/>
      <point x="254" y="114" type="line"/>
      <point x="576" y="114" type="line"/>
      <point x="553" y="0" type="line"/>
    </contour>
  </outline>
</glyph>
<glyph name="Omegatonos" format="2">
  <advance width="740"/>
  <unicode hex="038F"/>
  <outline>
    <contour>
      <point x="64" y="114" type="line"/>
      <point x="221" y="114" type="line"/>
      <point x="223" y="124" type="line"/>
      <point x="181" y="150"/>
      <point x="132" y="242"/>
      <point x="126" y="301" type="qcurve"/>
      <point x="124" y="315"/>
      <point x="123" y="334"/>
      <point x="123" y="339" type="qcurve" smooth="yes"/>
      <point x="123" y="349"/>
      <point x="124" y="360" type="qcurve"/>
      <point x="126" y="430"/>
      <point x="176" y="557"/>
      <point x="266" y="653"/>
      <point x="391" y="710"/>
      <point x="468" y="710" type="qcurve" smooth="yes"/>
      <point x="523" y="710"/>
      <point x="616" y="674"/>
      <point x="684" y="607"/>
      <point x="721" y="511"/>
      <point x="721" y="452" type="qcurve" smooth="yes"/>
      <point x="721" y="400"/>
      <point x="696" y="299"/>
      <point x="645" y="212"/>
      <point x="567" y="143"/>
      <point x="514" y="124" type="qcurve"/>
      <point x="511" y="114" type="line"/>
      <point x="667" y="114" type="line"/>
      <point x="644" y="0" type="line"/>
      <point x="392" y="0" type="line"/>
      <point x="428" y="170" type="line"/>
      <point x="473" y="185"/>
      <point x="538" y="249"/>
      <point x="555" y="295" type="qcurve" smooth="yes"/>
      <point x="567" y="330"/>
      <point x="580" y="403"/>
      <point x="586" y="442" type="qcurve"/>
      <point x="588" y="451"/>
      <point x="588" y="459" type="qcurve" smooth="yes"/>
      <point x="588" y="461"/>
      <point x="587" y="474"/>
      <point x="585" y="484" type="qcurve"/>
      <point x="581" y="531"/>
      <point x="515" y="593"/>
      <point x="455" y="593" type="qcurve" smooth="yes"/>
      <point x="416" y="593"/>
      <point x="353" y="566"/>
      <point x="306" y="521"/>
      <point x="276" y="461"/>
      <point x="269" y="427" type="qcurve"/>
      <point x="256" y="353" type="line"/>
      <point x="253" y="339"/>
      <point x="250" y="316"/>
      <point x="250" y="302" type="qcurve" smooth="yes"/>
      <point x="250" y="258"/>
      <point x="291" y="184"/>
      <point x="328" y="170" type="qcurve"/>
      <point x="292" y="0" type="line"/>
      <point x="41" y="0" type="line"/>
    </contour>
    <contour>
      <point x="131" y="580" type="line"/>
      <point x="51" y="605" type="line"/>
      <point x="121" y="806" type="line"/>
      <point x="234" y="778" type="line"/>
    </contour>
  </outline>
</glyph>
<glyph name="Beta" format="2">
  <advance width="646"/>
  <unicode hex="0392"/>
  <outline>
    <contour>
      <point x="165" y="698" type="line"/>
      <point x="421" y="698" type="line" smooth="yes"/>
      <point x="465" y="698"/>
      <point x="540" y="684"/>
      <point x="594" y="651"/>
      <point x="625" y="595"/>
      <point x="625" y="553" type="qcurve" smooth="yes"/>
      <point x="625" y="487"/>
      <point x="557" y="381"/>
      <point x="488" y="363" type="qcurve"/>
      <point x="488" y="361"/>
      <point x="487" y="360"/>
      <point x="487" y="358" type="qcurve"/>
      <point x="539" y="344"/>
      <point x="590" y="276"/>
      <point x="590" y="226" type="qcurve" smooth="yes"/>
      <point x="590" y="176"/>
      <point x="558" y="93"/>
      <point x="497" y="33"/>
      <point x="409" y="0"/>
      <point x="352" y="0" type="qcurve" smooth="yes"/>
      <point x="25" y="0" type="line"/>
    </contour>
    <contour>
      <point x="384" y="406" type="line" smooth="yes"/>
      <point x="424" y="406"/>
      <point x="473" y="437"/>
      <point x="481" y="477" type="qcurve"/>
      <point x="486" y="507" type="line"/>
      <point x="490" y="524"/>
      <point x="490" y="532" type="qcurve" smooth="yes"/>
      <point x="490" y="587"/>
      <point x="427" y="587" type="qcurve" smooth="yes"/>
      <point x="272" y="587" type="line"/>
      <point x="236" y="406" type="line"/>
    </contour>
    <contour>
      <point x="352" y="111" type="line" smooth="yes"/>
      <point x="391" y="111"/>
      <point x="440" y="147"/>
      <point x="448" y="188" type="qcurve" smooth="yes"/>
      <point x="453" y="214"/>
      <point x="457" y="237"/>
      <point x="457" y="245" type="qcurve" smooth="yes"/>
      <point x="457" y="299"/>
      <point x="390" y="299" type="qcurve" smooth="yes"/>
      <point x="214" y="299" type="line"/>
      <point x="177" y="111" type="line"/>
    </contour>
  </outline>
</glyph>
<glyph name="Kappa" format="2">
  <advance width="649"/>
  <unicode hex="039A"/>
  <outline>
    <contour>
      <point x="311" y="310" type="line"/>
      <point x="192" y="191" type="line"/>
      <point x="154" y="0" type="line"/>
      <point x="25" y="0" type="line"/>
      <point x="165" y="698" type="line"/>
      <point x="294" y="698" type="line"/>
      <point x="226" y="358" type="line"/>
      <point x="233" y="358" type="line"/>
      <point x="345" y="485" type="line"/>
      <point x="548" y="698" type="line"/>
      <point x="706" y="698" type="line"/>
      <point x="412" y="397" type="line"/>
      <point x="583" y="0" type="line"/>
      <point x="441" y="0" type="line"/>
    </contour>
  </outline>
</glyph>
<glyph name="Omicron" format="2">
  <advance width="692"/>
  <unicode hex="039F"/>
  <outline>
    <contour>
      <point x="379" y="103" type="qcurve" smooth="yes"/>
      <point x="455" y="103"/>
      <point x="552" y="204"/>
      <point x="571" y="295" type="qcurve" smooth="yes"/>
      <point x="587" y="373" type="line" smooth="yes"/>
      <point x="591" y="395"/>
      <point x="598" y="438"/>
      <point x="598" y="455" type="qcurve" smooth="yes"/>
      <point x="598" y="523"/>
      <point x="533" y="595"/>
      <point x="469" y="595" type="qcurve" smooth="yes"/>
      <point x="392" y="595"/>
      <point x="294" y="492"/>
      <point x="277" y="403" type="qcurve" smooth="yes"/>
      <point x="261" y="325" type="line" smooth="yes"/>
      <point x="257" y="304"/>
      <point x="251" y="263"/>
      <point x="251" y="243" type="qcurve" smooth="yes"/>
      <point x="251" y="176"/>
      <point x="314" y="103"/>
    </contour>
    <contour>
      <point x="369" y="-12" type="qcurve" smooth="yes"/>
      <point x="320" y="-12"/>
      <point x="230" y="20"/>
      <point x="161" y="89"/>
      <point x="120" y="194"/>
      <point x="120" y="268" type="qcurve" smooth="yes"/>
      <point x="120" y="354"/>
      <point x="171" y="514"/>
      <point x="264" y="637"/>
      <point x="397" y="710"/>
      <point x="479" y="710" type="qcurve" smooth="yes"/>
      <point x="528" y="710"/>
      <point x="618" y="677"/>
      <point x="687" y="608"/>
      <point x="728" y="503"/>
      <point x="728" y="430" type="qcurve" smooth="yes"/>
      <point x="728" y="343"/>
      <point x="677" y="184"/>
      <point x="584" y="61"/>
      <point x="451" y="-12"/>
    </contour>
  </outline>
</glyph>
<glyph name="Pi" format="2">
  <advance width="682"/>
  <unicode hex="03A0"/>
  <outline>
    <contour>
      <point x="165" y="698" type="line"/>
      <point x="688" y="698" type="line"/>
      <point x="548" y="0" type="line"/>
      <point x="419" y="0" type="line"/>
      <point x="536" y="583" type="line"/>
      <point x="271" y="583" type="line"/>
      <point x="154" y="0" type="line"/>
      <point x="25" y="0" type="line"/>
    </contour>
  </outline>
</glyph>
<glyph name="etatonos" format="2">
  <advance width="590"/>
  <unicode hex="03AE"/>
  <outline>
    <contour>
      <point x="30" y="0" type="line"/>
      <point x="115" y="422" type="line"/>
      <point x="52" y="422" type="line"/>
      <point x="72" y="523" type="line"/>
      <point x="136" y="523" type="line" smooth="yes"/>
      <point x="154" y="523"/>
      <point x="192" y="518"/>
      <point x="223" y="503"/>
      <point x="242" y="473"/>
      <point x="242" y="449" type="qcurve" smooth="yes"/>
      <point x="242" y="441"/>
      <point x="240" y="424"/>
      <point x="239" y="419" type="qcurve"/>
      <point x="236" y="406" type="line"/>
      <point x="242" y="406" type="line"/>
      <point x="271" y="466"/>
      <point x="349" y="535"/>
      <point x="412" y="535" type="qcurve" smooth="yes"/>
      <point x="475" y="535"/>
      <point x="539" y="462"/>
      <point x="539" y="397" type="qcurve" smooth="yes"/>
      <point x="539" y="378"/>
      <point x="537" y="361" type="qcurve"/>
      <point x="536" y="348"/>
      <point x="533" y="334" type="qcurve" smooth="yes"/>
      <point x="426" y="-200" type="line"/>
      <point x="302" y="-200" type="line"/>
      <point x="395" y="268" type="line" smooth="yes"/>
      <point x="400" y="293"/>
      <point x="411" y="344"/>
      <point x="411" y="369" type="qcurve" smooth="yes"/>
      <point x="411" y="396"/>
      <point x="384" y="429"/>
      <point x="351" y="429" type="qcurve" smooth="yes"/>
      <point x="322" y="429"/>
      <point x="274" y="398"/>
      <point x="237" y="351"/>
      <point x="213" y="297"/>
      <point x="209" y="274" type="qcurve" smooth="yes"/>
      <point x="154" y="0" type="line"/>
    </contour>
    <contour>
      <point x="398" y="580" type="line"/>
      <point x="318" y="605" type="line"/>
      <point x="388" y="806" type="line"/>
      <point x="501" y="778" type="line"/>
    </contour>
  </outline>
</glyph>
<glyph name="upsilondieresistonos" format="2">
  <advance width="559"/>
  <unicode hex="03B0"/>
  <outline>
    <contour>
      <point x="355" y="580" type="line"/>
      <point x="299" y="599" type="line"/>
      <point x="367" y="807" type="line"/>
      <point x="454" y="782" type="line"/>
    </contour>
    <contour>
      <point x="221" y="608" type="qcurve" smooth="yes"/>
      <point x="197" y="608"/>
      <point x="171" y="631"/>
      <point x="171" y="651" type="qcurve" smooth="yes"/>
      <point x="171" y="665"/>
      <point x="177" y="696"/>
      <point x="194" y="723"/>
      <point x="221" y="740"/>
      <point x="242" y="740" type="qcurve" smooth="yes"/>
      <point x="267" y="740"/>
      <point x="292" y="716"/>
      <point x="292" y="697" type="qcurve" smooth="yes"/>
      <point x="292" y="686"/>
      <point x="286" y="656"/>
      <point x="271" y="628"/>
      <point x="243" y="608"/>
    </contour>
    <contour>
      <point x="489" y="608" type="qcurve" smooth="yes"/>
      <point x="464" y="608"/>
      <point x="439" y="631"/>
      <point x="439" y="651" type="qcurve" smooth="yes"/>
      <point x="439" y="665"/>
      <point x="445" y="696"/>
      <point x="462" y="723"/>
      <point x="489" y="740"/>
      <point x="510" y="740" type="qcurve" smooth="yes"/>
      <point x="535" y="740"/>
      <point x="560" y="716"/>
      <point x="560" y="697" type="qcurve" smooth="yes"/>
      <point x="560" y="686"/>
      <point x="554" y="656"/>
      <point x="539" y="628"/>
      <point x="511" y="608"/>
    </contour>
    <contour>
      <point x="183" y="241" type="line" smooth="yes"/>
      <point x="178" y="215"/>
      <point x="173" y="183"/>
      <point x="173" y="168" type="qcurve" smooth="yes"/>
      <point x="173" y="90"/>
      <point x="249" y="90" type="qcurve" smooth="yes"/>
      <point x="275" y="90"/>
      <point x="313" y="107"/>
      <point x="341" y="150"/>
      <point x="364" y="225"/>
      <point x="375" y="283" type="qcurve" smooth="yes"/>
      <point x="423" y="523" type="line"/>
      <point x="548" y="523" type="line"/>
      <point x="492" y="250" type="line" smooth="yes"/>
      <point x="466" y="118"/>
      <point x="349" y="-12"/>
      <point x="243" y="-12" type="qcurve" smooth="yes"/>
      <point x="198" y="-12"/>
      <point x="128" y="15"/>
      <point x="78" y="62"/>
      <point x="52" y="126"/>
      <point x="52" y="164" type="qcurve" smooth="yes"/>
      <point x="52" y="184"/>
      <point x="56" y="225"/>
      <point x="61" y="251" type="qcurve" smooth="yes"/>
      <point x="115" y="523" type="line"/>
      <point x="239" y="523" type="line"/>
    </contour>
  </outline>
</glyph>
<glyph name="alpha" format="2">
  <advance width="643"/>
  <unicode hex="03B1"/>
  <outline>
    <contour>
      <point x="567" y="0" type="line"/>
      <point x="518" y="0" type="line" smooth="yes"/>
      <point x="467" y="0"/>
      <point x="410" y="38"/>
      <point x="410" y="93" type="qcurve" smooth="yes"/>
      <point x="411" y="157" type="line"/>
      <point x="407" y="157" type="line"/>
      <point x="383" y="109"/>
      <point x="335" y="44"/>
      <point x="284" y="5"/>
      <point x="228" y="-12"/>
      <point x="197" y="-12" type="qcurve" smooth="yes"/>
      <point x="119" y="-12"/>
      <point x="36" y="81"/>
      <point x="36" y="174" type="qcurve" smooth="yes"/>
      <point x="36" y="251"/>
      <point x="71" y="383"/>
      <point x="136" y="480"/>
      <point x="228" y="535"/>
      <point x="284" y="535" type="qcurve" smooth="yes"/>
      <point x="361" y="535"/>
      <point x="436" y="454"/>
      <point x="443" y="366" type="qcurve"/>
      <point x="447" y="366" type="line"/>
      <point x="485" y="447" type="line"/>
      <point x="524" y="523" type="line"/>
      <point x="662" y="523" type="line"/>
      <point x="498" y="264" type="line"/>
      <point x="528" y="101" type="line"/>
      <point x="587" y="101" type="line"/>
    </contour>
    <contour>
      <point x="223" y="92" type="qcurve" smooth="yes"/>
      <point x="251" y="92"/>
      <point x="298" y="140"/>
      <point x="327" y="191" type="qcurve" smooth="yes"/>
      <point x="368" y="262" type="line"/>
      <point x="357" y="331" type="line" smooth="yes"/>
      <point x="349" y="383"/>
      <point x="318" y="431"/>
      <point x="289" y="431" type="qcurve" smooth="yes"/>
      <point x="254" y="431"/>
      <point x="197" y="370"/>
      <point x="183" y="304" type="qcurve" smooth="yes"/>
      <point x="170" y="242" type="line" smooth="yes"/>
      <point x="164" y="215"/>
      <point x="164" y="194" type="qcurve"/>
      <point x="164" y="194"/>
      <point x="164" y="194" type="qcurve"/>
      <point x="164" y="194"/>
      <point x="164" y="194" type="qcurve"/>
      <point x="164" y="194"/>
      <point x="164" y="194" type="qcurve"/>
      <point x="164" y="194"/>
      <point x="164" y="194" type="qcurve"/>
      <point x="164" y="194"/>
      <point x="164" y="194" type="qcurve"/>
      <point x="164" y="193" type="line"/>
      <point x="164" y="193"/>
      <point x="164" y="193" type="qcurve"/>
      <point x="164" y="193"/>
      <point x="164" y="193" type="qcurve"/>
      <point x="164" y="193"/>
      <point x="164" y="193" type="qcurve"/>
      <point x="164" y="193"/>
      <point x="164" y="193" type="qcurve"/>
      <point x="164" y="192"/>
      <point x="164" y="192" type="qcurve"/>
      <point x="164" y="192"/>
      <point x="164" y="192" type="qcurve"/>
      <point x="164" y="192"/>
      <point x="164" y="192" type="qcurve"/>
      <point x="164" y="191" type="line"/>
      <point x="164" y="191"/>
      <point x="164" y="191" type="qcurve"/>
      <point x="164" y="191"/>
      <point x="164" y="191" type="qcurve"/>
      <point x="164" y="191"/>
      <point x="164" y="191" type="qcurve"/>
      <point x="164" y="191"/>
      <point x="164" y="191" type="qcurve"/>
      <point x="164" y="191"/>
      <point x="164" y="191" type="qcurve"/>
      <point x="164" y="190" type="line"/>
      <point x="164" y="190"/>
      <point x="164" y="190" type="qcurve"/>
      <point x="164" y="190"/>
      <point x="164" y="190" type="qcurve"/>
      <point x="164" y="190"/>
      <point x="164" y="190" type="qcurve"/>
      <point x="164" y="190"/>
      <point x="164" y="189" type="qcurve"/>
      <point x="164" y="189"/>
      <point x="164" y="189" type="qcurve"/>
      <point x="164" y="189"/>
      <point x="164" y="189" type="qcurve"/>
      <point x="164" y="188" type="line"/>
      <point x="164" y="188"/>
      <point x="164" y="188" type="qcurve"/>
      <point x="164" y="187" type="line"/>
      <point x="164" y="187"/>
      <point x="164" y="187" type="qcurve"/>
      <point x="164" y="187"/>
      <point x="164" y="187" type="qcurve"/>
      <point x="164" y="187"/>
      <point x="164" y="187" type="qcurve"/>
      <point x="164" y="186"/>
      <point x="164" y="186" type="qcurve"/>
      <point x="164" y="186"/>
      <point x="164" y="186" type="qcurve"/>
      <point x="164" y="186"/>
      <point x="164" y="186" type="qcurve"/>
      <point x="164" y="180" type="line"/>
      <point x="164" y="180"/>
      <point x="164" y="180" type="qcurve"/>
      <point x="164" y="180"/>
      <point x="164" y="180" type="qcurve"/>
      <point x="164" y="180"/>
      <point x="164" y="180" type="qcurve"/>
      <point x="164" y="179"/>
      <point x="164" y="179" type="qcurve"/>
      <point x="164" y="179"/>
      <point x="164" y="179" type="qcurve"/>
      <point x="164" y="179"/>
      <point x="164" y="179" type="qcurve"/>
      <point x="164" y="178" type="line"/>
      <point x="164" y="178"/>
      <point x="164" y="178" type="qcurve"/>
      <point x="164" y="178"/>
      <point x="164" y="178" type="qcurve"/>
      <point x="164" y="178"/>
      <point x="164" y="178" type="qcurve"/>
      <point x="164" y="178"/>
      <point x="164" y="178" type="qcurve"/>
      <point x="164" y="178"/>
      <point x="164" y="178" type="qcurve"/>
      <point x="164" y="177" type="line"/>
      <point x="164" y="177"/>
      <point x="164" y="177" type="qcurve"/>
      <point x="164" y="177"/>
      <point x="164" y="177" type="qcurve"/>
      <point x="164" y="177"/>
      <point x="164" y="177" type="qcurve"/>
      <point x="164" y="177"/>
      <point x="164" y="177" type="qcurve"/>
      <point x="164" y="176"/>
      <point x="164" y="176" type="qcurve"/>
      <point x="164" y="176"/>
      <point x="164" y="176" type="qcurve"/>
      <point x="164" y="176"/>
      <point x="164" y="176" type="qcurve"/>
      <point x="164" y="175" type="line"/>
      <point x="164" y="175"/>
      <point x="164" y="175" type="qcurve"/>
      <point x="164" y="175"/>
      <point x="164" y="175" type="qcurve"/>
      <point x="164" y="175"/>
      <point x="164" y="175" type="qcurve"/>
      <point x="164" y="175"/>
      <point x="164" y="175" type="qcurve"/>
      <point x="164" y="175"/>
      <point x="164" y="175" type="qcurve"/>
      <point x="164" y="174" type="line"/>
      <point x="164" y="174"/>
      <point x="164" y="174" type="qcurve"/>
      <point x="164" y="174"/>
      <point x="164" y="174" type="qcurve"/>
      <point x="164" y="174"/>
      <point x="164" y="174" type="qcurve"/>
      <point x="164" y="174"/>
      <point x="164" y="173" type="qcurve"/>
      <point x="164" y="173"/>
      <point x="164" y="173" type="qcurve"/>
      <point x="164" y="173"/>
      <point x="164" y="173" type="qcurve"/>
      <point x="164" y="172" type="line"/>
      <point x="164" y="172"/>
      <point x="164" y="172" type="qcurve"/>
      <point x="164" y="171" type="line"/>
      <point x="164" y="171"/>
      <point x="164" y="171" type="qcurve"/>
      <point x="164" y="171"/>
      <point x="164" y="171" type="qcurve"/>
      <point x="164" y="171"/>
      <point x="164" y="171" type="qcurve"/>
      <point x="164" y="170"/>
      <point x="164" y="170" type="qcurve"/>
      <point x="164" y="170"/>
      <point x="164" y="170" type="qcurve"/>
      <point x="164" y="170"/>
      <point x="164" y="170" type="qcurve"/>
      <point x="164" y="164" type="line"/>
      <point x="164" y="164"/>
      <point x="164" y="164" type="qcurve"/>
      <point x="164" y="164"/>
      <point x="164" y="164" type="qcurve"/>
      <point x="164" y="164"/>
      <point x="164" y="164" type="qcurve"/>
      <point x="164" y="163"/>
      <point x="164" y="163" type="qcurve"/>
      <point x="164" y="163"/>
      <point x="164" y="163" type="qcurve"/>
      <point x="164" y="163"/>
      <point x="164" y="163" type="qcurve"/>
      <point x="164" y="162" type="line"/>
      <point x="167" y="92"/>
    </contour>
  </outline>
</glyph>
<glyph name="beta" format="2">
  <advance width="573"/>
  <unicode hex="03B2"/>
  <outline>
    <contour>
      <point x="292" y="435" type="line"/>
      <point x="321" y="435" type="line" smooth="yes"/>
      <point x="346" y="435"/>
      <point x="384" y="447"/>
      <point x="413" y="475"/>
      <point x="431" y="523"/>
      <point x="436" y="558" type="qcurve" smooth="yes"/>
      <point x="437" y="565"/>
      <point x="438" y="577"/>
      <point x="438" y="583" type="qcurve" smooth="yes"/>
      <point x="438" y="614"/>
      <point x="403" y="650"/>
      <point x="368" y="650" type="qcurve" smooth="yes"/>
      <point x="326" y="650"/>
      <point x="261" y="589"/>
      <point x="247" y="514" type="qcurve" smooth="yes"/>
      <point x="185" y="210" type="line"/>
      <point x="183" y="196"/>
      <point x="179" y="173"/>
      <point x="179" y="166" type="qcurve" smooth="yes"/>
      <point x="179" y="160"/>
      <point x="180" y="155" type="qcurve"/>
      <point x="183" y="124"/>
      <point x="230" y="90"/>
      <point x="274" y="90" type="qcurve" smooth="yes"/>
      <point x="334" y="90"/>
      <point x="404" y="163"/>
      <point x="404" y="248" type="qcurve" smooth="yes"/>
      <point x="404" y="266" type="line"/>
      <point x="400" y="300"/>
      <point x="357" y="334"/>
      <point x="314" y="334" type="qcurve" smooth="yes"/>
      <point x="272" y="334" type="line"/>
    </contour>
    <contour>
      <point x="121" y="509" type="line" smooth="yes"/>
      <point x="146" y="631"/>
      <point x="282" y="752"/>
      <point x="379" y="752" type="qcurve" smooth="yes"/>
      <point x="469" y="752"/>
      <point x="562" y="662"/>
      <point x="562" y="580" type="qcurve" smooth="yes"/>
      <point x="562" y="502"/>
      <point x="481" y="408"/>
      <point x="412" y="389" type="qcurve"/>
      <point x="412" y="387"/>
      <point x="411" y="386"/>
      <point x="411" y="384" type="qcurve"/>
      <point x="468" y="371"/>
      <point x="528" y="298"/>
      <point x="528" y="230" type="qcurve" smooth="yes"/>
      <point x="528" y="183"/>
      <point x="495" y="97"/>
      <point x="438" y="31"/>
      <point x="361" y="-9"/>
      <point x="316" y="-11" type="qcurve"/>
      <point x="306" y="-11" type="line" smooth="yes"/>
      <point x="292" y="-11"/>
      <point x="275" y="-9" type="qcurve" smooth="yes"/>
      <point x="231" y="-3"/>
      <point x="172" y="47"/>
      <point x="165" y="89" type="qcurve"/>
      <point x="161" y="89" type="line"/>
      <point x="103" y="-200" type="line"/>
      <point x="-21" y="-200" type="line"/>
    </contour>
  </outline>
</glyph>
<glyph name="gamma" format="2">
  <advance width="530"/>
  <unicode hex="03B3"/>
  <outline>
    <contour>
      <point x="157" y="0" type="line"/>
      <point x="99" y="422" type="line"/>
      <point x="41" y="422" type="line"/>
      <point x="61" y="523" type="line"/>
      <point x="101" y="523" type="line" smooth="yes"/>
      <point x="125" y="523"/>
      <point x="165" y="518"/>
      <point x="195" y="503"/>
      <point x="213" y="474"/>
      <point x="216" y="450" type="qcurve" smooth="yes"/>
      <point x="232" y="294" type="line"/>
      <point x="243" y="132" type="line"/>
      <point x="250" y="132" type="line"/>
      <point x="304" y="219"/>
      <point x="392" y="417"/>
      <point x="423" y="523" type="qcurve"/>
      <point x="555" y="523" type="line"/>
      <point x="517" y="398"/>
      <point x="380" y="131"/>
      <point x="281" y="0" type="qcurve"/>
      <point x="241" y="-200" type="line"/>
      <point x="117" y="-200" type="line"/>
    </contour>
  </outline>
</glyph>
<glyph name="mugreek" format="2">
  <advance width="583"/>
  <unicode hex="03BC"/>
  <outline>
    <contour>
      <point x="-61" y="-200" type="line"/>
      <point x="84" y="523" type="line"/>
      <point x="208" y="523" type="line"/>
      <point x="146" y="211" type="line" smooth="yes"/>
      <point x="143" y="197"/>
      <point x="139" y="167"/>
      <point x="139" y="156" type="qcurve" smooth="yes"/>
      <point x="139" y="126"/>
      <point x="165" y="93"/>
      <point x="195" y="93" type="qcurve" smooth="yes"/>
      <point x="223" y="93"/>
      <point x="271" y="124"/>
      <point x="307" y="170"/>
      <point x="330" y="224"/>
      <point x="335" y="248" type="qcurve" smooth="yes"/>
      <point x="390" y="523" type="line"/>
      <point x="514" y="523" type="line"/>
      <point x="429" y="101" type="line"/>
      <point x="492" y="101" type="line"/>
      <point x="472" y="0" type="line"/>
      <point x="408" y="0" type="line" smooth="yes"/>
      <point x="387" y="0"/>
      <point x="349" y="6"/>
      <point x="320" y="22"/>
      <point x="302" y="50"/>
      <point x="302" y="73" type="qcurve" smooth="yes"/>
      <point x="302" y="81"/>
      <point x="304" y="98"/>
      <point x="305" y="103" type="qcurve" smooth="yes"/>
      <point x="308" y="117" type="line"/>
      <point x="302" y="117" type="line"/>
      <point x="270" y="46"/>
      <point x="208" y="-12"/>
      <point x="162" y="-12" type="qcurve" smooth="yes"/>
      <point x="129" y="-12"/>
      <point x="95" y="23"/>
      <point x="88" y="58" type="qcurve"/>
      <point x="83" y="58" type="line"/>
      <point x="84" y="21"/>
      <point x="86" y="-35"/>
      <point x="86" y="-53" type="qcurve" smooth="yes"/>
      <point x="86" y="-72"/>
      <point x="85" y="-90" type="qcurve"/>
      <point x="64" y="-200" type="line"/>
    </contour>
  </outline>
</glyph>
<glyph name="nu" format="2">
  <advance width="536"/>
  <unicode hex="03BD"/>
  <outline>
    <contour>
      <point x="142" y="0" type="line"/>
      <point x="99" y="422" type="line"/>
      <point x="41" y="422" type="line"/>
      <point x="61" y="523" type="line"/>
      <point x="131" y="523" type="line" smooth="yes"/>
      <point x="169" y="523"/>
      <point x="213" y="485"/>
      <point x="216" y="450" type="qcurve" smooth="yes"/>
      <point x="227" y="310" type="line"/>
      <point x="235" y="113" type="line"/>
      <point x="242" y="113" type="line"/>
      <point x="307" y="220"/>
      <point x="398" y="416"/>
      <point x="429" y="523" type="qcurve"/>
      <point x="561" y="523" type="line"/>
      <point x="523" y="398"/>
      <point x="389" y="136"/>
      <point x="290" y="0" type="qcurve"/>
    </contour>
  </outline>
</glyph>
<glyph name="xi" format="2">
  <advance width="429"/>
  <unicode hex="03BE"/>
  <outline>
    <contour>
      <point x="375" y="639" type="line" smooth="yes"/>
      <point x="320" y="639"/>
      <point x="249" y="572"/>
      <point x="249" y="506" type="qcurve" smooth="yes"/>
      <point x="249" y="500"/>
      <point x="250" y="489"/>
      <point x="250" y="484" type="qcurve"/>
      <point x="259" y="428"/>
      <point x="328" y="428" type="qcurve" smooth="yes"/>
      <point x="389" y="428" type="line"/>
      <point x="368" y="328" type="line"/>
      <point x="305" y="328" type="line" smooth="yes"/>
      <point x="233" y="328"/>
      <point x="156" y="273"/>
      <point x="156" y="207" type="qcurve" smooth="yes"/>
      <point x="156" y="206" type="line"/>
      <point x="156" y="206"/>
      <point x="156" y="206" type="qcurve"/>
      <point x="156" y="206"/>
      <point x="156" y="206" type="qcurve"/>
      <point x="156" y="206"/>
      <point x="156" y="206" type="qcurve"/>
      <point x="156" y="206"/>
      <point x="156" y="206" type="qcurve"/>
      <point x="156" y="206"/>
      <point x="156" y="206" type="qcurve"/>
      <point x="156" y="203" type="line" smooth="yes"/>
      <point x="156" y="193"/>
      <point x="160" y="179" type="qcurve" smooth="yes"/>
      <point x="171" y="133"/>
      <point x="247" y="109" type="qcurve" smooth="yes"/>
      <point x="280" y="98" type="line" smooth="yes"/>
      <point x="316" y="85"/>
      <point x="354" y="47"/>
      <point x="354" y="13" type="qcurve" smooth="yes"/>
      <point x="354" y="-3"/>
      <point x="345" y="-32"/>
      <point x="337" y="-50" type="qcurve"/>
      <point x="278" y="-173" type="line"/>
      <point x="175" y="-132" type="line"/>
      <point x="232" y="-12" type="line"/>
      <point x="200" y="-2" type="line" smooth="yes"/>
      <point x="114" y="27"/>
      <point x="32" y="120"/>
      <point x="32" y="195" type="qcurve" smooth="yes"/>
      <point x="32" y="230"/>
      <point x="56" y="294"/>
      <point x="103" y="343"/>
      <point x="173" y="376"/>
      <point x="219" y="380" type="qcurve"/>
      <point x="219" y="382"/>
      <point x="220" y="383"/>
      <point x="220" y="385" type="qcurve"/>
      <point x="125" y="410"/>
      <point x="125" y="501" type="qcurve" smooth="yes"/>
      <point x="125" y="546"/>
      <point x="176" y="614"/>
      <point x="224" y="631" type="qcurve"/>
      <point x="226" y="639" type="line"/>
      <point x="109" y="639" type="line"/>
      <point x="129" y="740" type="line"/>
      <point x="520" y="740" type="line"/>
      <point x="500" y="639" type="line"/>
    </contour>
  </outline>
</glyph>
<glyph name="phi" format="2">
  <advance width="730"/>
  <unicode hex="03C6"/>
  <outline>
    <contour>
      <point x="243" y="-12" type="line"/>
      <point x="192" y="-12"/>
      <point x="115" y="18"/>
      <point x="62" y="70"/>
      <point x="36" y="140"/>
      <point x="36" y="180" type="qcurve" smooth="yes"/>
      <point x="36" y="236"/>
      <point x="58" y="341"/>
      <point x="105" y="433"/>
      <point x="176" y="508"/>
      <point x="225" y="535" type="qcurve"/>
      <point x="289" y="453" type="line"/>
      <point x="241" y="423"/>
      <point x="191" y="344"/>
      <point x="177" y="283" type="qcurve"/>
      <point x="165" y="222" type="line" smooth="yes"/>
      <point x="161" y="204"/>
      <point x="159" y="182"/>
      <point x="159" y="173" type="qcurve" smooth="yes"/>
      <point x="159" y="131"/>
      <point x="207" y="88"/>
      <point x="263" y="88" type="qcurve"/>
      <point x="301" y="282" type="line" smooth="yes"/>
      <point x="314" y="347"/>
      <point x="352" y="442"/>
      <point x="408" y="505"/>
      <point x="484" y="535"/>
      <point x="535" y="535" type="qcurve" smooth="yes"/>
      <point x="612" y="535"/>
      <point x="694" y="443"/>
      <point x="694" y="360" type="qcurve" smooth="yes"/>
      <point x="694" y="274"/>
      <point x="651" y="136"/>
      <point x="568" y="40"/>
      <point x="445" y="-12"/>
      <point x="365" y="-12" type="qcurve"/>
      <point x="327" y="-200" type="line"/>
      <point x="205" y="-200" type="line"/>
    </contour>
    <contour>
      <point x="385" y="88" type="line"/>
      <point x="450" y="88"/>
      <point x="533" y="157"/>
      <point x="549" y="235" type="qcurve" smooth="yes"/>
      <point x="552" y="248"/>
      <point x="557" y="275"/>
      <point x="559" y="288" type="qcurve" smooth="yes"/>
      <point x="568" y="335" type="line" smooth="yes"/>
      <point x="572" y="355"/>
      <point x="572" y="377" type="qcurve" smooth="yes"/>
      <point x="572" y="434"/>
      <point x="518" y="434" type="qcurve" smooth="yes"/>
      <point x="487" y="434"/>
      <point x="445" y="388"/>
      <point x="433" y="329" type="qcurve" smooth="yes"/>
    </contour>
  </outline>
</glyph>
<glyph name="upsilondieresis" format="2">
  <advance width="559"/>
  <unicode hex="03CB"/>
  <outline>
    <contour>
      <point x="251" y="604" type="qcurve" smooth="yes"/>
      <point x="220" y="604"/>
      <point x="192" y="629"/>
      <point x="192" y="649" type="qcurve" smooth="yes"/>
      <point x="192" y="661"/>
      <point x="198" y="693"/>
      <point x="215" y="722"/>
      <point x="248" y="743"/>
      <point x="275" y="743" type="qcurve" smooth="yes"/>
      <point x="306" y="743"/>
      <point x="334" y="719"/>
      <point x="334" y="699" type="qcurve" smooth="yes"/>
      <point x="334" y="689"/>
      <point x="329" y="657"/>
      <point x="312" y="626"/>
      <point x="279" y="604"/>
    </contour>
    <contour>
      <point x="447" y="604" type="qcurve" smooth="yes"/>
      <point x="415" y="604"/>
      <point x="388" y="629"/>
      <point x="388" y="649" type="qcurve" smooth="yes"/>
      <point x="388" y="661"/>
      <point x="393" y="693"/>
      <point x="411" y="722"/>
      <point x="444" y="743"/>
      <point x="471" y="743" type="qcurve" smooth="yes"/>
      <point x="501" y="743"/>
      <point x="530" y="719"/>
      <point x="530" y="699" type="qcurve" smooth="yes"/>
      <point x="530" y="689"/>
      <point x="525" y="657"/>
      <point x="507" y="626"/>
      <point x="474" y="604"/>
    </contour>
    <contour>
      <point x="183" y="241" type="line" smooth="yes"/>
      <point x="178" y="215"/>
      <point x="173" y="183"/>
      <point x="173" y="168" type="qcurve" smooth="yes"/>
      <point x="173" y="90"/>
      <point x="249" y="90" type="qcurve" smooth="yes"/>
      <point x="275" y="90"/>
      <point x="313" y="107"/>
      <point x="341" y="150"/>
      <point x="364" y="225"/>
      <point x="375" y="283" type="qcurve" smooth="yes"/>
      <point x="423" y="523" type="line"/>
      <point x="548" y="523" type="line"/>
      <point x="492" y="250" type="line" smooth="yes"/>
      <point x="466" y="118"/>
      <point x="349" y="-12"/>
      <point x="243" y="-12" type="qcurve" smooth="yes"/>
      <point x="198" y="-12"/>
      <point x="128" y="15"/>
      <point x="78" y="62"/>
      <point x="52" y="126"/>
      <point x="52" y="164" type="qcurve" smooth="yes"/>
      <point x="52" y="184"/>
      <point x="56" y="225"/>
      <point x="61" y="251" type="qcurve" smooth="yes"/>
      <point x="115" y="523" type="line"/>
      <point x="239" y="523" type="line"/>
    </contour>
  </outline>
</glyph>
<glyph name="upsilontonos" format="2">
  <advance width="559"/>
  <unicode hex="03CD"/>
  <outline>
    <contour>
      <point x="376" y="580" type="line"/>
      <point x="296" y="605" type="line"/>
      <point x="366" y="806" type="line"/>
      <point x="479" y="778" type="line"/>
    </contour>
    <contour>
      <point x="183" y="241" type="line" smooth="yes"/>
      <point x="178" y="215"/>
      <point x="173" y="183"/>
      <point x="173" y="168" type="qcurve" smooth="yes"/>
      <point x="173" y="90"/>
      <point x="249" y="90" type="qcurve" smooth="yes"/>
      <point x="275" y="90"/>
      <point x="313" y="107"/>
      <point x="341" y="150"/>
      <point x="364" y="225"/>
      <point x="375" y="283" type="qcurve" smooth="yes"/>
      <point x="423" y="523" type="line"/>
      <point x="548" y="523" type="line"/>
      <point x="492" y="250" type="line" smooth="yes"/>
      <point x="466" y="118"/>
      <point x="349" y="-12"/>
      <point x="243" y="-12" type="qcurve" smooth="yes"/>
      <point x="198" y="-12"/>
      <point x="128" y="15"/>
      <point x="78" y="62"/>
      <point x="52" y="126"/>
      <point x="52" y="164" type="qcurve" smooth="yes"/>
      <point x="52" y="184"/>
      <point x="56" y="225"/>
      <point x="61" y="251" type="qcurve" smooth="yes"/>
      <point x="115" y="523" type="line"/>
      <point x="239" y="523" type="line"/>
    </contour>
  </outline>
</glyph>
<glyph name="Gjecyr" format="2">
  <advance width="495"/>
  <unicode hex="0403"/>
  <outline>
    <contour>
      <point x="158" y="0" type="line"/>
      <point x="25" y="0" type="line"/>
      <point x="165" y="698" type="line"/>
      <point x="556" y="698" type="line"/>
      <point x="532" y="581" type="line"/>
      <point x="274" y="581" type="line"/>
    </contour>
    <contour>
      <point x="387" y="742" type="line"/>
      <point x="309" y="784" type="line"/>
      <point x="425" y="971" type="line"/>
      <point x="529" y="915" type="line"/>
    </contour>
  </outline>
</glyph>
<glyph name="afii10055" format="2">
  <advance width="289"/>
  <unicode hex="0406"/>
  <outline>
    <contour>
      <point x="158" y="0" type="line"/>
      <point x="25" y="0" type="line"/>
      <point x="166" y="698" type="line"/>
      <point x="299" y="698" type="line"/>
    </contour>
  </outline>
</glyph>
<glyph name="u040B" format="2">
  <advance width="791"/>
  <unicode hex="040B"/>
  <outline>
    <contour>
      <point x="682" y="0" type="line"/>
      <point x="549" y="0" type="line"/>
      <point x="586" y="177" type="line" smooth="yes"/>
      <point x="594" y="213"/>
      <point x="594" y="241" type="qcurve" smooth="yes"/>
      <point x="594" y="327"/>
      <point x="497" y="327" type="qcurve" smooth="yes"/>
      <point x="412" y="327"/>
      <point x="358" y="306" type="qcurve"/>
      <point x="297" y="0" type="line"/>
      <point x="164" y="0" type="line"/>
      <point x="280" y="581" type="line"/>
      <point x="91" y="581" type="line"/>
      <point x="114" y="698" type="line"/>
      <point x="626" y="698" type="line"/>
      <point x="602" y="581" type="line"/>
      <point x="413" y="581" type="line"/>
      <point x="381" y="417" type="line"/>
      <point x="386" y="417" type="line"/>
      <point x="438" y="445"/>
      <point x="526" y="445" type="qcurve" smooth="yes"/>
      <point x="632" y="445"/>
      <point x="727" y="344"/>
      <point x="727" y="263" type="qcurve" smooth="yes"/>
      <point x="727" y="223"/>
      <point x="716" y="169" type="qcurve" smooth="yes"/>
    </contour>
  </outline>
</glyph>
<glyph name="u040E" format="2">
  <advance width="600"/>
  <unicode hex="040E"/>
  <outline>
    <contour>
      <point x="182" y="0" type="qcurve" smooth="yes"/>
      <point x="71" y="0" type="line"/>
      <point x="95" y="118" type="line"/>
      <point x="205" y="118" type="line"/>
      <point x="231" y="164" type="line"/>
      <point x="101" y="698" type="line"/>
      <point x="235" y="698" type="line"/>
      <point x="297" y="422" type="line"/>
      <point x="319" y="304" type="line"/>
      <point x="326" y="304" type="line"/>
      <point x="399" y="458"/>
      <point x="438" y="529" type="qcurve" smooth="yes"/>
      <point x="532" y="698" type="line"/>
      <point x="673" y="698" type="line"/>
      <point x="323" y="93" type="line"/>
      <point x="277" y="0"/>
    </contour>
    <contour>
      <point x="387" y="745" type="qcurve" smooth="yes"/>
      <point x="279" y="745"/>
      <point x="246" y="850" type="qcurve" smooth="yes"/>
      <point x="230" y="900" type="line"/>
      <point x="336" y="940" type="line"/>
      <point x="353" y="842" type="line"/>
      <point x="371" y="835"/>
      <point x="399" y="835" type="qcurve" smooth="yes"/>
      <point x="428" y="835"/>
      <point x="442" y="842" type="qcurve"/>
      <point x="489" y="940" type="line"/>
      <point x="591" y="898" type="line"/>
      <point x="562" y="850" type="line"/>
      <point x="504" y="745"/>
    </contour>
  </outline>
</glyph>
<glyph name="Dzhecyr" format="2">
  <advance width="682"/>
  <unicode hex="040F"/>
  <outline>
    <contour>
      <point x="320" y="-150" type="line"/>
      <point x="196" y="-150" type="line"/>
      <point x="226" y="0" type="line"/>
      <point x="25" y="0" type="line"/>
      <point x="165" y="698" type="line"/>
      <point x="298" y="698" type="line"/>
      <point x="182" y="118" type="line"/>
      <point x="442" y="118" type="line"/>
      <point x="558" y="698" type="line"/>
      <point x="691" y="698" type="line"/>
      <point x="551" y="0" type="line"/>
      <point x="351" y="0" type="line"/>
    </contour>
  </outline>
</glyph>
<glyph name="Vecyr" format="2">
  <advance width="646"/>
  <unicode hex="0412"/>
  <outline>
    <contour>
      <point x="355" y="114" type="line" smooth="yes"/>
      <point x="434" y="114"/>
      <point x="448" y="188" type="qcurve"/>
      <point x="457" y="245" type="line"/>
      <point x="457" y="278"/>
      <point x="406" y="298"/>
      <point x="370" y="298" type="qcurve" smooth="yes"/>
      <point x="218" y="298" type="line"/>
      <point x="182" y="114" type="line"/>
    </contour>
    <contour>
      <point x="386" y="407" type="line" smooth="yes"/>
      <point x="466" y="407"/>
      <point x="480" y="476" type="qcurve"/>
      <point x="484" y="500" type="line"/>
      <point x="489" y="517"/>
      <point x="489" y="531" type="qcurve" smooth="yes"/>
      <point x="489" y="563"/>
      <point x="447" y="584"/>
      <point x="404" y="584" type="qcurve" smooth="yes"/>
      <point x="276" y="584" type="line"/>
      <point x="240" y="407" type="line"/>
    </contour>
    <contour>
      <point x="355" y="0" type="qcurve" smooth="yes"/>
      <point x="25" y="0" type="line"/>
      <point x="165" y="698" type="line"/>
      <point x="455" y="698" type="line" smooth="yes"/>
      <point x="502" y="698"/>
      <point x="581" y="669"/>
      <point x="628" y="606"/>
      <point x="628" y="554" type="qcurve" smooth="yes"/>
      <point x="628" y="490"/>
      <point x="565" y="386"/>
      <point x="491" y="363" type="qcurve"/>
      <point x="490" y="358" type="line"/>
      <point x="593" y="330"/>
      <point x="593" y="225" type="qcurve" smooth="yes"/>
      <point x="593" y="161"/>
      <point x="542" y="59"/>
      <point x="436" y="0"/>
    </contour>
  </outline>
</glyph>
<glyph name="afii10021" format="2">
  <advance width="772"/>
  <unicode hex="0414"/>
  <outline>
    <contour>
      <point x="667" y="-150" type="line"/>
      <point x="543" y="-150" type="line"/>
      <point x="573" y="0" type="line"/>
      <point x="92" y="0" type="line"/>
      <point x="61" y="-150" type="line"/>
      <point x="-63" y="-150" type="line"/>
      <point x="-10" y="118" type="line"/>
      <point x="72" y="118" type="line"/>
      <point x="106" y="146"/>
      <point x="137" y="209" type="qcurve"/>
      <point x="189" y="328"/>
      <point x="260" y="698" type="qcurve"/>
      <point x="729" y="698" type="line"/>
      <point x="613" y="118" type="line"/>
      <point x="721" y="118" type="line"/>
    </contour>
    <contour>
      <point x="480" y="118" type="line"/>
      <point x="573" y="580" type="line"/>
      <point x="365" y="580" type="line"/>
      <point x="322" y="350"/>
      <point x="258" y="160"/>
      <point x="220" y="122" type="qcurve"/>
      <point x="219" y="118" type="line"/>
    </contour>
  </outline>
</glyph>
<glyph name="afii10022" format="2">
  <advance width="576"/>
  <unicode hex="0415"/>
  <outline>
    <contour>
      <point x="478" y="0" type="line"/>
      <point x="25" y="0" type="line"/>
      <point x="165" y="698" type="line"/>
      <point x="607" y="698" type="line"/>
      <point x="583" y="581" type="line"/>
      <point x="275" y="581" type="line"/>
      <point x="241" y="411" type="line"/>
      <point x="514" y="411" type="line"/>
      <point x="491" y="294" type="line"/>
      <point x="217" y="294" type="line"/>
      <point x="182" y="117" type="line"/>
      <point x="502" y="117" type="line"/>
    </contour>
  </outline>
</glyph>
<glyph name="u041D" format="2">
  <advance width="697"/>
  <unicode hex="041D"/>
  <outline>
    <contour>
      <point x="566" y="0" type="line"/>
      <point x="433" y="0" type="line"/>
      <point x="493" y="294" type="line"/>
      <point x="217" y="294" type="line"/>
      <point x="158" y="0" type="line"/>
      <point x="25" y="0" type="line"/>
      <point x="165" y="698" type="line"/>
      <point x="298" y="698" type="line"/>
      <point x="241" y="411" type="line"/>
      <point x="516" y="411" type="line"/>
      <point x="573" y="698" type="line"/>
      <point x="706" y="698" type="line"/>
    </contour>
  </outline>
</glyph>
<glyph name="afii10034" format="2">
  <advance width="628"/>
  <unicode hex="0420"/>
  <outline>
    <contour>
      <point x="158" y="0" type="line"/>
      <point x="25" y="0" type="line"/>
      <point x="165" y="698" type="line"/>
      <point x="426" y="698" type="line" smooth="yes"/>
      <point x="538" y="698"/>
      <point x="637" y="595"/>
      <point x="637" y="515" type="qcurve" smooth="yes"/>
      <point x="637" y="433"/>
      <point x="562" y="321"/>
      <point x="441" y="263"/>
      <point x="373" y="263" type="qcurve" smooth="yes"/>
      <point x="211" y="263" type="line"/>
    </contour>
    <contour>
      <point x="390" y="380" type="line" smooth="yes"/>
      <point x="430" y="380"/>
      <point x="478" y="429"/>
      <point x="499" y="495"/>
      <point x="499" y="522" type="qcurve" smooth="yes"/>
      <point x="499" y="547"/>
      <point x="467" y="581"/>
      <point x="429" y="581" type="qcurve" smooth="yes"/>
      <point x="274" y="581" type="line"/>
      <point x="235" y="380" type="line"/>
    </contour>
  </outline>
</glyph>
<glyph name="afii10035" format="2">
  <advance width="629"/>
  <unicode hex="0421"/>
  <outline>
    <contour>
      <point x="303" y="-12" type="qcurve" smooth="yes"/>
      <point x="194" y="-12"/>
      <point x="57" y="129"/>
      <point x="57" y="271" type="qcurve" smooth="yes"/>
      <point x="57" y="394"/>
      <point x="148" y="593"/>
      <point x="308" y="710"/>
      <point x="410" y="710" type="qcurve" smooth="yes"/>
      <point x="593" y="710"/>
      <point x="644" y="542" type="qcurve"/>
      <point x="526" y="492" type="line"/>
      <point x="512" y="542"/>
      <point x="453" y="592"/>
      <point x="400" y="592" type="qcurve" smooth="yes"/>
      <point x="321" y="592"/>
      <point x="233" y="489"/>
      <point x="218" y="410" type="qcurve" smooth="yes"/>
      <point x="196" y="299" type="line"/>
      <point x="191" y="268"/>
      <point x="191" y="246" type="qcurve" smooth="yes"/>
      <point x="191" y="106"/>
      <point x="314" y="106" type="qcurve" smooth="yes"/>
      <point x="426" y="106"/>
      <point x="475" y="215" type="qcurve"/>
      <point x="586" y="164" type="line"/>
      <point x="491" y="-12"/>
    </contour>
  </outline>
</glyph>
<glyph name="u0422" format="2">
  <advance width="566"/>
  <unicode hex="0422"/>
  <outline>
    <contour>
      <point x="297" y="0" type="line"/>
      <point x="164" y="0" type="line"/>
      <point x="280" y="581" type="line"/>
      <point x="91" y="581" type="line"/>
      <point x="114" y="698" type="line"/>
      <point x="626" y="698" type="line"/>
      <point x="602" y="581" type="line"/>
      <point x="413" y="581" type="line"/>
    </contour>
  </outline>
</glyph>
<glyph name="u0423" format="2">
  <advance width="600"/>
  <unicode hex="0423"/>
  <outline>
    <contour>
      <point x="182" y="0" type="qcurve" smooth="yes"/>
      <point x="71" y="0" type="line"/>
      <point x="95" y="118" type="line"/>
      <point x="205" y="118" type="line"/>
      <point x="231" y="164" type="line"/>
      <point x="101" y="698" type="line"/>
      <point x="235" y="698" type="line"/>
      <point x="297" y="422" type="line"/>
      <point x="319" y="304" type="line"/>
      <point x="326" y="304" type="line"/>
      <point x="399" y="458"/>
      <point x="438" y="529" type="qcurve" smooth="yes"/>
      <point x="532" y="698" type="line"/>
      <point x="673" y="698" type="line"/>
      <point x="323" y="93" type="line"/>
      <point x="277" y="0"/>
    </contour>
  </outline>
</glyph>
<glyph name="u0424" format="2">
  <advance width="863"/>
  <unicode hex="0424"/>
  <outline>
    <contour>
      <point x="514" y="158" type="line" smooth="yes"/>
      <point x="620" y="158"/>
      <point x="673" y="248" type="qcurve" smooth="yes"/>
      <point x="717" y="323"/>
      <point x="717" y="424" type="qcurve" smooth="yes"/>
      <point x="717" y="471"/>
      <point x="654" y="538"/>
      <point x="588" y="538" type="qcurve" smooth="yes"/>
      <point x="551" y="538" type="line"/>
      <point x="475" y="158" type="line"/>
    </contour>
    <contour>
      <point x="347" y="158" type="line"/>
      <point x="423" y="538" type="line"/>
      <point x="384" y="538" type="line" smooth="yes"/>
      <point x="329" y="538"/>
      <point x="252" y="494"/>
      <point x="205" y="422"/>
      <point x="196" y="379" type="qcurve"/>
      <point x="188" y="335" type="line"/>
      <point x="180" y="300"/>
      <point x="180" y="272" type="qcurve" smooth="yes"/>
      <point x="180" y="228"/>
      <point x="244" y="158"/>
      <point x="310" y="158" type="qcurve" smooth="yes"/>
    </contour>
    <contour>
      <point x="437" y="-41" type="line"/>
      <point x="304" y="-41" type="line"/>
      <point x="322" y="49" type="line"/>
      <point x="289" y="49" type="line" smooth="yes"/>
      <point x="173" y="49"/>
      <point x="46" y="186"/>
      <point x="46" y="289" type="qcurve" smooth="yes"/>
      <point x="46" y="382"/>
      <point x="127" y="545"/>
      <point x="287" y="647"/>
      <point x="405" y="647" type="qcurve" smooth="yes"/>
      <point x="443" y="647" type="line"/>
      <point x="461" y="737" type="line"/>
      <point x="593" y="737" type="line"/>
      <point x="575" y="647" type="line"/>
      <point x="609" y="647" type="line" smooth="yes"/>
      <point x="694" y="647"/>
      <point x="800" y="577"/>
      <point x="851" y="466"/>
      <point x="851" y="407" type="qcurve" smooth="yes"/>
      <point x="851" y="315"/>
      <point x="770" y="151"/>
      <point x="610" y="49"/>
      <point x="492" y="49" type="qcurve" smooth="yes"/>
      <point x="455" y="49" type="line"/>
    </contour>
  </outline>
</glyph>
<glyph name="Hacyr" format="2">
  <advance width="632"/>
  <unicode hex="0425"/>
  <outline>
    <contour>
      <point x="559" y="0" type="line"/>
      <point x="416" y="0" type="line"/>
      <point x="313" y="251" type="line"/>
      <point x="306" y="251" type="line"/>
      <point x="117" y="0" type="line"/>
      <point x="-37" y="0" type="line"/>
      <point x="253" y="367" type="line"/>
      <point x="107" y="698" type="line"/>
      <point x="250" y="698" type="line"/>
      <point x="349" y="457" type="line"/>
      <point x="357" y="457" type="line"/>
      <point x="542" y="698" type="line"/>
      <point x="696" y="698" type="line"/>
      <point x="408" y="346" type="line"/>
    </contour>
  </outline>
</glyph>
<glyph name="afii10042" format="2">
  <advance width="983"/>
  <unicode hex="0428"/>
  <outline>
    <contour>
      <point x="852" y="0" type="line"/>
      <point x="25" y="0" type="line"/>
      <point x="165" y="698" type="line"/>
      <point x="298" y="698" type="line"/>
      <point x="182" y="118" type="line"/>
      <point x="396" y="118" type="line"/>
      <point x="512" y="698" type="line"/>
      <point x="645" y="698" type="line"/>
      <point x="529" y="118" type="line"/>
      <point x="743" y="118" type="line"/>
      <point x="860" y="698" type="line"/>
      <point x="992" y="698" type="line"/>
    </contour>
  </outline>
</glyph>
<glyph name="Hardcyr" format="2">
  <advance width="719"/>
  <unicode hex="042A"/>
  <outline>
    <contour>
      <point x="436" y="117" type="line" smooth="yes"/>
      <point x="481" y="117"/>
      <point x="529" y="175"/>
      <point x="546" y="244"/>
      <point x="546" y="265" type="qcurve" smooth="yes"/>
      <point x="546" y="321"/>
      <point x="478" y="321" type="qcurve" smooth="yes"/>
      <point x="313" y="321" type="line"/>
      <point x="273" y="117" type="line"/>
    </contour>
    <contour>
      <point x="419" y="0" type="qcurve" smooth="yes"/>
      <point x="116" y="0" type="line"/>
      <point x="233" y="581" type="line"/>
      <point x="80" y="581" type="line"/>
      <point x="104" y="698" type="line"/>
      <point x="390" y="698" type="line"/>
      <point x="338" y="438" type="line"/>
      <point x="475" y="438" type="line" smooth="yes"/>
      <point x="585" y="438"/>
      <point x="683" y="337"/>
      <point x="683" y="255" type="qcurve" smooth="yes"/>
      <point x="683" y="174"/>
      <point x="612" y="60"/>
      <point x="493" y="0"/>
    </contour>
  </outline>
</glyph>
<glyph name="Yucyr" format="2">
  <advance width="981"/>
  <unicode hex="042E"/>
  <outline>
    <contour>
      <point x="607" y="106" type="qcurve" smooth="yes"/>
      <point x="690" y="106"/>
      <point x="782" y="219"/>
      <point x="796" y="309" type="qcurve"/>
      <point x="806" y="356" type="line" smooth="yes"/>
      <point x="816" y="399"/>
      <point x="819" y="455" type="qcurve"/>
      <point x="819" y="592"/>
      <point x="698" y="592" type="qcurve" smooth="yes"/>
      <point x="643" y="592"/>
      <point x="566" y="538"/>
      <point x="518" y="447"/>
      <point x="509" y="389" type="qcurve"/>
      <point x="491" y="299" type="line"/>
      <point x="486" y="267"/>
      <point x="486" y="243" type="qcurve" smooth="yes"/>
      <point x="486" y="106"/>
    </contour>
    <contour>
      <point x="598" y="-12" type="qcurve" smooth="yes"/>
      <point x="491" y="-12"/>
      <point x="351" y="132"/>
      <point x="351" y="269" type="qcurve"/>
      <point x="352" y="294" type="line"/>
      <point x="217" y="294" type="line"/>
      <point x="158" y="0" type="line"/>
      <point x="25" y="0" type="line"/>
      <point x="165" y="698" type="line"/>
      <point x="298" y="698" type="line"/>
      <point x="241" y="411" type="line"/>
      <point x="370" y="411" type="line"/>
      <point x="393" y="497"/>
      <point x="488" y="631"/>
      <point x="623" y="710"/>
      <point x="707" y="710" type="qcurve" smooth="yes"/>
      <point x="827" y="710"/>
      <point x="954" y="557"/>
      <point x="954" y="429" type="qcurve" smooth="yes"/>
      <point x="954" y="348"/>
      <point x="906" y="190"/>
      <point x="815" y="64"/>
      <point x="683" y="-12"/>
    </contour>
  </outline>
</glyph>
<glyph name="Yacyr" format="2">
  <advance width="653"/>
  <unicode hex="042F"/>
  <outline>
    <contour>
      <point x="465" y="377" type="line"/>
      <point x="506" y="581" type="line"/>
      <point x="353" y="581" type="line" smooth="yes"/>
      <point x="307" y="581"/>
      <point x="260" y="525"/>
      <point x="244" y="457"/>
      <point x="244" y="435" type="qcurve" smooth="yes"/>
      <point x="244" y="403"/>
      <point x="282" y="377"/>
      <point x="330" y="377" type="qcurve" smooth="yes"/>
    </contour>
    <contour>
      <point x="521" y="0" type="line"/>
      <point x="389" y="0" type="line"/>
      <point x="442" y="264" type="line"/>
      <point x="338" y="264" type="line"/>
      <point x="198" y="67" type="line"/>
      <point x="155" y="0"/>
      <point x="72" y="0" type="qcurve" smooth="yes"/>
      <point x="-1" y="0" type="line"/>
      <point x="23" y="118" type="line"/>
      <point x="82" y="118" type="line"/>
      <point x="88" y="126"/>
      <point x="93" y="134" type="qcurve"/>
      <point x="95" y="137" type="line"/>
      <point x="100" y="144"/>
      <point x="104" y="150" type="qcurve" smooth="yes"/>
      <point x="106" y="153" type="line"/>
      <point x="107" y="154"/>
      <point x="107" y="155" type="qcurve"/>
      <point x="110" y="158" type="line"/>
      <point x="110" y="159"/>
      <point x="111" y="160" type="qcurve"/>
      <point x="114" y="164" type="line"/>
      <point x="115" y="165"/>
      <point x="115" y="166" type="qcurve"/>
      <point x="117" y="169" type="line"/>
      <point x="120" y="172"/>
      <point x="122" y="176" type="qcurve"/>
      <point x="129" y="185" type="line"/>
      <point x="129" y="186"/>
      <point x="130" y="187" type="qcurve"/>
      <point x="132" y="190" type="line"/>
      <point x="132" y="191"/>
      <point x="133" y="192" type="qcurve"/>
      <point x="135" y="195" type="line"/>
      <point x="140" y="201"/>
      <point x="144" y="208" type="qcurve"/>
      <point x="146" y="211" type="line" smooth="yes"/>
      <point x="148" y="214"/>
      <point x="151" y="217" type="qcurve"/>
      <point x="153" y="220" type="line"/>
      <point x="153" y="221"/>
      <point x="154" y="222" type="qcurve"/>
      <point x="190" y="274"/>
      <point x="243" y="280" type="qcurve"/>
      <point x="244" y="286" type="line"/>
      <point x="106" y="316"/>
      <point x="106" y="445" type="qcurve" smooth="yes"/>
      <point x="106" y="562"/>
      <point x="258" y="698"/>
      <point x="371" y="698" type="qcurve" smooth="yes"/>
      <point x="662" y="698" type="line"/>
    </contour>
  </outline>
</glyph>
<glyph name="u0432" format="2">
  <advance width="550"/>
  <unicode hex="0432"/>
  <outline>
    <contour>
      <point x="282" y="95" type="line" smooth="yes"/>
      <point x="313" y="95"/>
      <point x="348" y="122"/>
      <point x="361" y="162"/>
      <point x="361" y="182" type="qcurve"/>
      <point x="359" y="225"/>
      <point x="307" y="225" type="qcurve" smooth="yes"/>
      <point x="188" y="225" type="line"/>
      <point x="162" y="95" type="line"/>
    </contour>
    <contour>
      <point x="314" y="305" type="line" smooth="yes"/>
      <point x="392" y="305"/>
      <point x="392" y="388" type="qcurve" smooth="yes"/>
      <point x="392" y="428"/>
      <point x="339" y="428" type="qcurve" smooth="yes"/>
      <point x="229" y="428" type="line"/>
      <point x="205" y="305" type="line"/>
    </contour>
    <contour>
      <point x="307" y="0" type="qcurve" smooth="yes"/>
      <point x="18" y="0" type="line"/>
      <point x="123" y="523" type="line"/>
      <point x="382" y="523" type="line" smooth="yes"/>
      <point x="439" y="523"/>
      <point x="517" y="468"/>
      <point x="517" y="405" type="qcurve" smooth="yes"/>
      <point x="517" y="359"/>
      <point x="460" y="287"/>
      <point x="398" y="273" type="qcurve"/>
      <point x="397" y="269" type="line"/>
      <point x="486" y="251"/>
      <point x="486" y="170" type="qcurve" smooth="yes"/>
      <point x="486" y="90"/>
      <point x="381" y="0"/>
    </contour>
  </outline>
</glyph>
<glyph name="gecyr" format="2">
  <advance width="429"/>
  <unicode hex="0433"/>
  <outline>
    <contour>
      <point x="146" y="0" type="line"/>
      <point x="18" y="0" type="line"/>
      <point x="123" y="523" type="line"/>
      <point x="459" y="523" type="line"/>
      <point x="439" y="420" type="line"/>
      <point x="231" y="420" type="line"/>
    </contour>
  </outline>
</glyph>
<glyph name="afii10069" format="2">
  <advance width="554"/>
  <unicode hex="0434"/>
  <outline>
    <contour>
      <point x="234" y="-12" type="qcurve" smooth="yes"/>
      <point x="149" y="-12"/>
      <point x="35" y="97"/>
      <point x="35" y="206" type="qcurve" smooth="yes"/>
      <point x="35" y="302"/>
      <point x="101" y="444"/>
      <point x="207" y="523"/>
      <point x="265" y="523" type="qcurve" smooth="yes"/>
      <point x="358" y="523"/>
      <point x="385" y="434" type="qcurve"/>
      <point x="391" y="434" type="line"/>
      <point x="391" y="461" type="line" smooth="yes"/>
      <point x="391" y="638"/>
      <point x="245" y="638" type="qcurve" smooth="yes"/>
      <point x="195" y="638"/>
      <point x="159" y="627" type="qcurve"/>
      <point x="183" y="745" type="line"/>
      <point x="210" y="752"/>
      <point x="260" y="752" type="qcurve" smooth="yes"/>
      <point x="394" y="752"/>
      <point x="519" y="600"/>
      <point x="519" y="450" type="qcurve" smooth="yes"/>
      <point x="519" y="293"/>
      <point x="444" y="88"/>
      <point x="315" y="-12"/>
    </contour>
    <contour>
      <point x="238" y="93" type="qcurve" smooth="yes"/>
      <point x="287" y="93"/>
      <point x="342" y="164"/>
      <point x="358" y="239" type="qcurve"/>
      <point x="375" y="308"/>
      <point x="375" y="337" type="qcurve" smooth="yes"/>
      <point x="375" y="419"/>
      <point x="295" y="419" type="qcurve" smooth="yes"/>
      <point x="255" y="419"/>
      <point x="204" y="362"/>
      <point x="174" y="282"/>
      <point x="162" y="204"/>
      <point x="162" y="183" type="qcurve" smooth="yes"/>
      <point x="162" y="146"/>
      <point x="198" y="93"/>
    </contour>
  </outline>
</glyph>
<glyph name="afii10075" format="2">
  <advance width="578"/>
  <unicode hex="0439"/>
  <outline>
    <contour>
      <point x="345" y="582" type="qcurve" smooth="yes"/>
      <point x="236" y="582"/>
      <point x="204" y="688" type="qcurve"/>
      <point x="188" y="737" type="line"/>
      <point x="293" y="777" type="line"/>
      <point x="310" y="680" type="line"/>
      <point x="330" y="673"/>
      <point x="356" y="673" type="qcurve" smooth="yes"/>
      <point x="386" y="673"/>
      <point x="400" y="680" type="qcurve"/>
      <point x="447" y="777" type="line"/>
      <point x="548" y="736" type="line"/>
      <point x="519" y="688" type="line"/>
      <point x="461" y="582"/>
    </contour>
    <contour>
      <point x="170" y="-12" type="qcurve" smooth="yes"/>
      <point x="102" y="-12"/>
      <point x="44" y="66"/>
      <point x="44" y="125" type="qcurve" smooth="yes"/>
      <point x="44" y="164"/>
      <point x="53" y="200" type="qcurve"/>
      <point x="118" y="523" type="line"/>
      <point x="246" y="523" type="line"/>
      <point x="183" y="210" type="line" smooth="yes"/>
      <point x="177" y="180"/>
      <point x="177" y="157" type="qcurve" smooth="yes"/>
      <point x="177" y="96"/>
      <point x="231" y="96" type="qcurve" smooth="yes"/>
      <point x="281" y="96"/>
      <point x="356" y="190"/>
      <point x="369" y="251" type="qcurve" smooth="yes"/>
      <point x="423" y="523" type="line"/>
      <point x="551" y="523" type="line"/>
      <point x="467" y="104" type="line"/>
      <point x="529" y="104" type="line"/>
      <point x="508" y="0" type="line"/>
      <point x="420" y="0" type="line"/>
      <point x="383" y="1"/>
      <point x="336" y="37"/>
      <point x="336" y="74" type="qcurve" smooth="yes"/>
      <point x="336" y="91"/>
      <point x="339" y="103" type="qcurve"/>
      <point x="342" y="118" type="line"/>
      <point x="336" y="118" type="line"/>
      <point x="280" y="-12"/>
    </contour>
  </outline>
</glyph>
<glyph name="afii10078" format="2">
  <advance width="700"/>
  <unicode hex="043C"/>
  <outline>
    <contour>
      <point x="577" y="0" type="line"/>
      <point x="453" y="0" type="line"/>
      <point x="526" y="363" type="line"/>
      <point x="521" y="363" type="line"/>
      <point x="317" y="97" type="line"/>
      <point x="237" y="313"/>
      <point x="220" y="363" type="qcurve"/>
      <point x="215" y="363" type="line"/>
      <point x="142" y="0" type="line"/>
      <point x="18" y="0" type="line"/>
      <point x="123" y="523" type="line"/>
      <point x="264" y="523" type="line"/>
      <point x="350" y="289" type="line"/>
      <point x="352" y="289" type="line"/>
      <point x="533" y="523" type="line"/>
      <point x="682" y="523" type="line"/>
    </contour>
  </outline>
</glyph>
<glyph name="u043D" format="2">
  <advance width="579"/>
  <unicode hex="043D"/>
  <outline>
    <contour>
      <point x="456" y="0" type="line"/>
      <point x="328" y="0" type="line"/>
      <point x="371" y="215" type="line"/>
      <point x="189" y="215" type="line"/>
      <point x="146" y="0" type="line"/>
      <point x="18" y="0" type="line"/>
      <point x="123" y="523" type="line"/>
      <point x="251" y="523" type="line"/>
      <point x="210" y="319" type="line"/>
      <point x="391" y="319" type="line"/>
      <point x="433" y="523" type="line"/>
      <point x="561" y="523" type="line"/>
    </contour>
  </outline>
</glyph>
<glyph name="afii10082" format="2">
  <advance width="581"/>
  <unicode hex="0440"/>
  <outline>
    <contour>
      <point x="106" y="-200" type="line"/>
      <point x="-22" y="-200" type="line"/>
      <point x="123" y="523" type="line"/>
      <point x="251" y="523" type="line"/>
      <point x="227" y="403" type="line"/>
      <point x="233" y="403" type="line"/>
      <point x="287" y="535"/>
      <point x="403" y="535" type="qcurve" smooth="yes"/>
      <point x="454" y="535"/>
      <point x="517" y="485"/>
      <point x="546" y="401"/>
      <point x="546" y="350" type="qcurve" smooth="yes"/>
      <point x="546" y="196"/>
      <point x="404" y="-12"/>
      <point x="301" y="-12" type="qcurve" smooth="yes"/>
      <point x="242" y="-12"/>
      <point x="176" y="46"/>
      <point x="169" y="90" type="qcurve"/>
      <point x="164" y="90" type="line"/>
    </contour>
    <contour>
      <point x="272" y="94" type="qcurve" smooth="yes"/>
      <point x="371" y="94"/>
      <point x="395" y="219" type="qcurve" smooth="yes"/>
      <point x="408" y="291" type="line"/>
      <point x="414" y="318"/>
      <point x="415" y="334" type="qcurve"/>
      <point x="415" y="429"/>
      <point x="343" y="429" type="qcurve" smooth="yes"/>
      <point x="291" y="429"/>
      <point x="214" y="337"/>
      <point x="201" y="273" type="qcurve" smooth="yes"/>
      <point x="185" y="190"/>
      <point x="182" y="167" type="qcurve"/>
      <point x="182" y="129"/>
      <point x="234" y="94"/>
    </contour>
  </outline>
</glyph>
<glyph name="tecyr" format="2">
  <advance width="471"/>
  <unicode hex="0442"/>
  <outline>
    <contour>
      <point x="247" y="0" type="line"/>
      <point x="119" y="0" type="line"/>
      <point x="203" y="420" type="line"/>
      <point x="53" y="420" type="line"/>
      <point x="74" y="523" type="line"/>
      <point x="503" y="523" type="line"/>
      <point x="482" y="420" type="line"/>
      <point x="331" y="420" type="line"/>
    </contour>
  </outline>
</glyph>
<glyph name="afii10088" format="2">
  <advance width="618"/>
  <unicode hex="0446"/>
  <outline>
    <contour>
      <point x="507" y="-140" type="line"/>
      <point x="393" y="-140" type="line"/>
      <point x="421" y="0" type="line"/>
      <point x="388" y="0"/>
      <point x="336" y="34"/>
      <point x="336" y="74" type="qcurve" smooth="yes"/>
      <point x="336" y="91"/>
      <point x="339" y="103" type="qcurve"/>
      <point x="342" y="118" type="line"/>
      <point x="336" y="118" type="line"/>
      <point x="281" y="-12"/>
      <point x="170" y="-12" type="qcurve" smooth="yes"/>
      <point x="102" y="-12"/>
      <point x="44" y="65"/>
      <point x="44" y="125" type="qcurve" smooth="yes"/>
      <point x="44" y="164"/>
      <point x="53" y="200" type="qcurve"/>
      <point x="118" y="523" type="line"/>
      <point x="246" y="523" type="line"/>
      <point x="183" y="210" type="line" smooth="yes"/>
      <point x="177" y="180"/>
      <point x="177" y="157" type="qcurve" smooth="yes"/>
      <point x="177" y="96"/>
      <point x="231" y="96" type="qcurve" smooth="yes"/>
      <point x="281" y="96"/>
      <point x="356" y="190"/>
      <point x="369" y="251" type="qcurve" smooth="yes"/>
      <point x="423" y="523" type="line"/>
      <point x="551" y="523" type="line"/>
      <point x="467" y="104" type="line"/>
      <point x="556" y="104" type="line"/>
    </contour>
  </outline>
</glyph>
<glyph name="afii10093" format="2">
  <advance width="757"/>
  <unicode hex="044B"/>
  <outline>
    <contour>
      <point x="266" y="0" type="qcurve" smooth="yes"/>
      <point x="18" y="0" type="line"/>
      <point x="123" y="523" type="line"/>
      <point x="251" y="523" type="line"/>
      <point x="218" y="361" type="line"/>
      <point x="335" y="361" type="line" smooth="yes"/>
      <point x="413" y="361"/>
      <point x="481" y="277"/>
      <point x="481" y="217" type="qcurve" smooth="yes"/>
      <point x="481" y="147"/>
      <point x="424" y="50"/>
      <point x="326" y="0"/>
    </contour>
    <contour>
      <point x="634" y="0" type="line"/>
      <point x="506" y="0" type="line"/>
      <point x="611" y="523" type="line"/>
      <point x="739" y="523" type="line"/>
    </contour>
    <contour>
      <point x="255" y="96" type="line" smooth="yes"/>
      <point x="307" y="96"/>
      <point x="353" y="165"/>
      <point x="353" y="209" type="qcurve" smooth="yes"/>
      <point x="353" y="233"/>
      <point x="322" y="266"/>
      <point x="289" y="266" type="qcurve" smooth="yes"/>
      <point x="199" y="266" type="line"/>
      <point x="165" y="96" type="line"/>
    </contour>
  </outline>
</glyph>
<glyph name="afii10095" format="2">
  <advance width="509"/>
  <unicode hex="044D"/>
  <outline>
    <contour>
      <point x="194" y="-12" type="qcurve" smooth="yes"/>
      <point x="36" y="-12"/>
      <point x="-3" y="119" type="qcurve"/>
      <point x="100" y="166" type="line"/>
      <point x="122" y="93"/>
      <point x="201" y="93" type="qcurve" smooth="yes"/>
      <point x="310" y="93"/>
      <point x="327" y="220" type="qcurve"/>
      <point x="156" y="220" type="line"/>
      <point x="175" y="312" type="line"/>
      <point x="345" y="312" type="line"/>
      <point x="348" y="325"/>
      <point x="348" y="344" type="qcurve" smooth="yes"/>
      <point x="348" y="431"/>
      <point x="252" y="431" type="qcurve" smooth="yes"/>
      <point x="178" y="431"/>
      <point x="137" y="357" type="qcurve"/>
      <point x="42" y="414" type="line"/>
      <point x="84" y="479"/>
      <point x="191" y="535"/>
      <point x="264" y="535" type="qcurve" smooth="yes"/>
      <point x="339" y="535"/>
      <point x="432" y="478"/>
      <point x="475" y="377"/>
      <point x="475" y="311" type="qcurve" smooth="yes"/>
      <point x="475" y="219"/>
      <point x="405" y="73"/>
      <point x="278" y="-12"/>
    </contour>
  </outline>
</glyph>
<glyph name="afii10099" format="2">
  <advance width="580"/>
  <unicode hex="0452"/>
  <outline>
    <contour>
      <point x="290" y="-200" type="qcurve" smooth="yes"/>
      <point x="214" y="-200" type="line"/>
      <point x="234" y="-97" type="line"/>
      <point x="311" y="-97" type="line"/>
      <point x="393" y="313" type="line" smooth="yes"/>
      <point x="399" y="340"/>
      <point x="399" y="369" type="qcurve" smooth="yes"/>
      <point x="399" y="427"/>
      <point x="341" y="427" type="qcurve" smooth="yes"/>
      <point x="294" y="427"/>
      <point x="216" y="337"/>
      <point x="201" y="273" type="qcurve"/>
      <point x="146" y="0" type="line"/>
      <point x="18" y="0" type="line"/>
      <point x="137" y="595" type="line"/>
      <point x="69" y="595" type="line"/>
      <point x="88" y="684" type="line"/>
      <point x="155" y="684" type="line"/>
      <point x="166" y="740" type="line"/>
      <point x="294" y="740" type="line"/>
      <point x="283" y="684" type="line"/>
      <point x="424" y="684" type="line"/>
      <point x="406" y="595" type="line"/>
      <point x="265" y="595" type="line"/>
      <point x="228" y="405" type="line"/>
      <point x="233" y="405" type="line"/>
      <point x="289" y="535"/>
      <point x="404" y="535" type="qcurve" smooth="yes"/>
      <point x="473" y="535"/>
      <point x="532" y="457"/>
      <point x="532" y="398" type="qcurve" smooth="yes"/>
      <point x="532" y="359"/>
      <point x="523" y="325" type="qcurve"/>
      <point x="443" y="-68" type="line"/>
      <point x="422" y="-200"/>
    </contour>
  </outline>
</glyph>
<glyph name="u0453" format="2">
  <advance width="429"/>
  <unicode hex="0453"/>
  <outline>
    <contour>
      <point x="146" y="0" type="line"/>
      <point x="18" y="0" type="line"/>
      <point x="123" y="523" type="line"/>
      <point x="459" y="523" type="line"/>
      <point x="439" y="420" type="line"/>
      <point x="231" y="420" type="line"/>
    </contour>
    <contour>
      <point x="318" y="580" type="line"/>
      <point x="241" y="622" type="line"/>
      <point x="357" y="808" type="line"/>
      <point x="460" y="753" type="line"/>
    </contour>
  </outline>
</glyph>
<glyph name="eukrcyr" format="2">
  <advance width="509"/>
  <unicode hex="0454"/>
  <outline>
    <contour>
      <point x="246" y="-12" type="qcurve" smooth="yes"/>
      <point x="151" y="-12"/>
      <point x="35" y="93"/>
      <point x="35" y="212" type="qcurve" smooth="yes"/>
      <point x="35" y="301"/>
      <point x="103" y="447"/>
      <point x="229" y="535"/>
      <point x="317" y="535" type="qcurve" smooth="yes"/>
      <point x="472" y="535"/>
      <point x="509" y="413" type="qcurve"/>
      <point x="403" y="363" type="line"/>
      <point x="392" y="400"/>
      <point x="349" y="431"/>
      <point x="310" y="431" type="qcurve" smooth="yes"/>
      <point x="220" y="431"/>
      <point x="196" y="350" type="qcurve"/>
      <point x="188" y="333"/>
      <point x="184" y="312" type="qcurve"/>
      <point x="354" y="312" type="line"/>
      <point x="335" y="220" type="line"/>
      <point x="165" y="220" type="line"/>
      <point x="162" y="200"/>
      <point x="162" y="183" type="qcurve" smooth="yes"/>
      <point x="162" y="93"/>
      <point x="257" y="93" type="qcurve" smooth="yes"/>
      <point x="297" y="93"/>
      <point x="351" y="130"/>
      <point x="375" y="175" type="qcurve"/>
      <point x="471" y="121" type="line"/>
      <point x="433" y="54"/>
      <point x="324" y="-12"/>
    </contour>
  </outline>
</glyph>
<glyph name="afii10106" format="2">
  <advance width="830"/>
  <unicode hex="0459"/>
  <outline>
    <contour>
      <point x="11" y="-5" type="qcurve" smooth="yes"/>
      <point x="-40" y="-5" type="line"/>
      <point x="-18" y="104" type="line"/>
      <point x="48" y="104" type="line"/>
      <point x="99" y="157"/>
      <point x="148" y="391" type="qcurve" smooth="yes"/>
      <point x="175" y="523" type="line"/>
      <point x="552" y="523" type="line"/>
      <point x="519" y="361" type="line"/>
      <point x="636" y="361" type="line" smooth="yes"/>
      <point x="714" y="361"/>
      <point x="782" y="278"/>
      <point x="782" y="217" type="qcurve" smooth="yes"/>
      <point x="782" y="146"/>
      <point x="725" y="49"/>
      <point x="628" y="0"/>
      <point x="568" y="0" type="qcurve" smooth="yes"/>
      <point x="319" y="0" type="line"/>
      <point x="403" y="420" type="line"/>
      <point x="276" y="420" type="line"/>
      <point x="252" y="287"/>
      <point x="198" y="119"/>
      <point x="134" y="28"/>
      <point x="58" y="-5"/>
    </contour>
    <contour>
      <point x="557" y="96" type="line" smooth="yes"/>
      <point x="606" y="96"/>
      <point x="653" y="158"/>
      <point x="655" y="201" type="qcurve"/>
      <point x="655" y="218"/>
      <point x="650" y="228" type="qcurve"/>
      <point x="641" y="266"/>
      <point x="590" y="266" type="qcurve" smooth="yes"/>
      <point x="500" y="266" type="line"/>
      <point x="466" y="96" type="line"/>
    </contour>
  </outline>
</glyph>
<glyph name="afii10107" format="2">
  <advance width="828"/>
  <unicode hex="045A"/>
  <outline>
    <contour>
      <point x="566" y="0" type="qcurve" smooth="yes"/>
      <point x="318" y="0" type="line"/>
      <point x="360" y="215" type="line"/>
      <point x="189" y="215" type="line"/>
      <point x="146" y="0" type="line"/>
      <point x="18" y="0" type="line"/>
      <point x="123" y="523" type="line"/>
      <point x="251" y="523" type="line"/>
      <point x="210" y="319" type="line"/>
      <point x="381" y="319" type="line"/>
      <point x="422" y="523" type="line"/>
      <point x="550" y="523" type="line"/>
      <point x="517" y="361" type="line"/>
      <point x="634" y="361" type="line" smooth="yes"/>
      <point x="712" y="361"/>
      <point x="780" y="277"/>
      <point x="780" y="217" type="qcurve" smooth="yes"/>
      <point x="780" y="124"/>
      <point x="670" y="0"/>
    </contour>
    <contour>
      <point x="555" y="96" type="line" smooth="yes"/>
      <point x="605" y="96"/>
      <point x="653" y="164"/>
      <point x="653" y="209" type="qcurve" smooth="yes"/>
      <point x="653" y="233"/>
      <point x="622" y="266"/>
      <point x="588" y="266" type="qcurve" smooth="yes"/>
      <point x="498" y="266" type="line"/>
      <point x="464" y="96" type="line"/>
    </contour>
  </outline>
</glyph>
